<svg id="Layer_1" data-name="Layer 1" xmlns="http://www.w3.org/2000/svg" viewBox="0 0 128.16 128.16"><defs><style>.cls-1{fill:#f18a00;}.cls-2{fill:#fff;}</style></defs><circle class="cls-1" cx="65.07" cy="64.73" r="60.41"/><path class="cls-2" d="M65.07,127.73a63,63,0,1,1,63-63A63,63,0,0,1,65.07,127.73ZM65.07,9a55.78,55.78,0,1,0,55.78,55.77v0A55.85,55.85,0,0,0,65.07,9Z"/><polygon class="cls-2" points="73.2 96.18 56.94 96.18 56.94 72.47 33.62 72.47 33.62 56.78 56.94 56.78 56.94 33.27 73.2 33.27 73.2 56.78 96.53 56.78 96.53 72.47 73.2 72.47 73.2 96.18"/></svg>