<svg id="Layer_1" data-name="Layer 1" xmlns="http://www.w3.org/2000/svg" viewBox="0 0 128.16 128.16"><defs><style>.cls-1{fill:#00aeef;}.cls-2{fill:#fff;}</style></defs><g id="Beagle"><path class="cls-1" d="M116.8,126.6H12.65A9.6,9.6,0,0,1,3.06,117V12.45a9.6,9.6,0,0,1,9.59-9.59H116.8a9.6,9.6,0,0,1,9.58,9.59V117A9.59,9.59,0,0,1,116.8,126.6Z"/><path class="cls-2" d="M119,56.71a7.51,7.51,0,0,0-4-5.36l-1.26-.59c-4.81-2.28-11.41-5.39-16.79-7.8a19.67,19.67,0,0,1-3.29-1.71,6.6,6.6,0,0,0,0-.8v-.21c.08-2.56.3-10.35-17.89-17.9-16.67-6.92-29-7.41-41.12-1.66-8.34,3.95-9,10.77-8.46,14.92A18.27,18.27,0,0,0,22,37.68C16.3,41.19,10.63,49.4,10.4,49.74A2.48,2.48,0,0,0,10,51.23c0,1,.79,24.27,6.54,38.92,5.19,13.22,16,22.67,19.83,22.67h.07a2.72,2.72,0,0,0,2.56-1.9,13.68,13.68,0,0,0,.44-2.37c.11-.78.37-2.85.81-3.08,0,0,.72-.32,3,.81,7,3.37,12.86,3.56,17.57.56,7.83-5,9.62-17.53,10-23.68,2.87.93,7.55,2.37,13.59,4,11.85,3.17,22.57-3.89,28.65-11.56C117.87,69.55,120.26,62,119,56.71Z"/><path d="M119,56.71a7.51,7.51,0,0,0-4-5.36l-1.26-.59c-4.81-2.28-11.41-5.39-16.79-7.8a19.67,19.67,0,0,1-3.29-1.71,6.6,6.6,0,0,0,0-.8v-.21c.08-2.56.3-10.35-17.89-17.9-16.67-6.92-29-7.41-41.12-1.66-8.34,3.95-9,10.77-8.46,14.92A18.27,18.27,0,0,0,22,37.68C16.3,41.19,10.63,49.4,10.4,49.74A2.48,2.48,0,0,0,10,51.23c0,1,.79,24.27,6.54,38.92,5.19,13.22,16,22.67,19.83,22.67h.07a2.72,2.72,0,0,0,2.56-1.9,13.68,13.68,0,0,0,.44-2.37c.11-.78.37-2.85.81-3.08,0,0,.72-.32,3,.81,7,3.37,12.86,3.56,17.57.56,7.83-5,9.62-17.53,10-23.68,2.87.93,7.55,2.37,13.59,4,11.85,3.17,22.57-3.89,28.65-11.56C117.87,69.55,120.26,62,119,56.71ZM66,79.76c.07,4.94-1.21,18.66-7.83,22.87-3.14,2-7.42,1.71-12.7-.85a13.14,13.14,0,0,0-3.88-1.27c-6.74-6.1-14.5-17.75-11.43-28.6q.75-2.66,1.48-5.33c2.91-10.51,5.92-21.38,9.27-24.4,1.34-1.21,4.9-4,8.85-3.3,2.91.48,5.51,2.76,7.73,6.75,5.89,10.65,9,21.49,9.33,32.27A2.49,2.49,0,0,0,66,79.76Zm43.21-7.29C99.39,84.8,88.76,83.12,85.73,82.31c-8-2.14-13.69-4-15.66-4.67-.35-11.25-3.62-22.55-9.74-33.6-2.73-4.92-6.11-7.75-10.07-8.41-5.36-.89-9.9,2.57-11.59,4.11-4.07,3.66-7.06,14.5-10.24,26Q27.7,68.37,27,71c-3.2,11.31,3.74,23.17,10.63,30.23-2,1.23-2.64,3.47-2.95,5.38a43.86,43.86,0,0,1-13.47-18.3C16.31,76,15.18,56.18,15,51.91c1.4-1.92,5.67-7.54,9.6-10A11,11,0,0,1,28,40.31a2.5,2.5,0,0,0,3.68-3A9.25,9.25,0,0,1,36.82,25.2C47.71,20,58.45,20.55,73.88,27c10,4.13,15,8.55,14.81,13.14v.35c0,.14,0,.26,0,.38a1,1,0,0,0,0,.17c-1.19.46-2.83,1.12-4.81,2a13.63,13.63,0,0,0-6.34,5.28,1.11,1.11,0,0,0,1.57,1.51l3.39-2.34a6.12,6.12,0,0,0,3,2.76,3.73,3.73,0,0,0,1.27.22,4.28,4.28,0,0,0,2.11-.58c1.64-.92,3-1.87,3.39-3.6.76.42,1.65.84,2.68,1.3,5.18,2.31,11.52,5.3,16.27,7.55-1,1.16-2.25,2.56-3.09,3.57a2.93,2.93,0,0,0-.78,2.44c.26,1.47,1.76,2.33,3.08,3.09l.55.31a13.76,13.76,0,0,0,2.28.88A26.09,26.09,0,0,1,109.17,72.47Z"/></g></svg>