<svg id="Layer_1" data-name="Layer 1" xmlns="http://www.w3.org/2000/svg" viewBox="0 0 128.16 128.16"><defs><style>.cls-1{fill:#00aeef;}.cls-2{fill:#fff;}</style></defs><path class="cls-1" d="M116.8,126.6H12.65A9.6,9.6,0,0,1,3.07,117V12.44a9.59,9.59,0,0,1,9.58-9.58H116.8a9.6,9.6,0,0,1,9.59,9.58V117A9.6,9.6,0,0,1,116.8,126.6Z"/><path class="cls-2" d="M79.89,39.12s2.88-19.63,5-20.78-9.6,2.6-12.92,5.2V34.91A79.72,79.72,0,0,1,79.89,39.12Z"/><path class="cls-2" d="M110.2,83.28c-2.35-5.4-4.45-2.47-7-11.2S97.7,55.41,91.05,47.91a49.59,49.59,0,0,0-11.16-8.79h0l-11.74-.91s.5-12.07,3.82-14.67V12.07S47.41,30,39,42.14,18.79,74.88,18.79,74.88c16.6,9.05,30.29,24.21,42.48,42.46L72,94.44a20.73,20.73,0,0,1,6.94,0c5,.8,6.94,4,11.18,4C93.77,98.44,114,92,110.2,83.28Z"/><path class="cls-2" d="M94,68.26a18.13,18.13,0,0,0-5.4-7.62,18.66,18.66,0,0,0-7.9-3.6s1,5.8,5.2,8.59A14.79,14.79,0,0,0,94,68.26Z"/><path d="M94,70.07h0a16.56,16.56,0,0,1-9.09-2.95c-4.76-3.17-5.9-9.5-5.95-9.77A1.81,1.81,0,0,1,81,55.27a20.49,20.49,0,0,1,8.66,3.95,20,20,0,0,1,6,8.41A1.81,1.81,0,0,1,94,70.07ZM83.41,59.74a10.13,10.13,0,0,0,3.44,4.39,13.34,13.34,0,0,0,4,1.87,14.74,14.74,0,0,0-7.43-6.26Z"/><path d="M98.19,82.79a1.82,1.82,0,0,1-1-.3c-.11-.07-6.7-4.27-19-6.48a59.72,59.72,0,0,0-22.1,0,1.81,1.81,0,0,1-.66-3.55,63.11,63.11,0,0,1,23.41,0c13.12,2.35,20,6.83,20.32,7a1.81,1.81,0,0,1-1,3.32Z"/><path d="M54.47,89.45A1.81,1.81,0,0,1,53.81,86a60,60,0,0,1,22.34-4.12c12.93,0,20.33,3.12,20.64,3.26a1.8,1.8,0,1,1-1.43,3.31h0c-.07,0-7.1-3-19.23-3a55.79,55.79,0,0,0-21,3.87A1.69,1.69,0,0,1,54.47,89.45Z"/><path d="M94,68.26a18.13,18.13,0,0,0-5.4-7.62,18.66,18.66,0,0,0-7.9-3.6s1,5.8,5.2,8.59A14.79,14.79,0,0,0,94,68.26Z"/><path d="M112.49,82.29A11.49,11.49,0,0,0,109,77.51c-1.11-1-2.07-1.77-3.35-6.13-2.28-7.81-5.33-16.84-12.68-25.13a49.36,49.36,0,0,0-10.31-8.39c1.16-7.49,2.85-15.76,3.87-17.56a2.52,2.52,0,0,0,1.17-2.22,2.57,2.57,0,0,0-1.45-2.21c-.81-.38-1.4-.65-7.57,1.68-1.27.49-2.75,1.08-4.16,1.73V12.07a2.49,2.49,0,0,0-4-2c-1,.75-25,18.33-33.53,30.67C28.63,52.81,16.75,73.43,16.63,73.64a2.43,2.43,0,0,0-.24,1.92,2.49,2.49,0,0,0,1.21,1.52c14.58,8,28.18,21.57,41.59,41.65a2.5,2.5,0,0,0,2.08,1.11h.19a2.51,2.51,0,0,0,2.08-1.44L73.66,96.74a18,18,0,0,1,4.86.17,14,14,0,0,1,4.81,1.9,13.42,13.42,0,0,0,6.76,2.13c3.1,0,17.08-4,21.6-10.85A7.91,7.91,0,0,0,112.49,82.29Zm-38-49V24.88a44.12,44.12,0,0,1,6.12-2.72,123.13,123.13,0,0,0-2.62,13C76.56,34.36,75.35,33.75,74.47,33.32ZM22.22,74c3.28-5.61,12.23-20.77,18.87-30.39,6-8.76,21.15-20.9,28.38-26.47v5.45c-3.08,3.87-3.7,12.74-3.82,15.57A2.52,2.52,0,0,0,68,40.71l11.14.86a46,46,0,0,1,10.08,8c6,6.78,8.91,13.91,11.62,23.21,1.57,5.37,3.09,7,4.91,8.54a6.63,6.63,0,0,1,2.2,3,3,3,0,0,1-.4,3.07c-3.17,4.84-15,8.59-17.42,8.59a8.75,8.75,0,0,1-4.35-1.52A18.87,18.87,0,0,0,79.33,92a23.09,23.09,0,0,0-7.78,0,2.5,2.5,0,0,0-1.84,1.4l-8.84,18.93C48.46,94.49,35.77,81.9,22.22,74Z"/><path d="M95.64,67.63a20,20,0,0,0-6-8.41A20.49,20.49,0,0,0,81,55.27a1.81,1.81,0,0,0-2.13,2.08c0,.27,1.19,6.6,5.95,9.77a16.56,16.56,0,0,0,9.09,2.95h0a1.81,1.81,0,0,0,1.69-2.44Z"/><path d="M56.11,76a59.72,59.72,0,0,1,22.1,0c12.29,2.21,18.88,6.41,19,6.48A1.79,1.79,0,0,0,99.7,82a1.8,1.8,0,0,0-.52-2.5c-.28-.18-7.2-4.66-20.32-7a63.11,63.11,0,0,0-23.41,0A1.81,1.81,0,0,0,56.11,76Z"/><path d="M95.36,88.41a1.8,1.8,0,1,0,1.43-3.31c-.31-.14-7.71-3.26-20.64-3.26A60,60,0,0,0,53.81,86a1.81,1.81,0,0,0,.66,3.49,1.69,1.69,0,0,0,.66-.13,55.79,55.79,0,0,1,21-3.87C88.26,85.45,95.29,88.38,95.36,88.41Z"/></svg>