<svg id="Layer_1" data-name="Layer 1" xmlns="http://www.w3.org/2000/svg" viewBox="0 0 128.16 128.16"><defs><style>.cls-1{fill:#00aeef;}.cls-2{fill:#fff;}.cls-3{fill:none;stroke:#000;stroke-linecap:round;stroke-linejoin:round;stroke-width:4px;}</style></defs><rect class="cls-1" x="3.06" y="2.86" width="123.32" height="123.74" rx="9.58"/><path class="cls-2" d="M93.65,115.27a9.9,9.9,0,0,1-4.79-1.2C81,109.76,58,94.28,51.5,89.45a39.35,39.35,0,0,1-6.85-6.36L20.38,94.36a1.09,1.09,0,0,1-.47.08.74.74,0,0,1-.21,0,1,1,0,0,1-.6-.51,1,1,0,0,1-.08-.46.64.64,0,0,1,.07-.31h0c.14-.29,6.38-14.26,5-25.74A123.25,123.25,0,0,0,21.5,53.65c-1.62-7-3.14-13.52-2.48-19.51,1.08-9.69,9.61-19,10.16-19.63l.12-.12a1.22,1.22,0,0,1,.36-.18.94.94,0,0,1,.47,0h.11l20.91,7.61h0A28.59,28.59,0,0,1,63.65,18c8.18-.55,18.27-.44,24.06,2.54a.88.88,0,0,1,.23,0h18.71a1,1,0,0,1,.77.39,1,1,0,0,1,.15.86c-1.84,5.81-6.89,8.84-15,9a6.63,6.63,0,0,1-1,1.46,31.68,31.68,0,0,0,3.8,3.12c3.12,2.36,8.84,6.69,7.26,16.81a22.33,22.33,0,0,1-1.71,5.34c-1.4,3.32-2.84,6.76-1.39,13.53.92,4.29,3.36,9.62,5.72,14.77,3.5,7.66,6.53,14.28,5,17.83-1.67,3.88-6.73,9-12.3,10.95A13.14,13.14,0,0,1,93.65,115.27Z"/><line class="cls-3" x1="29.9" y1="15.14" x2="50.82" y2="22.72"/><path class="cls-3" d="M88,21.44h18.69q-2.61,8.2-14.47,8.33"/><path d="M47.81,40.3c-3.69.85-6.14-.38-7.12-1.69a1.74,1.74,0,0,1-.37-1.74c.35-.62,1.72-1.24,4.42-.95a2,2,0,0,0,.42-4c-5.44-.58-7.55,1.6-8.31,2.95A5.56,5.56,0,0,0,37.49,41a9.72,9.72,0,0,0,7.94,3.59,14.61,14.61,0,0,0,3.28-.39,2,2,0,1,0-.9-3.9Z"/><path d="M73.35,53.89a1.5,1.5,0,0,0-1.29,1.68s0,0,0,.07a1.53,1.53,0,0,0,0,.37c.47,6.64,4.13,10.44,11.18,11.63l.25,0a1.5,1.5,0,0,0,.88-.29,1.47,1.47,0,0,0,.6-1c.68-4.68,0-8.14-2.15-10.26S77.62,53.33,73.35,53.89Z"/><path d="M107.52,84.75c-2.3-5-4.68-10.22-5.55-14.26a17,17,0,0,1,1.21-11.94,24.6,24.6,0,0,0,1.92-6c1.81-11.6-5-16.72-8.3-19.24L96.35,33c8.8-1.26,12.27-6.24,13.62-10.53A3.47,3.47,0,0,0,106.65,18H88.29c-5.2-2.44-13.55-3.29-24.82-2.54a31.53,31.53,0,0,0-12.54,3.61L30.68,11.71h-.34a3.35,3.35,0,0,0-1.3.08l-.11,0a3.6,3.6,0,0,0-1.11.55l-.59.57c-2.88,3.24-9.67,11.76-10.7,20.92C15.83,40.24,17.39,47,19,54.1l0,.15a121.91,121.91,0,0,1,2.54,13.47c1.3,10.83-4.72,24.24-4.78,24.36a3.27,3.27,0,0,0-.31,1.31,3.65,3.65,0,0,0,.28,1.53l.06.12A3.52,3.52,0,0,0,19,96.83l.39.08a3.33,3.33,0,0,0,.63,0,3.61,3.61,0,0,0,1.45-.31L44,86.14a41.45,41.45,0,0,0,6,5.32c6.56,4.86,29.74,20.46,37.65,24.8a12.3,12.3,0,0,0,5.9,1.51h.09a16,16,0,0,0,5.12-.84c6.48-2.27,11.93-8,13.77-12.32C114.51,100,111.43,93.31,107.52,84.75ZM104.31,23c-1.77,3.08-5.12,4.77-10.14,5.16A8.9,8.9,0,0,0,92.25,23Zm3.17,79.37a14.94,14.94,0,0,1-2.89,4.11,30.09,30.09,0,0,1-1.36-5.2,3,3,0,0,0-2.73-2.85,3.61,3.61,0,0,0-3.92,2.43,41.72,41.72,0,0,1-2.16,4.94,1.46,1.46,0,0,0,0,1.29,1.49,1.49,0,0,0,1,.85l5.76,1.54a16.8,16.8,0,0,1-4.18,2.2,8,8,0,0,1-6.66-.26c-2.3-1.27-6.09-3.62-10.43-6.4-.39-1.09,0-3.72.69-5.66A2,2,0,0,0,76.76,98a19.86,19.86,0,0,0-1,4.34C67,96.67,57.34,90.06,53.29,87c-4.79-3.58-8-7.37-9.94-11.59A10.15,10.15,0,0,1,42.51,73a2,2,0,0,0-3.8-1.12c-.31.68-.48,1.88,1,5.17a28.8,28.8,0,0,0,2.24,4L23.06,89.84c1.88-5.31,4.49-14.55,3.51-22.74a124.61,124.61,0,0,0-2.64-14l0-.11c-1.55-6.7-3-13-2.41-18.56.82-7.3,6.43-14.6,8.89-17.49l17,6.2a31.88,31.88,0,0,0-3,2.6,16.47,16.47,0,0,0-5.18-.55c-4,.22-7,2.15-8.45,5.44-2,4.61-.53,10.79,2,13.88,4.16,5,9,7.66,14,7.66a15,15,0,0,0,4.58-.73,2,2,0,0,0-1.22-3.81c-5,1.61-9.86-.29-14.29-5.66-1.76-2.14-2.74-6.75-1.43-9.74.84-1.91,2.47-2.91,5-3.05a12.55,12.55,0,0,1,4.37.55,1.86,1.86,0,0,0,.9.33,30.31,30.31,0,0,1,5.47,3c3.37,2.18,6.85,4.43,11.81,4.59C72.49,38,76.76,27.83,76.94,27.4a2,2,0,0,0-1.85-2.75H60.21a2,2,0,0,0,0,4H71.63a11.25,11.25,0,0,1-9.48,5c-3.86-.12-6.73-2-9.77-3.95-1.21-.78-2.48-1.6-3.85-2.33a26.6,26.6,0,0,1,15.33-6.45c12.73-.86,22,.59,24.7,3.86.87,1,1.85,2.57,1.57,3.94a3.46,3.46,0,0,1-1.53,2.05l-.41-1.69a2,2,0,0,0-3.93.64,6.37,6.37,0,0,1-.44,3.2,4.81,4.81,0,0,1-1.07-1.51,2,2,0,0,0-3.81,1.08,4.39,4.39,0,0,1,0,1.33,2,2,0,0,0,.84,3.82,1.77,1.77,0,0,0,.5-.07A3.2,3.2,0,0,0,82,36.48a3.6,3.6,0,0,0,3.16.28,4.17,4.17,0,0,0,2.32-2.15,4.11,4.11,0,0,0,2.33,0,30.11,30.11,0,0,0,3.8,3.1c2.94,2.23,7.38,5.59,6.07,14a19.75,19.75,0,0,1-1.51,4.65c-1.5,3.57-3.2,7.61-1.56,15.29,1,4.61,3.5,10.09,5.93,15.39C105.17,92.81,108.49,100.06,107.48,102.38Z"/></svg>