<svg id="Layer_1" data-name="Layer 1" xmlns="http://www.w3.org/2000/svg" viewBox="0 0 128.16 128.16"><defs><style>.cls-1{fill:#00aeef;}.cls-2{fill:#62bb46;}</style></defs><g id="Show_Hide_Ribbon" data-name="Show Hide Ribbon"><path class="cls-1" d="M60.17,48.61a9.12,9.12,0,0,0-9,9.24v60.64a9.08,9.08,0,0,0,8.92,9.24h58.68a9.09,9.09,0,0,0,8.92-9.24h0V57.85a9.13,9.13,0,0,0-8.92-9.24Z"/><path class="cls-2" d="M78.25,36.49V11a9.08,9.08,0,0,0-8.88-9.24H10.65A9.08,9.08,0,0,0,1.73,11h0V71.61a9.12,9.12,0,0,0,8.92,9.24H40.81v-23a19.72,19.72,0,0,1,19.36-20H78.25Z"/></g></svg>