<svg id="Layer_1" data-name="Layer 1" xmlns="http://www.w3.org/2000/svg" viewBox="0 0 128.16 128.16"><defs><style>.cls-1{fill:#c7eafb;}.cls-2{fill:#00aeef;}.cls-3{fill:#f18a00;}.cls-4{fill:#fff;}</style></defs><path class="cls-1" d="M21,124.15a11.86,11.86,0,0,1-11.74-12V18.36A11.86,11.86,0,0,1,21,6.39h91.23a11.87,11.87,0,0,1,11.74,12h0v93.83a11.86,11.86,0,0,1-11.72,12h0Z"/><path class="cls-2" d="M112.18,9.22a9,9,0,0,1,8.92,9.08v93.89a9,9,0,0,1-8.86,9.14H21a9,9,0,0,1-8.91-9.09V18.36a9,9,0,0,1,8.86-9.14h91.28m0-5.65H21A14.68,14.68,0,0,0,6.39,18.36h0v93.83A14.68,14.68,0,0,0,21,127h91.23a14.69,14.69,0,0,0,14.56-14.79V18.36A14.68,14.68,0,0,0,112.18,3.57h0Z"/><path class="cls-3" d="M15.29,18.71H4.57a3.25,3.25,0,0,1-3.23-3.27h0V4.54A3.24,3.24,0,0,1,4.56,1.26H15.29a3.26,3.26,0,0,1,3.23,3.28V15.43A3.27,3.27,0,0,1,15.29,18.71Z"/><circle class="cls-3" cx="90.45" cy="90.53" r="35.51"/><path class="cls-4" d="M90.45,52.86A37.67,37.67,0,1,1,52.78,90.53h0A37.7,37.7,0,0,1,90.45,52.86Zm0,71A33.35,33.35,0,1,0,57.1,90.51v0a33.39,33.39,0,0,0,33.35,33.35Z"/><path class="cls-4" d="M110.28,86.16h-8.34V72.73a3.38,3.38,0,0,0-3.38-3.38H82.67a3.38,3.38,0,0,0-3.38,3.38V86.16H71c-1.42,0-1.93.79-1.93,1.53a2.68,2.68,0,0,0,.77,1.7L88.31,110.7a3,3,0,0,0,4.22.42,4.16,4.16,0,0,0,.42-.42l18.51-21.31a2.71,2.71,0,0,0,.75-1.7C112.21,87,111.7,86.16,110.28,86.16Z"/></svg>