<svg id="Layer_1" data-name="Layer 1" xmlns="http://www.w3.org/2000/svg" viewBox="0 0 128.16 128.16"><defs><style>.cls-1{fill:#c7eafb;}.cls-2{fill:#00aeef;}.cls-3{fill:#f18a00;}.cls-4{fill:#fff;}</style></defs><path class="cls-1" d="M21,124.16a11.87,11.87,0,0,1-11.74-12h0V18.36A11.86,11.86,0,0,1,21,6.39h91.23a11.87,11.87,0,0,1,11.74,12h0v93.83a11.88,11.88,0,0,1-11.74,12h0Z"/><path class="cls-2" d="M112.18,9.22a9,9,0,0,1,8.92,9.08v93.89a9,9,0,0,1-8.86,9.14H21a9,9,0,0,1-8.91-9.09V18.36a9,9,0,0,1,8.86-9.14h91.28m0-5.65H21A14.68,14.68,0,0,0,6.39,18.36h0v93.83A14.68,14.68,0,0,0,21,127h91.23a14.69,14.69,0,0,0,14.56-14.79V18.36A14.68,14.68,0,0,0,112.18,3.57h0Z"/><path class="cls-3" d="M15.29,18.71H4.57a3.25,3.25,0,0,1-3.23-3.27h0V4.54A3.24,3.24,0,0,1,4.56,1.26H15.29a3.26,3.26,0,0,1,3.23,3.28V15.43A3.27,3.27,0,0,1,15.29,18.71Z"/><circle class="cls-3" cx="90.45" cy="90.53" r="35.51"/><path class="cls-4" d="M90.45,128.2a37.67,37.67,0,1,1,37.67-37.67A37.67,37.67,0,0,1,90.45,128.2Zm0-71A33.35,33.35,0,1,0,123.8,90.55h0A33.38,33.38,0,0,0,90.45,57.18Z"/><polygon class="cls-4" points="95.23 109.02 85.67 109.02 85.67 95.08 71.96 95.08 71.96 85.87 85.67 85.87 85.67 72.04 95.23 72.04 95.23 85.87 108.94 85.87 108.94 95.08 95.23 95.08 95.23 109.02"/></svg>