<svg id="Layer_1" data-name="Layer 1" xmlns="http://www.w3.org/2000/svg" viewBox="0 0 128.16 128.16"><defs><style>.cls-1{fill:gray;fill-rule:evenodd;}</style></defs><path class="cls-1" d="M22.56,25.65H106.9v87.7a14.25,14.25,0,0,1-14.18,14.3H36.83a14.24,14.24,0,0,1-14.27-14.21V25.65ZM53.05,1.81H76.41a2.83,2.83,0,0,1,2.83,2.83h0v5.43h30.48a3.32,3.32,0,0,1,3.33,3.31v5.26a3.31,3.31,0,0,1-3.3,3.32h-90a3.31,3.31,0,0,1-3.31-3.31h0V13.41a3.31,3.31,0,0,1,3.31-3.33h30.5V4.65A2.83,2.83,0,0,1,53,1.81ZM40,29.56a4.49,4.49,0,0,0-4.44,4.53l-.31,80.56a4.49,4.49,0,1,0,9,0l.31-80.54a4.47,4.47,0,0,0-4.38-4.56H40Zm24.89,0a4.49,4.49,0,0,0-4.44,4.53l-.31,80.56a4.5,4.5,0,0,0,9,0h0l.31-80.54A4.47,4.47,0,0,0,65,29.55h-.18Zm25.74,0a4.47,4.47,0,0,0-4.43,4.53h0l-.32,80.56a4.5,4.5,0,0,0,9,0h0l.32-80.54a4.49,4.49,0,0,0-4.42-4.56h-.15Z"/></svg>