<svg id="Layer_1" data-name="Layer 1" xmlns="http://www.w3.org/2000/svg" viewBox="0 0 128.16 128.16"><defs><style>.cls-1{fill:#00aeef;}.cls-2{fill:#fff;}</style></defs><rect class="cls-1" x="3.06" y="2.86" width="123.32" height="123.74" rx="9.58"/><path class="cls-2" d="M14.29,72.21s18.54-18,22.8-25.37,8.66-16.25,22.1-17.53,28.18,5.1,30,9.83,0,6.11,4.34,10.09,22.62,14.85,22.14,21.11S112,84.89,97.13,83.65s-32-2.75-36.07.43-9,13.08-7.94,15.78-6-7.39-23.36-11.32-16-15.19-16-15.19Z"/><path d="M100.71,51.56c-2.39-1.73-4.46-3.23-5.49-4.17-2.17-2-2.29-2.81-2.56-4.62a20,20,0,0,0-1.14-4.53C88.75,31,70.82,25.69,59,26.82c-14,1.34-19.21,10.37-23.37,17.63l-.66,1.14c-4,7-22.19,24.65-22.37,24.82l-.33.33-.9,1.91,0,.4c0,.13-1.41,13.55,17.93,17.93a49.23,49.23,0,0,1,21.06,10.33,5.12,5.12,0,0,0,2.95,1.52,2.39,2.39,0,0,0,1.45-.51,2.67,2.67,0,0,0,.8-3.3c-.25-1.88,3.5-10.13,7.13-13,3.2-2.5,21.29-1,33.26,0l1.06.09c6.86.57,12.2-.72,15.86-3.83,3.18-2.71,5-6.68,5.38-11.78C118.59,65,110.86,58.9,100.71,51.56Zm-3.37,29.6-1.06-.09-4.66-.38c-4.59-2.17-8.52-7-8.56-7.06a1.81,1.81,0,0,0-2.82,2.26,35,35,0,0,0,4.2,4.27c-12.81-.84-21.48-.74-24.92,2-3,2.37-7,8.5-8.45,13.46A54.36,54.36,0,0,0,30.31,86.1C17,83.08,16.22,75.62,16.23,74l.13-.29C19,71.13,35.14,55.21,39.25,48.09l.67-1.15,0,0c2.46,8.38,8.35,23.8,18.39,23.8l.8,0c14.12-1.14,14.46-27.35,14.46-28.47a1.8,1.8,0,0,0-1.79-1.82h0A1.81,1.81,0,0,0,70,42.17c0,6.67-2.14,24.16-11.14,24.89C50.41,67.75,44.55,51,42.51,42.6c3.42-5.31,7.87-9.94,16.92-10.8C72.7,30.53,85.69,37,86.85,40a14.45,14.45,0,0,1,.86,3.48c.4,2.64.91,4.6,4.13,7.55,1.25,1.14,3.32,2.64,5.94,4.54a129.07,129.07,0,0,1,11.51,9.08,10.6,10.6,0,0,0-3.73,2.5c-2.07,2.46,1.13,7,4.58,10.7a7,7,0,0,1-.61.61C106.93,80.72,102.83,81.61,97.34,81.16Z"/><path d="M88.77,51.57a6.7,6.7,0,0,1-.55-2.49c-.15-1.52-.32-3.24-1.93-3.74s-3.18,1.17-4,2.09a12.84,12.84,0,0,1-2.17,1.87c-1.47,1.11-3.5,2.62-2.55,5.14s3,2.56,4.61,2.47a20.89,20.89,0,0,1,2.28,0A7.82,7.82,0,0,1,87.67,58,9.33,9.33,0,0,0,91,59.25a2.68,2.68,0,0,0,.39,0,2.25,2.25,0,0,0,2.25-1.53C94.32,55.37,90.57,52.5,88.77,51.57Z"/></svg>