<svg id="Layer_1" data-name="Layer 1" xmlns="http://www.w3.org/2000/svg" viewBox="0 0 128.16 128.16"><defs><style>.cls-1{fill:#00aeef;}.cls-2{fill:#f18a00;}.cls-3{fill:#fff;}</style></defs><path class="cls-1" d="M97.92.65H7.81C3.86.65.65,4.14.65,8.42V118.91c0,4.29,3.21,7.77,7.16,7.77H90.13c4,0,15-9.26,15-13.54V8.42C105.08,4.14,101.86.65,97.92.65ZM96.79,118.4H8.94V8.94H96.79Z"/><circle class="cls-2" cx="84.39" cy="84.39" r="41.87"/><path class="cls-3" d="M84.39,128.81a44.42,44.42,0,1,1,44.42-44.42A44.47,44.47,0,0,1,84.39,128.81Zm0-83.75a39.33,39.33,0,1,0,39.32,39.33A39.37,39.37,0,0,0,84.39,45.06Z"/><path class="cls-2" d="M74.35,101.56Z"/><path class="cls-3" d="M113.84,72.2,98.6,57A2.5,2.5,0,0,0,95,57L63.57,88.42a2.54,2.54,0,0,0-.7,1.37l-3.08,18.32a2.5,2.5,0,0,0,.7,2.2,2.54,2.54,0,0,0,1.78.74,3,3,0,0,0,.42,0L81,107.93a2.51,2.51,0,0,0,1.36-.7l31.47-31.47A2.52,2.52,0,0,0,113.84,72.2ZM71.62,88,94.16,65.46A2.52,2.52,0,0,1,97.72,69L75.18,91.56A2.52,2.52,0,0,1,71.62,88Zm3.15,16-8.55,1.44A1,1,0,0,1,65,104.3L66.77,96c.19-.93,1.37-1.55,1.91-1l7.14,7.14C76.37,102.67,75.71,103.88,74.77,104ZM104.9,76.19,82.35,98.73a2.5,2.5,0,0,1-3.55,0,2.49,2.49,0,0,1,0-3.55l22.54-22.55a2.52,2.52,0,0,1,3.56,3.56Z"/></svg>