<svg id="Layer_1" data-name="Layer 1" xmlns="http://www.w3.org/2000/svg" viewBox="0 0 128.16 128.16"><defs><style>.cls-1{fill:gray;}.cls-2{fill:#00aeef;}.cls-3{fill:#f18a00;}</style></defs><rect class="cls-1" x="87.12" y="81.64" width="35.74" height="35.74"/><polygon class="cls-1" points="104.99 5.24 82.77 40.48 127.21 40.48 104.99 5.24"/><path class="cls-2" d="M52.89,44.78C49.27,22,39.65,5.65,28.33,5.65,13.92,5.65,2.25,32.1,2.25,64.73s11.67,59.09,26.08,59.09c11.32,0,20.94-16.33,24.56-39.17l-17.35-20Z"/><path class="cls-3" d="M82.74,102.89,80.28,72.53,69.53,85.17C60,69.35,65,48.69,76.65,39.56a4.43,4.43,0,1,0-5.45-7C63.05,38.94,57.54,49.2,56.08,60.72a44.81,44.81,0,0,0,7.46,31.49L52.38,105.35Z"/></svg>