<svg id="Layer_1" data-name="Layer 1" xmlns="http://www.w3.org/2000/svg" viewBox="0 0 128.16 128.16"><defs><style>.cls-1{fill:none;}.cls-2{fill:#00aeef;}.cls-3{fill:#b9e5fb;}.cls-4{fill:#f18a00;}.cls-5{fill:#fff;}</style></defs><path class="cls-1" d="M90.7,38a4.67,4.67,0,0,0,4-4V11.87a4.42,4.42,0,0,0-4.62-4.14V7.65a4.41,4.41,0,0,0-4.61,4V34A4.65,4.65,0,0,0,90.7,38Z"/><path class="cls-1" d="M38.17,37.93a4.43,4.43,0,0,0,4.62-4V11.87a4.42,4.42,0,0,0-4.58-4.14V7.65a4.42,4.42,0,0,0-4.65,4.17V34A4.42,4.42,0,0,0,38.17,37.93Z"/><path class="cls-1" d="M7,52.21v59.12a11.46,11.46,0,0,0,11.92,11h91.72a11.42,11.42,0,0,0,11.93-10.88V52.21H7Z"/><path class="cls-2" d="M110.62,19.39h-10.5V11.87a9.95,9.95,0,0,0-19.9,0v7.52h-32V11.87a9.95,9.95,0,0,0-19.9,0v7.52H18.87A16.74,16.74,0,0,0,1.73,35.74v75.43a2.26,2.26,0,0,0,0,.26,16.74,16.74,0,0,0,17.37,16.09h91.51a16.75,16.75,0,0,0,17.11-16.19V35.74A16.75,16.75,0,0,0,110.62,19.39Zm-25.14,0V11.63a4.41,4.41,0,0,1,4.61-4v.08a4.42,4.42,0,0,1,4.62,4.14V34a4.65,4.65,0,0,1-9.23,0Zm-51.92,0V11.82a4.42,4.42,0,0,1,4.65-4.17v.08a4.42,4.42,0,0,1,4.58,4.14V34a4.43,4.43,0,0,1-4.62,4,4.42,4.42,0,0,1-4.61-4Zm89,91.94v.1a11.42,11.42,0,0,1-11.93,10.88H18.9A11.46,11.46,0,0,1,7,111.33V52.05l115.58.16Z"/><rect class="cls-3" x="14.54" y="58.14" width="16.55" height="15.6"/><rect class="cls-3" x="35.51" y="58.14" width="16.55" height="15.6"/><rect class="cls-3" x="56.47" y="58.14" width="16.55" height="15.6"/><rect class="cls-3" x="77.44" y="58.14" width="16.55" height="15.6"/><rect class="cls-3" x="98.41" y="58.14" width="16.55" height="15.6"/><rect class="cls-3" x="14.54" y="79.38" width="16.55" height="15.6"/><rect class="cls-4" x="35.51" y="79.38" width="16.55" height="15.6"/><rect class="cls-3" x="56.47" y="79.38" width="16.55" height="15.6"/><rect class="cls-3" x="77.44" y="79.38" width="16.55" height="15.6"/><rect class="cls-3" x="98.41" y="79.38" width="16.55" height="15.6"/><rect class="cls-3" x="14.54" y="100.47" width="16.55" height="15.6"/><rect class="cls-3" x="35.51" y="100.47" width="16.55" height="15.6"/><rect class="cls-3" x="56.47" y="100.47" width="16.55" height="15.6"/><rect class="cls-3" x="77.44" y="100.47" width="16.55" height="15.6"/><circle class="cls-4" cx="90.45" cy="90.53" r="35.51"/><path class="cls-5" d="M90.45,128.2a37.67,37.67,0,1,1,37.67-37.67A37.67,37.67,0,0,1,90.45,128.2Zm0-71A33.35,33.35,0,1,0,123.8,90.55h0A33.38,33.38,0,0,0,90.45,57.18Z"/><polygon class="cls-5" points="95.23 109.02 85.67 109.02 85.67 95.08 71.96 95.08 71.96 85.87 85.67 85.87 85.67 72.04 95.23 72.04 95.23 85.87 108.94 85.87 108.94 95.08 95.23 95.08 95.23 109.02"/></svg>