<svg id="Layer_1" data-name="Layer 1" xmlns="http://www.w3.org/2000/svg" xmlns:xlink="http://www.w3.org/1999/xlink" viewBox="0 0 31.68 31.68"><defs><style>.cls-1,.cls-9{fill:#fcc900;}.cls-2{opacity:0.8;fill:url(#linear-gradient);}.cls-3,.cls-7{fill:#fff;}.cls-3,.cls-4{stroke:#fff;stroke-miterlimit:10;stroke-width:1.5px;}.cls-4,.cls-8{fill:#00aeef;}.cls-5{fill:#b9e5fb;}.cls-6{fill:#f18a00;}.cls-9{stroke:gray;stroke-linecap:square;stroke-linejoin:bevel;stroke-width:0.41px;opacity:0.34;}</style><linearGradient id="linear-gradient" y1="14.14" x2="23.5" y2="14.14" gradientUnits="userSpaceOnUse"><stop offset="0.54" stop-color="#fff"/><stop offset="1" stop-color="#fff" stop-opacity="0"/></linearGradient></defs><polygon class="cls-1" points="0 0.07 20.95 1.13 20.95 28.21 0 23.4 0 0.07"/><polygon class="cls-1" points="20.95 17.16 23.5 17.61 23.5 27.17 20.95 26.73 20.95 17.16"/><path class="cls-2" d="M0,.07,21,1.13V28.21L0,23.4ZM21,26.73l2.55.44V17.61L21,17.16Z"/><path class="cls-3" d="M28,25.77a2.66,2.66,0,0,1-2.91,2.6l-18.44-1a3,3,0,0,1-2.91-2.9V9.33A2.65,2.65,0,0,1,6.62,6.74l18.44,1A3,3,0,0,1,28,10.6Z"/><path class="cls-4" d="M25.06,28.91l-18.44-1a3.59,3.59,0,0,1-3.44-3.47V9.3A3.16,3.16,0,0,1,6.62,6.2l18.44,1a3.59,3.59,0,0,1,3.44,3.47V25.8A3.17,3.17,0,0,1,25.06,28.91ZM6.62,7.28A2.16,2.16,0,0,0,4.24,9.36V24.53a2.45,2.45,0,0,0,2.38,2.33l18.44,1a2.16,2.16,0,0,0,2.38-2.08V10.57a2.46,2.46,0,0,0-2.38-2.33Z"/><path class="cls-4" d="M26.51,13.84c.49,0,1.3.08,1.38.07a.07.07,0,0,0,.08-.08V10.6a3,3,0,0,0-2.91-2.9l-18.44-1A2.65,2.65,0,0,0,3.71,9.33v3.23a.09.09,0,0,0,.08.09l1.14.06Z"/><path class="cls-3" d="M12,9.4a1.33,1.33,0,0,1-1.46,1.3h0A1.51,1.51,0,0,1,9.05,9.25V4.81A1.33,1.33,0,0,1,10.5,3.52h0A1.51,1.51,0,0,1,12,5Z"/><path class="cls-4" d="M10.5,11.24a2.08,2.08,0,0,1-2-2V4.79A1.83,1.83,0,0,1,10.5,3a2.08,2.08,0,0,1,2,2V9.43A1.84,1.84,0,0,1,10.5,11.24Zm0-7.18a.82.82,0,0,0-.92.78V9.28a.94.94,0,0,0,.92.88.84.84,0,0,0,.93-.79V4.94A.94.94,0,0,0,10.5,4.06Z"/><path class="cls-3" d="M22.39,10a1.33,1.33,0,0,1-1.45,1.3h0A1.52,1.52,0,0,1,19.48,9.8V5.36a1.33,1.33,0,0,1,1.46-1.3h0a1.51,1.51,0,0,1,1.45,1.45Z"/><path class="cls-4" d="M20.93,11.78a2.07,2.07,0,0,1-2-2V5.33a1.84,1.84,0,0,1,2-1.81,2.09,2.09,0,0,1,2,2V10A1.83,1.83,0,0,1,20.93,11.78Zm0-7.18a.83.83,0,0,0-.92.79V9.82a1,1,0,0,0,.92.89.84.84,0,0,0,.93-.79V5.49A1,1,0,0,0,20.93,4.6Z"/><polygon class="cls-5" points="9.07 17.25 5.74 17.08 5.74 13.94 9.07 14.12 9.07 17.25"/><polygon class="cls-5" points="13.29 17.47 9.96 17.3 9.96 14.16 13.29 14.34 13.29 17.47"/><polygon class="cls-5" points="17.5 17.7 14.18 17.52 14.18 14.38 17.5 14.56 17.5 17.7"/><polygon class="cls-5" points="21.72 17.92 18.39 17.74 18.39 14.61 21.72 14.78 21.72 17.92"/><polygon class="cls-5" points="25.94 18.14 22.61 17.96 22.61 14.83 25.94 15 25.94 18.14"/><polygon class="cls-5" points="9.07 21.52 5.74 21.35 5.74 18.21 9.07 18.39 9.07 21.52"/><polygon class="cls-6" points="13.29 21.75 9.96 21.57 9.96 18.43 13.29 18.61 13.29 21.75"/><polygon class="cls-5" points="17.5 21.97 14.18 21.79 14.18 18.66 17.5 18.83 17.5 21.97"/><polygon class="cls-5" points="21.72 22.19 18.39 22.01 18.39 18.88 21.72 19.05 21.72 22.19"/><polygon class="cls-5" points="25.94 22.41 22.61 22.23 22.61 19.1 25.94 19.27 25.94 22.41"/><polygon class="cls-5" points="9.07 25.76 5.74 25.59 5.74 22.45 9.07 22.63 9.07 25.76"/><polygon class="cls-5" points="13.29 25.98 9.96 25.81 9.96 22.67 13.29 22.85 13.29 25.98"/><polygon class="cls-5" points="17.5 26.2 14.18 26.03 14.18 22.89 17.5 23.07 17.5 26.2"/><polygon class="cls-5" points="21.72 26.43 18.39 26.25 18.39 23.11 21.72 23.29 21.72 26.43"/><path class="cls-7" d="M28,25.77a2.66,2.66,0,0,1-2.91,2.6l-18.44-1a3,3,0,0,1-2.91-2.9V9.33A2.65,2.65,0,0,1,6.62,6.74l18.44,1A3,3,0,0,1,28,10.6Z"/><path class="cls-8" d="M25.06,28.91l-18.44-1a3.59,3.59,0,0,1-3.44-3.47V9.3A3.16,3.16,0,0,1,6.62,6.2l18.44,1a3.59,3.59,0,0,1,3.44,3.47V25.8A3.17,3.17,0,0,1,25.06,28.91ZM6.62,7.28A2.16,2.16,0,0,0,4.24,9.36V24.53a2.45,2.45,0,0,0,2.38,2.33l18.44,1a2.16,2.16,0,0,0,2.38-2.08V10.57a2.46,2.46,0,0,0-2.38-2.33Z"/><path class="cls-8" d="M26.51,13.84c.49,0,1.3.08,1.38.07a.07.07,0,0,0,.08-.08V10.6a3,3,0,0,0-2.91-2.9l-18.44-1A2.65,2.65,0,0,0,3.71,9.33v3.23a.09.09,0,0,0,.08.09l1.14.06Z"/><path class="cls-7" d="M12,9.4a1.33,1.33,0,0,1-1.46,1.3h0A1.51,1.51,0,0,1,9.05,9.25V4.81A1.33,1.33,0,0,1,10.5,3.52h0A1.51,1.51,0,0,1,12,5Z"/><path class="cls-8" d="M10.5,11.24a2.08,2.08,0,0,1-2-2V4.79A1.83,1.83,0,0,1,10.5,3a2.08,2.08,0,0,1,2,2V9.43A1.84,1.84,0,0,1,10.5,11.24Zm0-7.18a.82.82,0,0,0-.92.78V9.28a.94.94,0,0,0,.92.88.84.84,0,0,0,.93-.79V4.94A.94.94,0,0,0,10.5,4.06Z"/><path class="cls-7" d="M22.39,10a1.33,1.33,0,0,1-1.45,1.3h0A1.52,1.52,0,0,1,19.48,9.8V5.36a1.33,1.33,0,0,1,1.46-1.3h0a1.51,1.51,0,0,1,1.45,1.45Z"/><path class="cls-8" d="M20.93,11.78a2.07,2.07,0,0,1-2-2V5.33a1.84,1.84,0,0,1,2-1.81,2.09,2.09,0,0,1,2,2V10A1.83,1.83,0,0,1,20.93,11.78Zm0-7.18a.83.83,0,0,0-.92.79V9.82a1,1,0,0,0,.92.89.84.84,0,0,0,.93-.79V5.49A1,1,0,0,0,20.93,4.6Z"/><polygon class="cls-5" points="9.07 17.25 5.74 17.08 5.74 13.94 9.07 14.12 9.07 17.25"/><polygon class="cls-5" points="13.29 17.47 9.96 17.3 9.96 14.16 13.29 14.34 13.29 17.47"/><polygon class="cls-5" points="17.5 17.7 14.18 17.52 14.18 14.38 17.5 14.56 17.5 17.7"/><polygon class="cls-5" points="21.72 17.92 18.39 17.74 18.39 14.61 21.72 14.78 21.72 17.92"/><polygon class="cls-5" points="25.94 18.14 22.61 17.96 22.61 14.83 25.94 15 25.94 18.14"/><polygon class="cls-5" points="9.07 21.52 5.74 21.35 5.74 18.21 9.07 18.39 9.07 21.52"/><polygon class="cls-6" points="13.29 21.75 9.96 21.57 9.96 18.43 13.29 18.61 13.29 21.75"/><polygon class="cls-5" points="17.5 21.97 14.18 21.79 14.18 18.66 17.5 18.83 17.5 21.97"/><polygon class="cls-5" points="21.72 22.19 18.39 22.01 18.39 18.88 21.72 19.05 21.72 22.19"/><polygon class="cls-5" points="25.94 22.41 22.61 22.23 22.61 19.1 25.94 19.27 25.94 22.41"/><polygon class="cls-5" points="9.07 25.76 5.74 25.59 5.74 22.45 9.07 22.63 9.07 25.76"/><polygon class="cls-5" points="13.29 25.98 9.96 25.81 9.96 22.67 13.29 22.85 13.29 25.98"/><polygon class="cls-5" points="17.5 26.2 14.18 26.03 14.18 22.89 17.5 23.07 17.5 26.2"/><polygon class="cls-5" points="21.72 26.43 18.39 26.25 18.39 23.11 21.72 23.29 21.72 26.43"/><polygon class="cls-1" points="0 0.07 7.57 5.04 7.57 29.54 7.57 31.68 0 24.56 0 0.07"/><polyline class="cls-9" points="0.36 0.31 7.57 5.04 7.57 29.54 7.57 31.68 0.23 24.82"/></svg>