<?xml version="1.0" encoding="utf-8"?>
<!-- Generator: Adobe Illustrator 24.3.0, SVG Export Plug-In . SVG Version: 6.00 Build 0)  -->
<svg version="1.1" id="Layer_1" xmlns="http://www.w3.org/2000/svg" xmlns:xlink="http://www.w3.org/1999/xlink" x="0px" y="0px"
	 viewBox="0 0 128.2 128.2" style="enable-background:new 0 0 128.2 128.2;" xml:space="preserve">
<style type="text/css">
	.st0{fill:#FCC900;}
	.st1{opacity:0.8;fill:url(#SVGID_1_);enable-background:new    ;}
	.st2{fill:#00AEEF;}
	.st3{fill:#62BB46;}
	.st4{fill:#62BB46;stroke:#62BB46;stroke-width:0.11;stroke-linecap:round;stroke-linejoin:round;}
	
		.st5{opacity:0.34;fill:#FCC900;stroke:#808080;stroke-width:1.63;stroke-linecap:square;stroke-linejoin:bevel;enable-background:new    ;}
</style>
<g id="Layer_2_1_">
	<g>
		<polygon class="st0" points="7.1,0.4 90.9,4.7 90.9,113 7.1,93.8 		"/>
		<polygon class="st0" points="90.9,68.8 101.1,70.6 101.1,108.8 90.9,107.1 		"/>
		
			<linearGradient id="SVGID_1_" gradientUnits="userSpaceOnUse" x1="7.08" y1="73.285" x2="101.07" y2="73.285" gradientTransform="matrix(1 0 0 -1 0 130)">
			<stop  offset="0.54" style="stop-color:#FFFFFF"/>
			<stop  offset="1" style="stop-color:#FFFFFF;stop-opacity:0"/>
		</linearGradient>
		<path class="st1" d="M7.1,0.4l83.8,4.3V113L7.1,93.8V0.4z M90.9,107.1l10.2,1.8V70.6l-10.2-1.8V107.1z"/>
		<path class="st2" d="M109.4,124.2c-5.4,2.7-17.2,0.8-19,0.4s-13.6-2.5-19-7.1v-7.7c5.4,4.6,17.2,6.8,19,7.1s13.5,2.2,19-0.4V124.2
			z"/>
		<path class="st2" d="M90.4,114.2c10.5,1.8,19,0.9,19-2.1s-8.5-6.9-19-8.8s-19-0.9-19,2.1S80,112.4,90.4,114.2z"/>
		<path class="st2" d="M46,28.4c-5.4,2.7-17.2,0.7-19,0.4s-13.6-2.5-19-7.1V14c5.4,4.6,17.2,6.8,19,7.1s13.5,2.2,19-0.5V28.4z"/>
		<path class="st2" d="M27,18.4c10.5,1.8,19,0.9,19-2.1s-8.5-6.9-19-8.8S8,6.6,8,9.6S16.6,16.5,27,18.4z"/>
		<path class="st3" d="M106.7,100c-8.8,4.4-28.2,1.2-31,0.7s-22.1-4.1-31-11.7V76.5c8.9,7.5,28.3,11.2,31,11.6s22.1,3.7,31-0.7
			L106.7,100z"/>
		<path class="st3" d="M75.8,83.7c17.1,3,31,1.5,31-3.4S92.9,69,75.8,66s-31-1.5-31,3.4S58.6,80.7,75.8,83.7z"/>
		<path class="st2" d="M83,12.6c-5.9-1.1-11-0.1-11.4,2.3c0,0.2,0,0.5,0,0.7c0.7-2.3,5.7-2.7,11.4-1.5c5.3,1,9.5,2.9,9.9,5.1
			c0,0,0-0.1,0-0.2C93.4,16.7,89,13.8,83,12.6z"/>
		<path class="st3" d="M55.5,62c6.6,0,11.8-2.6,11.7-5.8c0-0.3-0.1-0.6-0.2-0.9c-0.1,3-5.2,5.5-11.7,5.6c-6,0-11.1-2-12.2-4.7
			c0,0.1,0,0.1,0,0.2C43.3,59.5,48.8,62,55.5,62z"/>
		<path class="st3" d="M94.2,68.8c-4.5-1.4-7.7-4.7-7.1-7.4c0.1-0.3,0.2-0.5,0.3-0.7c-0.4,2.7,2.7,5.9,7.1,7.3c4.1,1.3,8.3,0,10.4-3
			C104.4,69,98.8,70.3,94.2,68.8z"/>
		<path class="st3" d="M99.2,69.6c4.6-0.8,7.6-4,6.6-7c-0.1-0.3-0.2-0.6-0.4-0.8c0.8,3-2.1,6-6.6,6.8c-4.2,0.7-9.6-2.4-11.1-5
			c0,0.1,0,0.2,0,0.2C88.7,66.9,94.6,70.4,99.2,69.6z"/>
		<path class="st4" d="M61.6,41.5l-0.1,0c-2.5-1.1-4.5-2-5-2.4c-0.2-0.1-0.4-0.3-0.6-0.5l0,0L66,37.7h0.1l5.6,2.6h0.1L61.6,41.5z"/>
		<path class="st4" d="M61.6,30.5l-0.1-0.1c-2.5-1.1-4.5-2-5-2.4c-0.2-0.1-0.4-0.3-0.6-0.5l0,0L66,26.7h0.1l5.6,2.6h0.1L61.6,30.5z"
			/>
		<path class="st2" d="M55.1,21.3V27c0,0,10.6-1.2,12.7-1.5c4.6-0.5,2.9-9.2,2.9-9.2s-0.2,3-4.8,3.6C61.8,20.5,55.1,21.3,55.1,21.3z
			"/>
		<path class="st2" d="M55.3,37.7c1.9-0.2,15.6-1.2,17.2-1.6c0.8-0.1,1.4-0.8,1.3-1.7c0,0,0,0,0-0.1v-4c0-0.1-0.1-0.2-0.2-0.2
			c0,0,0,0,0,0l-18.4,2c-0.1,0-0.1,0.1-0.1,0.1c0,0,0,0,0,0v5.2C55.1,37.6,55.2,37.7,55.3,37.7C55.3,37.7,55.3,37.7,55.3,37.7z"/>
		<path class="st2" d="M55.1,48.8c0,0,15.7-1.2,17.4-1.7c0.8-0.1,1.4-0.8,1.4-1.6c0,0,0-0.1,0-0.1v-4.2l-18.8,2.1V48.8z"/>
		<path class="st3" d="M65.7,55.6c0,0-7.2-2.9-8.9-3.9c-0.7-0.4-1.2-1.1-1.3-1.9l5.8-0.5c1.3,0.5,2.6,1.2,3.6,2.1
			C66.3,52.8,65.7,55.6,65.7,55.6z"/>
		<path class="st4" d="M83.4,45.4l-0.1-0.1c-2.5-1.1-4.5-2-5-2.4c-0.2-0.1-0.4-0.3-0.6-0.5l0,0l10.2-0.9H88l5.6,2.6h0.1L83.4,45.4z"
			/>
		<path class="st4" d="M83.4,34.4h-0.1c-2.5-1.1-4.5-2-5-2.4c-0.2-0.1-0.4-0.3-0.6-0.5l0,0l10.2-0.9H88l5.6,2.6h0.1L83.4,34.4z"/>
		<path class="st2" d="M77,25.2v5.6c0,0,10.6-1.2,12.7-1.4c4.6-0.6,2.9-9.2,2.9-9.2s-0.3,3-4.8,3.6C83.6,24.4,77,25.2,77,25.2z"/>
		<path class="st2" d="M77.2,41.5c1.9-0.2,15.6-1.2,17.2-1.6c0.8-0.1,1.4-0.8,1.3-1.7c0,0,0,0,0-0.1v-4c0-0.1-0.1-0.2-0.2-0.2
			c0,0,0,0,0,0l-18.4,2c-0.1,0-0.1,0.1-0.1,0.1v5.2C76.9,41.4,77,41.5,77.2,41.5C77.2,41.6,77.2,41.6,77.2,41.5z"/>
		<path class="st2" d="M77,52.6c0,0,15.6-1.2,17.4-1.6c0.8-0.1,1.4-0.8,1.3-1.7c0,0,0,0,0-0.1V45L77,47.1V52.6z"/>
		<path class="st3" d="M87.6,59.4c0,0-7.2-2.9-8.9-3.9c-0.7-0.4-1.2-1.1-1.3-1.9l5.8-0.5c1.3,0.5,2.6,1.2,3.6,2.1
			C88.1,56.6,87.6,59.4,87.6,59.4z"/>
		<polygon class="st0" points="7.1,0.4 37.4,20.3 37.4,118.3 37.4,126.9 7.1,98.4 		"/>
		<polyline class="st5" points="8.5,1.4 37.4,20.3 37.4,118.3 37.4,126.9 8,99.4 		"/>
	</g>
</g>
</svg>
