<svg id="Layer_1" data-name="Layer 1" xmlns="http://www.w3.org/2000/svg" viewBox="0 0 128.16 128.16"><defs><style>.cls-1{fill:#00aeef;}.cls-2{fill:#62bb46;}.cls-2,.cls-3{opacity:0.85;}.cls-3,.cls-4{fill:#fff;}.cls-5{fill:#f18a00;}</style></defs><rect class="cls-1" x="0.94" y="42.9" width="13.33" height="13.33" rx="4.19" transform="translate(-0.35 0.06) rotate(-0.41)"/><rect class="cls-1" x="1.17" y="74.74" width="13.33" height="13.33" rx="4.19" transform="translate(-0.58 0.06) rotate(-0.41)"/><rect class="cls-1" x="1.39" y="106.39" width="13.33" height="13.33" rx="4.19" transform="translate(-0.81 0.06) rotate(-0.41)"/><rect class="cls-1" x="23.02" y="42.41" width="104.63" height="13.33" rx="4.19" transform="translate(-0.35 0.54) rotate(-0.41)"/><rect class="cls-1" x="23.25" y="74.25" width="104.63" height="13.33" rx="4.19" transform="translate(-0.58 0.54) rotate(-0.41)"/><rect class="cls-1" x="23.47" y="105.9" width="104.63" height="13.33" rx="4.19" transform="translate(-0.8 0.54) rotate(-0.41)"/><rect class="cls-1" x="0.69" y="1.56" width="126.71" height="26.26" rx="6.67" transform="translate(-0.1 0.46) rotate(-0.41)"/><path class="cls-2" d="M102.07,43.93l-.15-21.23a7.65,7.65,0,0,0-7.64-7.59h0l-93.3.67.26,36.51,93.3-.66A7.65,7.65,0,0,0,102.07,43.93Z"/><path class="cls-3" d="M104.92,22.68A10.63,10.63,0,0,0,94.28,12.11H94.2L.91,12.78l0,3h0l93.3-.67h0a7.65,7.65,0,0,1,7.64,7.59l.15,21.23a7.65,7.65,0,0,1-7.58,7.7l-93.3.66h0l0,3,93.29-.66a10.64,10.64,0,0,0,10.56-10.72Z"/><path class="cls-4" d="M13.73,23.22l11.77-.08q3.84,0,5.77,1.78a6.89,6.89,0,0,1,1.95,5.19,7.07,7.07,0,0,1-2,5.44q-2.07,2-6.35,2l-3.88,0,.06,8.5-7.1.06Zm7.18,9.71h1.74a4.46,4.46,0,0,0,2.87-.73,2.31,2.31,0,0,0,.81-1.83,2.59,2.59,0,0,0-.73-1.82,3.71,3.71,0,0,0-2.71-.73h-2Z"/><path class="cls-4" d="M39.36,38.36l6.74-.47a5.12,5.12,0,0,0,.9,2.5,3.76,3.76,0,0,0,3.14,1.37A3.46,3.46,0,0,0,52.47,41a2.16,2.16,0,0,0,.81-1.66,2.11,2.11,0,0,0-.79-1.58,9.12,9.12,0,0,0-3.64-1.31q-4.66-1-6.66-2.73a5.59,5.59,0,0,1-2-4.41,6,6,0,0,1,1-3.34,6.76,6.76,0,0,1,3.06-2.49,14.38,14.38,0,0,1,5.63-.94c2.92,0,5.16.51,6.7,1.59a7,7,0,0,1,2.78,5.17l-6.67.44a3.12,3.12,0,0,0-3.49-2.93,2.85,2.85,0,0,0-1.85.54,1.6,1.6,0,0,0-.62,1.28,1.29,1.29,0,0,0,.52,1,5.83,5.83,0,0,0,2.38.82,30.29,30.29,0,0,1,6.67,2A7,7,0,0,1,59.21,35a6.48,6.48,0,0,1,.94,3.38A7.21,7.21,0,0,1,59,42.41a7.59,7.59,0,0,1-3.38,2.85,13.84,13.84,0,0,1-5.51,1q-5.85,0-8.11-2.19A8.91,8.91,0,0,1,39.36,38.36Z"/><path class="cls-4" d="M65,22.85l7.4-.05,5.28,16.45,5-16.52,7.18-.05-8.34,23-7.67.06Z"/><circle class="cls-5" cx="91.14" cy="91.14" r="35.51"/><path class="cls-4" d="M91.14,53.47A37.67,37.67,0,1,1,53.47,91.14,37.71,37.71,0,0,1,91.14,53.47Zm0,71A33.35,33.35,0,1,0,57.79,91.14,33.39,33.39,0,0,0,91.14,124.49Z"/><path class="cls-4" d="M109.24,78.06a22,22,0,0,0-39.75,8.57H81.34a10.48,10.48,0,0,1,19.48-.15l-4,4h16.21V74.25Z"/><path class="cls-4" d="M80.42,90.45H69v16.21l3.93-3.93a21.95,21.95,0,0,0,39.82-8.46H100.89a10.49,10.49,0,0,1-19.54,0l3.85-3.85H80.42Z"/></svg>