<svg id="Layer_1" data-name="Layer 1" xmlns="http://www.w3.org/2000/svg" viewBox="0 0 128.16 128.16"><defs><style>.cls-1{fill:#00aeef;fill-rule:evenodd;}</style></defs><g id="Extras_Display_Units_and_Favorites_Ribbon" data-name="Extras Display Units and Favorites Ribbon"><path class="cls-1" d="M63.37,7.73,46.26,42.21,3.61,45.92h0c-1.3-.25-3.38.8-2.3,1.8l32.1,32.93L25.35,122h0c0,.58,0,1,.5,1.12,1.09.46,35.48-20.53,38.9-22.53h0c3.46,2,37.81,23,38.9,22.53a1,1,0,0,0,.5-1.12h0l-8.1-41.36,32.1-32.93c1.08-1-1-2-2.3-1.8h0L83.2,42.21,66.08,7.73h0c-.33-.83-.91-1.42-1.58-1.42h0c-.67,0-1.25.59-1.59,1.42h.46Z"/></g></svg>