<svg id="Layer_1" data-name="Layer 1" xmlns="http://www.w3.org/2000/svg" viewBox="0 0 128.16 128.16"><defs><style>.cls-1{fill:#00aeef;}.cls-2{fill:#62bb46;}.cls-3{fill:#bfbfbf;}.cls-4{fill:gray;}</style></defs><path class="cls-1" d="M124.33,50.87A22.24,22.24,0,0,0,94,42.17l-14.9,7.9a36.16,36.16,0,0,1-15.9,24.6l14.1,26.7,37.5-19.8a4.35,4.35,0,0,0,.7-.4A22.18,22.18,0,0,0,124.33,50.87Z"/><path class="cls-2" d="M27.73,77.17l-13.2,7a4.35,4.35,0,0,0-.7.4,22.29,22.29,0,1,0,21.6,39L72.63,104l-1.4-2.6-12.8-24.1a37.94,37.94,0,0,1-15.1,3.4A35.35,35.35,0,0,1,27.73,77.17Z"/><path class="cls-3" d="M73.41,34c0,.33,0,.67,0,1v0a34,34,0,0,1-16,28.68,33.58,33.58,0,0,1-4.84,2.51l-.08,0a33.33,33.33,0,0,1-8.35,2.26l-.13,0a34.13,34.13,0,0,1-4.44.3c-11.25,0-21-5.78-27.22-15.18a31.65,31.65,0,0,0,4,8.45c.1.15.2.31.31.46s.42.59.63.88c.4.52.8,1,1.22,1.54l.09.1A32,32,0,0,0,73.41,34Z"/><path class="cls-4" d="M71,29.07c0-.26-.11-.52-.17-.78C67.85,14.47,56.38,3.07,42.53,3.07c-.9,0-1.9.1-2.9.2-20.2,2.3-33.9,16-31.9,31.9a42.9,42.9,0,0,0,3.35,12.11l.11.24C16.35,58.9,26.45,67,39.63,67.07a31.73,31.73,0,0,0,10.89-1.92l.37-.14.81-.31.08,0c.42-.17.84-.36,1.25-.55a33,33,0,0,0,3.6-2c.54-.34,1.07-.7,1.59-1.07A31.89,31.89,0,0,0,71.53,35.17,33.53,33.53,0,0,0,71,29.07Z"/></svg>