<svg id="Layer_1" data-name="Layer 1" xmlns="http://www.w3.org/2000/svg" viewBox="0 0 128.16 128.16"><defs><style>.cls-1{fill:#00aeef;}</style></defs><g id="Show_Hide_Ribbon" data-name="Show Hide Ribbon"><path class="cls-1" d="M31.62,29.17H23.17V20.64h8.45Zm71.77,0H37.21V20.64h66.18ZM31.62,53.91H23.17V45.46h8.45Zm0,24.78H23.17V70.28h8.45Zm0,24.82H23.17V95.06h8.45Zm71.77-49.6H37.21V45.46h66.18Zm0,24.78H37.21V70.28h66.18Zm0,24.82H37.21V95.06h66.18ZM12.07,8.41V121.05a7.4,7.4,0,0,0,7.4,7.4H110a7.41,7.41,0,0,0,7.41-7.4h0V8.41A7.4,7.4,0,0,0,110,1H19.47a7.4,7.4,0,0,0-7.4,7.4Z"/></g></svg>