<svg id="Layer_1" data-name="Layer 1" xmlns="http://www.w3.org/2000/svg" viewBox="0 0 128.16 128.16"><defs><style>.cls-1{fill:#00aeef;}.cls-2{fill:#fff;fill-rule:evenodd;}.cls-3{fill:none;stroke:#000;stroke-linecap:round;stroke-linejoin:round;stroke-width:3.29px;}</style></defs><rect class="cls-1" x="3.06" y="2.86" width="123.32" height="123.74" rx="9.58"/><path class="cls-2" d="M71.9,113a7.59,7.59,0,0,1,.11-.93c.85-7,3.08-16.14,7.88-15.41,11.2,1.69,18.9,3.89,20.1-11-.21,2.55.68-5.93.11-7.6-.68-2.05,8.46.11,4.15-7.45-1.92-3.35-5.5-8.11-5.8-13.48-.2-3.69,2.44-15.56-3.89-25.48-16.67-26.14-69.91-18-70.5,20.71h0c-.28,18,10.7,24.36,12.76,35.42q.42,3,.54,6.11s8.49,8.83,15.88,12.92S71.9,113,71.9,113Z"/><path class="cls-3" d="M71.9,113a7.59,7.59,0,0,1,.11-.93c.85-7,3.08-16.14,7.88-15.41,11.2,1.69,18.9,3.89,20.1-11-.21,2.55.68-5.93.11-7.6-.68-2.05,8.46.11,4.15-7.45-1.92-3.35-5.5-8.11-5.8-13.48-.2-3.69,2.44-15.56-3.89-25.48-16.67-26.14-69.91-18-70.5,20.71h0c-.28,18,10.7,24.36,12.76,35.42q.42,3,.54,6.11"/><path d="M93.11,52.54c-.25,0-6.38-.17-8.62,2.27a3.11,3.11,0,0,0-.8,2.53c.23,1.79,2.56,2.79,4.76,2.79l.51,0c2.27-.16,4.68-1.45,4.64-4.56V53A.51.51,0,0,0,93.11,52.54Z"/><path d="M48.87,45.06a11.33,11.33,0,0,0-10,8.75c-1.71,6.37.63,14.33,5.21,17.75,6.91,5.16,12,5.69,12.16,5.71h.19a2,2,0,0,0,.2-3.9s-4.27-.51-10.21-4.95c-3.3-2.46-5.06-8.82-3.78-13.61a7.45,7.45,0,0,1,6.65-5.88c2.86-.34,5,.15,6.26,1.46,2.19,2.23,1.67,6.28,1.66,6.33a2,2,0,0,0,3.87.55c0-.25.82-6-2.72-9.59C56.22,45.45,53,44.57,48.87,45.06Z"/><path d="M50.9,55a2,2,0,0,0-2.72.5,8.76,8.76,0,0,0-.76,7.22,6.14,6.14,0,0,0,3.66,4.05,8.49,8.49,0,0,0,3.25.65,8.59,8.59,0,0,0,3.31-.67,2,2,0,1,0-1.53-3.6,4.58,4.58,0,0,1-3.56,0l-.12,0a2.37,2.37,0,0,1-1.29-1.59,4.88,4.88,0,0,1,.26-3.79A2,2,0,0,0,50.9,55Z"/><path d="M106.42,69.35c-.36-.62-.77-1.29-1.2-2-1.81-3-4.07-6.61-4.28-10.39,0-.59,0-1.65.13-2.88.38-5.31,1.08-15.21-4.4-23.81C87.9,16.54,68.93,10.58,50.55,15.8c-17.62,5-28.72,19-29,36.5C21.38,64,25.62,71,29.37,77.24c2.28,3.79,4.25,7.06,5,10.92a56.51,56.51,0,0,1,.51,5.8,2.45,2.45,0,0,0,.7,1.64C35.91,96,44.4,104.75,52,109s18.93,6.37,19.41,6.46a3.73,3.73,0,0,0,.47,0,2.52,2.52,0,0,0,1.59-.57,2.49,2.49,0,0,0,.9-1.91,1.26,1.26,0,0,1,0-.28l0-.37c1-7.95,2.82-11.92,4.23-13a.94.94,0,0,1,.8-.24l2,.31c6.42,1,12,1.88,16-1.31,2.75-2.17,4.3-5.84,4.86-11.52a32.13,32.13,0,0,0,.31-3.85c.08-1.59.09-2.71,0-3.52,1.52-.38,3.78-1.06,4.74-3.28C108.29,74.15,107.93,72,106.42,69.35Zm-5.14,5.09c-1.23.29-2.61.63-3.35,2a3,3,0,0,0-.22,2.39,26,26,0,0,1,0,4.36,17.62,17.62,0,0,1-6.07.31,1.64,1.64,0,0,0-.41,3.26,24.5,24.5,0,0,0,2.8.16,19.22,19.22,0,0,0,3.37-.28c-.44,3.89-1.4,6.39-2.93,7.6-2.32,1.83-6.65,1.15-12.14.29l-2-.31a6,6,0,0,0-4.57,1.2C72.26,98,70.58,104.43,69.77,110c-3.67-.85-10.46-2.67-15.32-5.36-5.83-3.23-12.55-9.72-14.64-11.81-.09-1.79-.27-3.6-.52-5.38,0,0,0-.07,0-.11-.89-4.77-3.19-8.59-5.63-12.64-3.56-5.92-7.25-12-7.09-22.28C26.79,36.92,36.27,25,51.91,20.61,65.65,16.71,84,19.71,92.45,33c4.6,7.2,4,15.7,3.64,20.77A29.35,29.35,0,0,0,96,57.25c.28,5,3,9.48,5,12.73.41.66.79,1.28,1.12,1.85a5.61,5.61,0,0,1,.83,2.09A8.44,8.44,0,0,1,101.28,74.44Z"/></svg>