<svg id="Layer_1" data-name="Layer 1" xmlns="http://www.w3.org/2000/svg" viewBox="0 0 128.16 128.16"><defs><style>.cls-1{fill:#00aeef;}.cls-2{fill:#62bb46;}.cls-3{fill:#929497;}.cls-4{fill:#f18a00;}</style></defs><g id="IndividualSimulationComparison"><path class="cls-1" d="M125,67.42H4.42a2.69,2.69,0,1,1,0-5.38H125a2.69,2.69,0,0,1,0,5.38Z"/><path class="cls-1" d="M64.73,127.73A2.69,2.69,0,0,1,62,125V4.42a2.69,2.69,0,1,1,5.38,0V125A2.69,2.69,0,0,1,64.73,127.73Z"/><rect class="cls-2" x="18.64" y="27.79" width="28.58" height="28.58" rx="2.91"/><path class="cls-2" d="M32.93,9.56A7.43,7.43,0,1,0,40.36,17,7.43,7.43,0,0,0,32.93,9.56Z"/><rect class="cls-1" x="82.23" y="27.79" width="28.58" height="28.58" rx="2.91"/><path class="cls-1" d="M96.53,9.56A7.43,7.43,0,1,0,104,17,7.43,7.43,0,0,0,96.53,9.56Z"/><rect class="cls-3" x="18.64" y="91.31" width="28.58" height="28.58" rx="2.91"/><path class="cls-3" d="M32.93,73.08a7.43,7.43,0,1,0,7.43,7.43A7.43,7.43,0,0,0,32.93,73.08Z"/><rect class="cls-4" x="82.23" y="91.31" width="28.58" height="28.58" rx="2.91"/><path class="cls-4" d="M96.53,73.08A7.43,7.43,0,1,0,104,80.51,7.43,7.43,0,0,0,96.53,73.08Z"/></g></svg>