<svg id="Layer_1" data-name="Layer 1" xmlns="http://www.w3.org/2000/svg" viewBox="0 0 128.16 128.16"><defs><style>.cls-1{fill:#e6e7e8;}.cls-2{fill:#62bb46;}.cls-3{fill:#b1d89b;}.cls-4{fill:#00aeef;}.cls-5{fill:#6dcff6;}.cls-6{fill:#fff;}.cls-7{fill:#6d6e70;}.cls-8{fill:#f18a00;}</style></defs><g id="Import_Ribbon" data-name="Import Ribbon"><path class="cls-1" d="M34.85,8.75c4-3.86,7.78-5.88,11.62-6.13.56-.1,1.14-.18,1.72-.24H10.1a7.54,7.54,0,0,0-7.52,7A177.1,177.1,0,0,0,18.36,37C23,24.94,28.47,14.89,34.85,8.75Z"/><path class="cls-2" d="M114.3,93.21c-18.73-1.87-47-4.7-75.94-26.46A109.24,109.24,0,0,1,20.25,49.13c-7.62,23.38-13.07,52.07-17,73.51a7.56,7.56,0,0,0,6.87,4.43H119.36a7.57,7.57,0,0,0,7.55-7.48V94.49c-2.22-.2-4.93-.48-8.15-.82C117.34,93.51,115.85,93.37,114.3,93.21Z"/><path class="cls-3" d="M2.55,22.47v73c3.58-17.55,7.93-36,13.4-51.83A169.88,169.88,0,0,1,2.55,22.47Z"/><path class="cls-4" d="M64.66,15.37c1.62,2.15,3.4,4.83,5.45,7.94,3.23,4.88,7.24,11,12.53,17.72,10.25,13.1,30.45,19,44.27,21.59V9.94a7.56,7.56,0,0,0-7.55-7.56h-70l-.56.33C55.7,3.56,60.66,10.09,64.66,15.37Z"/><path class="cls-5" d="M41.85,62.13c27.61,20.78,54.94,23.51,73,25.32l4.51.46c3.18.35,5.62.59,7.53.77V68.52c-3.15-.56-6.65-1.3-10.33-2.25C98.65,61.62,85.7,54.33,78.09,44.59c-5.44-6.94-9.53-13.12-12.81-18.09-2-3-3.72-5.63-5.24-7.63C56.63,14.36,52.39,8.75,47.79,8.4c-2.64-.2-5.64,1.32-8.91,4.51C32.58,19,27.16,29.69,22.49,42.61A105.19,105.19,0,0,0,41.85,62.13Z"/><path class="cls-6" d="M82.64,41c-5.29-6.77-9.3-12.84-12.53-17.72-2-3.11-3.83-5.79-5.45-7.94-4-5.28-9-11.81-15.86-12.66l-.58-.08a14.6,14.6,0,0,0-1.75,0c-3.84.25-7.66,2.27-11.62,6.13C28.47,14.89,23,24.94,18.36,37A177.1,177.1,0,0,1,2.58,9.42a4.41,4.41,0,0,0,0,.52V22.47A169.88,169.88,0,0,0,16,43.66C10.48,59.48,6.13,77.94,2.55,95.49v24a7.57,7.57,0,0,0,.68,3.12c4-21.44,9.4-50.13,17-73.51A109.24,109.24,0,0,0,38.36,66.75C67.28,88.51,95.57,91.34,114.3,93.21c1.55.16,3,.3,4.46.46,3.22.34,5.93.62,8.15.82V88.68c-1.91-.18-4.35-.42-7.53-.77l-4.51-.46c-18.08-1.81-45.41-4.54-73-25.32-7.41-5.58-19.36-19.52-19.36-19.52h0C27.16,29.69,32.58,19,38.88,12.91c3.27-3.19,6.27-4.71,8.91-4.51,4.6.35,8.84,6,12.25,10.47,1.52,2,3.24,4.61,5.24,7.63,3.28,5,7.37,11.15,12.81,18.09,7.61,9.74,20.56,17,38.49,21.68,3.68,1,7.18,1.69,10.33,2.25v-5.9C113.09,60,92.89,54.13,82.64,41Z"/><path class="cls-7" d="M119.36,1.07H10.1A8.87,8.87,0,0,0,1.24,9.94V119.52a8.86,8.86,0,0,0,8.86,8.86H119.36a8.89,8.89,0,0,0,8.86-8.78V9.94A8.88,8.88,0,0,0,119.36,1.07Zm7.55,61.55v57a7.57,7.57,0,0,1-7.55,7.48H10.1a7.56,7.56,0,0,1-7.55-7.55V9.94a4.41,4.41,0,0,1,0-.52,7.54,7.54,0,0,1,7.52-7H119.36a7.56,7.56,0,0,1,7.55,7.56ZM3,123.69v0a8,8,0,0,0,1.29,1.71A8.14,8.14,0,0,1,3,123.69ZM127.56,88.74h-.08V68.62l.08,0Z"/><circle class="cls-8" cx="88.7" cy="88.16" r="36.45"/><path class="cls-6" d="M88.7,127a38.66,38.66,0,1,1,38.62-38.7v0A38.67,38.67,0,0,1,88.7,127Zm0-72.85a34.23,34.23,0,1,0,34.14,34.31v-.29A34.27,34.27,0,0,0,88.7,54Z"/><rect class="cls-6" x="73.47" y="78.93" width="30.08" height="30.08" rx="3.08"/><path class="cls-6" d="M88.53,59.72a7.84,7.84,0,1,0,7.8,7.88v-.08A7.84,7.84,0,0,0,88.53,59.72Z"/><path class="cls-8" d="M100.11,91.36H95.39V83.73a1.94,1.94,0,0,0-1.93-1.93h-9a1.93,1.93,0,0,0-1.93,1.93v7.63H77.78c-.82,0-1.11.41-1.11.87a1.6,1.6,0,0,0,.45.94l10.51,12.11a1.72,1.72,0,0,0,.33.33,1.65,1.65,0,0,0,2.3-.33L100.8,93.17a1.4,1.4,0,0,0,.41-.94C101.21,91.77,100.93,91.36,100.11,91.36Z"/></g></svg>