<svg id="Layer_1" data-name="Layer 1" xmlns="http://www.w3.org/2000/svg" viewBox="0 0 128.16 128.16"><defs><style>.cls-1{fill:#00aeef;}.cls-2{fill:#f18a00;}.cls-3{fill:#fff;}</style></defs><path class="cls-1" d="M66.2,49.8h53a9,9,0,0,1,9,9v53a9,9,0,0,1-9,9h-53a9,9,0,0,1-9-9v-53A9,9,0,0,1,66.2,49.8Z"/><path class="cls-1" d="M112.2,26.9A19.46,19.46,0,0,1,92.7,46.4h0A19.46,19.46,0,0,1,73.2,26.9h0A19.46,19.46,0,0,1,92.7,7.4h0A19.46,19.46,0,0,1,112.2,26.9Z"/><path class="cls-1" d="M5,63.5H34.4a5,5,0,0,1,5,5V98a5,5,0,0,1-5,5H5a5,5,0,0,1-5-5V68.5A5,5,0,0,1,5,63.5Z"/><path class="cls-1" d="M30.5,50.8A10.76,10.76,0,0,1,19.7,61.6h0A10.76,10.76,0,0,1,8.9,50.8h0A10.82,10.82,0,0,1,19.7,40h0A10.76,10.76,0,0,1,30.5,50.8Z"/><path class="cls-2" d="M72.4,87.2a2.16,2.16,0,0,1,2.1,2l.7,9.8a2.14,2.14,0,0,0,2.3,2,2.51,2.51,0,0,0,1.4-.6L96.7,82.6a2.3,2.3,0,0,0,0-3.1l-18-18a2.2,2.2,0,0,0-3.1-.1,2.33,2.33,0,0,0-.7,1.5l-.4,9.9a2.26,2.26,0,0,1-2.1,2.1H55a2.16,2.16,0,0,1-2.1-2l-.7-9.8a2.14,2.14,0,0,0-2.3-2,2.51,2.51,0,0,0-1.4.6L30.8,79.5a2.3,2.3,0,0,0,0,3.1l18,18a2.3,2.3,0,0,0,3.1,0,2,2,0,0,0,.6-1.4l.4-9.9A2.18,2.18,0,0,1,55,87.2Z"/><path class="cls-3" d="M50.29,102.69a3.58,3.58,0,0,1-2.55-1l-18-18a3.83,3.83,0,0,1,0-5.22L47.6,60.5a3.93,3.93,0,0,1,2.23-.9A3.63,3.63,0,0,1,53.7,63l.7,9.81a.66.66,0,0,0,.6.61H72.4c.27,0,.57-.37.61-.74l.39-9.82a3.79,3.79,0,0,1,1.14-2.5,3.85,3.85,0,0,1,2.82-1,3.54,3.54,0,0,1,2.46,1.18L97.76,78.44a3.83,3.83,0,0,1,0,5.22l-18,17.94a3.9,3.9,0,0,1-2.23.9,3.61,3.61,0,0,1-3.87-3.38L73,89.31a.66.66,0,0,0-.6-.61H55a.7.7,0,0,0-.6.6l-.4,10a3.43,3.43,0,0,1-1,2.4A4,4,0,0,1,50.29,102.69Zm-.81-39.85L31.86,80.56a.82.82,0,0,0,.06,1L49.86,99.54a.82.82,0,0,0,1-.06.48.48,0,0,0,.1-.28l.4-10A3.68,3.68,0,0,1,55,85.7H72.4A3.68,3.68,0,0,1,76,89.07l.71,9.82a.66.66,0,0,0,.23.47.51.51,0,0,0,.45.14h.12a1.83,1.83,0,0,0,.42-.24L95.64,81.54a.82.82,0,0,0-.06-1L77.64,62.56a.62.62,0,0,0-.46-.25.72.72,0,0,0-.78.6l-.4,10a3.75,3.75,0,0,1-3.6,3.54H55A3.68,3.68,0,0,1,51.41,73l-.71-9.83a.65.65,0,0,0-.68-.62H49.9A1.39,1.39,0,0,0,49.48,62.84Z"/></svg>