<svg id="Layer_1" data-name="Layer 1" xmlns="http://www.w3.org/2000/svg" viewBox="0 0 128.16 128.16"><defs><style>.cls-1{fill:#00aeef;}.cls-2{fill:gray;}.cls-3{fill:none;}</style></defs><path class="cls-1" d="M117.87,15.54v0h0c-2.81-4.58-7.26-7.56-12.28-7.56h-1.22c-8.49,0-15.4,8.47-15.4,18.89v78.52c0,6.25-4.14,11.34-9.23,11.34H55.08c-4.77,0-8.71-4.47-9.19-10.17H39.73a21.58,21.58,0,0,0,3,10.12v0h0c2.82,4.57,7.27,7.55,12.29,7.55H79.71c8.49,0,15.39-8.47,15.39-18.89V26.83c0-6.25,4.14-11.33,9.24-11.33h1.22c5.09,0,9.23,5.08,9.23,11.33H121A21.68,21.68,0,0,0,117.87,15.54Z"/><path class="cls-2" d="M57.63,5.21H27.4A18.92,18.92,0,0,0,8.5,24.11V77A18.81,18.81,0,0,0,12.28,88.3v0h0A18.86,18.86,0,0,0,27.4,95.9H35v10.62H50.07V95.9h7.56A18.91,18.91,0,0,0,76.52,77V24.11A18.91,18.91,0,0,0,57.63,5.21ZM69,45.51V77A11.34,11.34,0,0,1,57.63,88.34H27.4A11.35,11.35,0,0,1,16.06,77V24.11A11.36,11.36,0,0,1,27.4,12.77H57.63A11.35,11.35,0,0,1,69,24.11Z"/><path class="cls-3" d="M50.07,49.29C54.76,49.83,69,45.51,69,45.51V24.11A11.35,11.35,0,0,0,57.63,12.77H27.4A11.36,11.36,0,0,0,16.06,24.11V44.35c3.63-1.08,8.91-2.52,11.34-2.62C33.14,41.5,44.36,48.62,50.07,49.29Z"/><path class="cls-1" d="M27.4,88.34H57.63A11.34,11.34,0,0,0,69,77V45.51s-14.2,4.32-18.89,3.78c-5.71-.67-16.93-7.79-22.67-7.56-2.43.1-7.71,1.54-11.34,2.62V77A11.35,11.35,0,0,0,27.4,88.34Z"/></svg>