<svg id="Layer_1" data-name="Layer 1" xmlns="http://www.w3.org/2000/svg" viewBox="0 0 128.16 128.16"><defs><style>.cls-1{fill:gray;}.cls-2{fill:none;}.cls-3{fill:#00aeef;}</style></defs><path class="cls-1" d="M85,106.55l6.27,4.59L97,115.38a6.26,6.26,0,0,0,7.54-.38l.28-.26L114,124.88l10,2.41-14.71-16.54.28-.25a6.34,6.34,0,0,0,1.21-7.48l-1.45-2.54L102,90.84Z"/><path class="cls-2" d="M57.06,38.18l.23-.21-5.67-6.35-2.16,1.95-14.39,13-2.16,1.95,1,1.06a39.39,39.39,0,0,1,13.37-2C59,47.5,57.06,38.18,57.06,38.18Z"/><path class="cls-3" d="M100.55,74.76,53.83,22.38l.76-.68a5.05,5.05,0,1,0-6.72-7.54L16,42.86a5.07,5.07,0,0,0-.4,7.14,5,5,0,0,0,7.12.39l.76-.69,46.72,52.38a8.39,8.39,0,0,0,11.86.65L99.89,86.66a8.44,8.44,0,0,0,.66-11.9ZM35.07,46.52l14.39-13,2.16-1.95L57.29,38l-.23.21S59,47.5,47.23,47.5a39.39,39.39,0,0,0-13.37,2l-1-1.06Z"/><path class="cls-1" d="M38.61,14.23,34.75,10A5,5,0,0,0,27.9,2.58L7.15,21.26a5.07,5.07,0,0,0-.4,7.15,5,5,0,0,0,6.62.75l4,4.38Z"/></svg>