<svg id="Layer_1" data-name="Layer 1" xmlns="http://www.w3.org/2000/svg" viewBox="0 0 128.16 128.16"><defs><style>.cls-1{fill:#00aeef;}.cls-2{fill:#f18a00;}</style></defs><g id="Show_Hide_Ribbon" data-name="Show Hide Ribbon"><path class="cls-1" d="M114.39,1.73H24.31a7.48,7.48,0,0,0-7.16,7.64V25.21h-3a5.8,5.8,0,0,0,0,11.6h3V47.29h-3a5.8,5.8,0,0,0,0,11.6h3V69.77h-3a5.8,5.8,0,1,0,0,11.6h3v8.72h-3a5.24,5.24,0,0,0-1,0,5.8,5.8,0,1,0,1,11.56h3V120a7.48,7.48,0,0,0,7.16,7.76H114.4a7.49,7.49,0,0,0,7.19-7.76V9.37A7.48,7.48,0,0,0,114.39,1.73Zm-.8,117.72h-88v-17.8h2.32a7.69,7.69,0,0,0,1,0,5.8,5.8,0,0,0-1-11.56H25.59V81.37h2.32a5.8,5.8,0,0,0,0-11.6H25.59V58.89h2.32a5.8,5.8,0,0,0,0-11.6H25.59V36.81h2.32a5.8,5.8,0,0,0,0-11.6H25.59V10h88Z"/><polygon class="cls-2" points="98.63 53.73 89.63 53.73 89.63 40.73 67.63 40.73 67.63 31.77 45.63 31.77 45.63 53.77 67.63 53.77 67.63 44.73 85.63 44.73 85.63 53.73 76.63 53.73 76.63 75.73 85.63 75.73 85.63 84.73 67.63 84.73 67.63 75.73 45.63 75.73 45.63 97.73 67.63 97.73 67.63 88.73 89.63 88.73 89.63 75.73 98.63 75.73 98.63 53.73"/></g></svg>