<svg id="Layer_1" data-name="Layer 1" xmlns="http://www.w3.org/2000/svg" viewBox="0 0 128.16 128.16"><defs><style>.cls-1{fill:#00aeef;}.cls-2{fill:#f18a00;}.cls-3{fill:#fff;}</style></defs><path class="cls-1" d="M106.71.65H16.6c-3.94,0-7.16,3.49-7.16,7.77V24.13h-3a5.8,5.8,0,0,0,0,11.6h3V46.24h-3a5.8,5.8,0,0,0,0,11.6h3v10.9h-3a5.8,5.8,0,1,0,0,11.6h3V89h-3a5.8,5.8,0,0,0,0,11.6h3v18.3c0,4.29,3.22,7.77,7.16,7.77h73c4,0,24.26-9.26,24.26-13.54V8.42C113.87,4.14,110.66.65,106.71.65ZM105.58,118.4H17.73V100.61h2.49a5.8,5.8,0,0,0,0-11.6H17.73V80.34h2.49a5.8,5.8,0,0,0,0-11.6H17.73V57.84h2.49a5.8,5.8,0,1,0,0-11.6H17.73V35.73h2.49a5.8,5.8,0,1,0,0-11.6H17.73V8.94h87.85Z"/><circle class="cls-2" cx="84.39" cy="84.39" r="41.87"/><path class="cls-3" d="M84.39,128.81a44.42,44.42,0,1,1,44.42-44.42A44.47,44.47,0,0,1,84.39,128.81Zm0-83.75a39.33,39.33,0,1,0,39.32,39.33A39.37,39.37,0,0,0,84.39,45.06Z"/><path class="cls-3" d="M102.84,63.8l-43,13.85c-2.67.85-1.86,5,1.19,6.07l11.41,4.09L62.3,97.92a4.09,4.09,0,0,0,0,5.77L67.65,109a4.07,4.07,0,0,0,5.76,0l10.1-10.1,4.1,11.41c1.1,3,5.22,3.85,6.07,1.18l13.83-43C108.31,66,105.34,63,102.84,63.8Z"/></svg>