<svg id="Layer_1" data-name="Layer 1" xmlns="http://www.w3.org/2000/svg" viewBox="0 0 128.16 128.16"><defs><style>.cls-1{fill:#00aeef;}</style></defs><path class="cls-1" d="M114.39,1.73H24.31a7.47,7.47,0,0,0-7.16,7.76V25.21h-3a5.8,5.8,0,0,0,0,11.6h3V47.29h-3a5.8,5.8,0,1,0,0,11.6h3v11h-3a5.8,5.8,0,1,0,0,11.6h3v8.44h-3a5.24,5.24,0,0,0-1,0,5.8,5.8,0,1,0,1,11.56h3V120a7.48,7.48,0,0,0,7.16,7.76H114.4a7.49,7.49,0,0,0,7.19-7.76V9.49h0A7.48,7.48,0,0,0,114.39,1.73Zm-.8,117.72h-88v-18h2.32a7.69,7.69,0,0,0,1,0,5.8,5.8,0,0,0-1-11.56H25.59V81.49h2.32a5.8,5.8,0,1,0,0-11.6H25.59v-11h2.32a5.8,5.8,0,0,0,0-11.6H25.59V36.81h2.32a5.8,5.8,0,0,0,0-11.6H25.59V10h88Z"/></svg>