<svg id="Layer_1" data-name="Layer 1" xmlns="http://www.w3.org/2000/svg" viewBox="0 0 128.16 128.16"><defs><style>.cls-1{fill:#f18a00;}.cls-2{fill:#fff;}</style></defs><circle class="cls-1" cx="64.73" cy="64.73" r="59.39"/><path class="cls-2" d="M64.73,1.73a63,63,0,1,1-63,63A63.07,63.07,0,0,1,64.73,1.73Zm0,118.77A55.78,55.78,0,1,0,9,64.73,55.84,55.84,0,0,0,64.73,120.5Z"/><path class="cls-2" d="M97.89,57.42h-14V35a5.65,5.65,0,0,0-5.65-5.65H51.7A5.65,5.65,0,0,0,46.05,35V57.42h-14c-2.37,0-3.22,1.32-3.22,2.55a4.46,4.46,0,0,0,1.28,2.85l31,35.64a5,5,0,0,0,7.76,0l31-35.64A4.46,4.46,0,0,0,101.12,60C101.12,58.74,100.27,57.42,97.89,57.42Z"/></svg>