<svg id="Layer_1" data-name="Layer 1" xmlns="http://www.w3.org/2000/svg" viewBox="0 0 128.16 128.16"><defs><style>.cls-1{fill:#00aeef;}.cls-2{fill:gray;}.cls-3{fill:#f18a00;}.cls-4{fill:#fff;}</style></defs><rect class="cls-1" x="86.54" y="81.84" width="35.74" height="35.74"/><polygon class="cls-2" points="104.41 5.44 82.18 40.68 126.63 40.68 104.41 5.44"/><path class="cls-3" d="M83.15,102.89,80.69,72.53,69.94,85.18c-9.52-15.81-4.59-36.47,7.13-45.62a4.43,4.43,0,0,0-5.45-7C63.46,38.94,57.94,49.2,56.47,60.72A44.76,44.76,0,0,0,64,92.22L52.8,105.35Z"/><path class="cls-2" d="M53.3,45C49.69,22.16,40.06,5.84,28.74,5.84,14.34,5.84,2.66,32.3,2.66,64.93S14.34,124,28.74,124c11.32,0,21-16.32,24.56-39.13L36,64.93Z"/><path class="cls-4" d="M93.05,88.72h6.63l5,14.73h.06l4.74-14.73h6.63v21.42h-4.41V95h-.06l-5.25,15.18h-3.63l-5.25-15h-.06v15H93.05Z"/></svg>