<svg id="Layer_1" data-name="Layer 1" xmlns="http://www.w3.org/2000/svg" viewBox="0 0 128.16 128.16"><defs><style>.cls-1{fill:#00aeef;}.cls-2{fill:#fff;}.cls-3{fill:none;}</style></defs><rect class="cls-1" x="3.07" y="2.86" width="123.32" height="123.74" rx="9.58"/><path class="cls-2" d="M31.65,115.58s5.14-8.25,18.32-11.35,23.93-3.19,34.32-4c15.86-1.26,20.56-6.94,20.56-6.94s5.82,1.72,10.41-5.47c1.31-2,4-11.63-.28-13a9,9,0,0,0-3-.45l-.55,0-.28,0S99.59,67.56,91.25,58c-7-8.06-13.91-14.11-21.58-17.1v-.39c0-18.45-4.13-19.57-7-23.26S49.45,12,52,17.14c3.79,7.51-4.76,20.7-4.78,20.74H47a17.87,17.87,0,0,0-4.67,1l-.28.13-.35-.24A37.19,37.19,0,0,0,35,35.12c-11.39-4.86-15.52-2.67-15.52-2.67a143.19,143.19,0,0,1,.13,14.94V48s-1.54.81-7.48-.64c0,0,1.89,19.14,11,32.72,13.38,19.84,8.48,35.47,8.48,35.47"/><path class="cls-3" d="M67.15,38.67c-.22-13.06-2.73-15.76-5-18.14-.5-.54-1-1.09-1.52-1.74-1.2-1.54-4.61-2.47-6.24-2.44,3,6.42-.9,15.35-3.43,20A67.82,67.82,0,0,1,65.6,38.28C66.12,38.4,66.64,38.53,67.15,38.67Z"/><path class="cls-3" d="M49.83,92.44a1.88,1.88,0,0,1,2.79-2.52c.07.08,6.73,7.28,16.21,8.89,3-.26,5.93-.45,8.81-.63,2.18-.14,4.33-.27,6.46-.44,7.52-.6,12.3-2,15.15-3.3C90.32,92.35,81.48,86.29,81,86a1.88,1.88,0,0,1,2.14-3.09c.12.08,11.08,7.59,20.08,8.42.07,0,.19,0,.45,0l.89,0a11.38,11.38,0,0,0,9.31-5c.87-1.67,2-5.64,1.25-8a2.43,2.43,0,0,0-.58-.73l-.09-.08a2.12,2.12,0,0,0-.46-.18,4.75,4.75,0,0,0-4.39.33c-2.63,1.9-2.87,6.46-2.9,8.37A1.88,1.88,0,0,1,104.85,88h0A1.88,1.88,0,0,1,103,86.11c0-.84.19-7.8,4-11.46a91.4,91.4,0,0,1-17.56-15C81.86,51,75.31,45.79,68.76,43.23a2.78,2.78,0,0,1-.42-.22A30.17,30.17,0,0,0,64.77,42c-9.48-2.15-15-1.84-18-1.24,8.35,8.7,5,18.36,4.93,18.48a1.88,1.88,0,1,1-3.53-1.29c.19-.55,3.37-12.9-14.88-20.78-5.82-2.39-9.37-2.72-11.2-2.64A68.86,68.86,0,0,1,22,41.37a46.88,46.88,0,0,1,0,7.52c-.58,5,1.43,9.83,5.54,14.9,5.16,6.37,8.1,6.37,9.87,5.81,2.81-.89,3.37-2.62,3.39-2.7a1.86,1.86,0,0,1,2.26-1.36,1.91,1.91,0,0,1,1.38,2.3c-.34,1.4-2,4.11-5.9,5.35a8.53,8.53,0,0,1-2.54.39c-4.74,0-8.68-4.1-11.38-7.42-3.44-4.25-7-9.25-7.06-15.36-.63,0-1.42-.13-2.42-.27,1,6,3.69,18.63,10.11,28.19,8.25,12.24,9.88,23,9.79,29.8A36.76,36.76,0,0,1,49.4,101.8c3.7-.87,7.19-1.5,10.53-2A36.25,36.25,0,0,1,49.83,92.44Zm63.51-11.51a1.3,1.3,0,1,1-1.3,1.3A1.3,1.3,0,0,1,113.34,80.93Zm-3.71-.62a1.3,1.3,0,1,1-1.3,1.3A1.3,1.3,0,0,1,109.63,80.31ZM72.29,63.19c3.55-1.09,5.74,1.23,4.51,3.28s-3.15,2.32-6.15,1.37a13.93,13.93,0,0,1-5.36-3.56A25.13,25.13,0,0,0,72.29,63.19ZM42.68,57.84a1.87,1.87,0,0,1-1.84,1.49,1.69,1.69,0,0,1-.38,0A1.87,1.87,0,0,1,39,57.07c.06-.29,1.26-6.65-4.06-9.11-1.21-.56-2.1-.93-2.74-1.17A8.51,8.51,0,0,0,33,50.5a1.9,1.9,0,0,1,0,2.66,1.86,1.86,0,0,1-2.64,0c-1.79-1.79-1.94-6-1.92-7.77a2.16,2.16,0,0,1,.39-2c1.1-1.33,2.91-1,7.73,1.18C43,47.53,43.37,54.54,42.68,57.84Z"/><path d="M103.25,91.31l.45,0C103.44,91.27,103.32,91.27,103.25,91.31Z"/><path d="M115.15,78.43l0-.08a1.31,1.31,0,0,0-.64-.73l.09.08A2.43,2.43,0,0,1,115.15,78.43Z"/><path d="M119.28,76a5.46,5.46,0,0,0-3.51-3.58,11.43,11.43,0,0,0-3.87-.58h0c-2.38-1.48-11.77-7.55-18.72-15.52-7.48-8.61-14.19-14.09-21-17.12-.17-14.37-2.84-18.4-6.31-22.12-.45-.48-.87-.93-1.24-1.41C62,12.37,54.54,10,51,12.25c-1.56,1-2.7,3.09-1.22,6,2.24,4.44-1.36,12.68-4,17.22a19.4,19.4,0,0,0-3.38.74A39.2,39.2,0,0,0,36,32.82c-11.88-5.07-16.8-3-17.67-2.58A2.51,2.51,0,0,0,17,32.6c.26,4.36.32,8.76.18,13.13A25.87,25.87,0,0,1,12.77,45a2.5,2.5,0,0,0-3.08,2.68c.07.81,2.05,19.92,11.41,33.87,12.45,18.46,8.22,33.14,8.16,33.33a2.5,2.5,0,0,0,1.34,3,2.47,2.47,0,0,0,1,.24,2.53,2.53,0,0,0,2.12-1.16c.19-.31,4.87-7.45,16.78-10.25,10.25-2.42,19-3,27.4-3.5,2.21-.14,4.38-.28,6.54-.44,12.9-1,18.94-4.86,21.21-6.79,2.52.19,7.59-.38,11.65-6.75C118.6,87.3,120.81,80.34,119.28,76ZM54.44,16.35c1.63,0,5,.9,6.24,2.44.51.65,1,1.2,1.52,1.74,2.22,2.38,4.73,5.08,5,18.14-.51-.14-1-.27-1.55-.39A67.82,67.82,0,0,0,51,36.4C53.54,31.7,57.39,22.77,54.44,16.35ZM113.9,86.43a11.38,11.38,0,0,1-9.31,5l-.89,0-.45,0c-9-.83-20-8.34-20.08-8.42A1.88,1.88,0,0,0,81,86c.45.31,9.29,6.37,18.22,8.46-2.85,1.25-7.63,2.7-15.15,3.3-2.13.17-4.28.3-6.46.44-2.88.18-5.81.37-8.81.63C59.35,97.2,52.69,90,52.62,89.92a1.88,1.88,0,0,0-2.79,2.52,36.25,36.25,0,0,0,10.1,7.38c-3.34.48-6.83,1.11-10.53,2A36.76,36.76,0,0,0,35,108.52c.09-6.83-1.54-17.56-9.79-29.8-6.42-9.56-9.13-22.22-10.11-28.19,1,.14,1.79.23,2.42.27,0,6.11,3.62,11.11,7.06,15.36,2.7,3.32,6.64,7.42,11.38,7.42a8.53,8.53,0,0,0,2.54-.39c3.93-1.24,5.56-4,5.9-5.35a1.91,1.91,0,0,0-1.38-2.3A1.86,1.86,0,0,0,40.8,66.9c0,.08-.58,1.81-3.39,2.7-1.77.56-4.71.56-9.87-5.81-4.11-5.07-6.12-9.92-5.54-14.9a46.88,46.88,0,0,0,0-7.52,68.86,68.86,0,0,0,.09-6.89c1.83-.08,5.38.25,11.2,2.64C51.58,45,48.4,57.35,48.21,57.9a1.88,1.88,0,1,0,3.53,1.29c0-.12,3.42-9.78-4.93-18.48,2.93-.6,8.48-.91,18,1.24A30.17,30.17,0,0,1,68.34,43a2.78,2.78,0,0,0,.42.22c6.55,2.56,13.1,7.77,20.61,16.42a91.4,91.4,0,0,0,17.56,15c-3.77,3.66-4,10.62-4,11.46A1.88,1.88,0,0,0,104.83,88h0a1.88,1.88,0,0,0,1.88-1.86c0-1.91.27-6.47,2.9-8.37a4.75,4.75,0,0,1,4.39-.33,2.12,2.12,0,0,1,.46.18,1.31,1.31,0,0,1,.64.73l0,.08C115.93,80.79,114.77,84.76,113.9,86.43Z"/><path d="M36.52,44.55c-4.82-2.23-6.63-2.51-7.73-1.18a2.16,2.16,0,0,0-.39,2c0,1.79.13,6,1.92,7.77a1.86,1.86,0,0,0,2.64,0,1.9,1.9,0,0,0,0-2.66,8.51,8.51,0,0,1-.78-3.71c.64.24,1.53.61,2.74,1.17,5.32,2.46,4.12,8.82,4.06,9.11a1.87,1.87,0,0,0,1.46,2.22,1.69,1.69,0,0,0,.38,0,1.87,1.87,0,0,0,1.84-1.49C43.37,54.54,43,47.53,36.52,44.55Z"/><path d="M76.8,66.47c1.23-2-1-4.37-4.51-3.28a25.13,25.13,0,0,1-7,1.09,13.93,13.93,0,0,0,5.36,3.56C73.65,68.79,75.57,68.52,76.8,66.47Z"/><path d="M109.63,82.91a1.3,1.3,0,1,0-1.3-1.3A1.3,1.3,0,0,0,109.63,82.91Z"/><path d="M113.34,83.53a1.3,1.3,0,1,0-1.3-1.3A1.3,1.3,0,0,0,113.34,83.53Z"/></svg>