<svg id="Layer_1" data-name="Layer 1" xmlns="http://www.w3.org/2000/svg" xmlns:xlink="http://www.w3.org/1999/xlink" viewBox="0 0 128.16 128.16"><defs><style>.cls-1{fill:url(#linear-gradient);}.cls-2{fill:#9cd3f2;}.cls-3{fill:#1e5582;}.cls-4{fill:#fff;}.cls-5{fill:#f16522;}.cls-6{fill:#91b74a;}.cls-7{fill:#244185;}.cls-8{fill:#3996c7;}</style><linearGradient id="linear-gradient" x1="23.43" y1="2.89" x2="90.6" y2="119.22" gradientUnits="userSpaceOnUse"><stop offset="0.15" stop-color="#5191bd"/><stop offset="0.46" stop-color="#4281b5"/><stop offset="0.98" stop-color="#205da2"/></linearGradient></defs><rect class="cls-1" x="2.16" y="6.2" width="109.71" height="109.71" rx="21.18"/><path class="cls-2" d="M90.69,10.94a16.47,16.47,0,0,1,16.44,16.44V94.73a16.46,16.46,0,0,1-16.44,16.43H23.34A16.45,16.45,0,0,1,6.91,94.73V27.38A16.46,16.46,0,0,1,23.34,10.94H90.69m0-4.74H23.34A21.24,21.24,0,0,0,2.16,27.38V94.73a21.24,21.24,0,0,0,21.18,21.18H90.69a21.24,21.24,0,0,0,21.18-21.18V27.38A21.24,21.24,0,0,0,90.69,6.2Z"/><path class="cls-3" d="M90.69,8.57A18.83,18.83,0,0,1,109.5,27.38V94.73a18.83,18.83,0,0,1-18.81,18.81H23.34A18.83,18.83,0,0,1,4.53,94.73V27.38A18.83,18.83,0,0,1,23.34,8.57H90.69m0-2.37H23.34A21.24,21.24,0,0,0,2.16,27.38V94.73a21.24,21.24,0,0,0,21.18,21.18H90.69a21.24,21.24,0,0,0,21.18-21.18V27.38A21.24,21.24,0,0,0,90.69,6.2Z"/><rect class="cls-4" x="65.09" y="62" width="28.62" height="5.34" transform="translate(-10.53 113.64) rotate(-67.73)"/><rect class="cls-4" x="47.04" y="23.64" width="5.34" height="56.24" transform="translate(-21.88 46.81) rotate(-42.2)"/><rect class="cls-4" x="72.26" y="22.08" width="5.34" height="17.34" transform="translate(8.8 77.52) rotate(-57.58)"/><rect class="cls-4" x="93.86" y="28.09" width="7.87" height="5.34" transform="translate(8.46 81.06) rotate(-46.84)"/><rect class="cls-4" x="87.89" y="80.86" width="5.34" height="20.65" transform="translate(-36.58 109.9) rotate(-53.57)"/><rect class="cls-4" x="60.44" y="92.77" width="13.95" height="5.34" transform="translate(-44.29 129.73) rotate(-71.83)"/><rect class="cls-4" x="34.18" y="75.24" width="29.08" height="5.34"/><circle class="cls-5" cx="29.23" cy="28.65" r="15.87"/><path class="cls-4" d="M29.23,18.13A10.53,10.53,0,1,1,18.71,28.65,10.54,10.54,0,0,1,29.23,18.13m0-5.34A15.87,15.87,0,1,0,45.1,28.65,15.86,15.86,0,0,0,29.23,12.79Z"/><circle class="cls-6" cx="61.3" cy="113.17" r="13.63"/><path class="cls-4" d="M61.3,103.7a9.48,9.48,0,1,1-9.48,9.47,9.48,9.48,0,0,1,9.48-9.47m0-4.15a13.63,13.63,0,1,0,13.62,13.62A13.62,13.62,0,0,0,61.3,99.55Z"/><circle class="cls-6" cx="25.96" cy="77.84" r="9.64"/><path class="cls-4" d="M26,71.14a6.7,6.7,0,1,1-6.7,6.7,6.71,6.71,0,0,1,6.7-6.7m0-2.94a9.64,9.64,0,1,0,9.63,9.64A9.65,9.65,0,0,0,26,68.2Z"/><circle class="cls-7" cx="107.81" cy="104.12" r="13.63"/><path class="cls-4" d="M107.81,94.65a9.48,9.48,0,1,1-9.48,9.47,9.48,9.48,0,0,1,9.48-9.47m0-4.15a13.63,13.63,0,1,0,13.62,13.62A13.62,13.62,0,0,0,107.81,90.5Z"/><circle class="cls-8" cx="88.5" cy="42.92" r="11.99"/><path class="cls-4" d="M88.5,34.49a8.43,8.43,0,1,1-8.43,8.43,8.44,8.44,0,0,1,8.43-8.43m0-3.56a12,12,0,1,0,12,12,12,12,0,0,0-12-12Z"/><circle class="cls-4" cx="73.98" cy="77.91" r="13.63"/><path class="cls-4" d="M74,68.44a9.47,9.47,0,1,1-9.47,9.47A9.48,9.48,0,0,1,74,68.44m0-4.16A13.63,13.63,0,1,0,87.61,77.91,13.63,13.63,0,0,0,74,64.28Z"/><circle class="cls-4" cx="64.58" cy="23.66" r="8.08"/><path class="cls-4" d="M64.58,18A5.62,5.62,0,1,1,59,23.66,5.62,5.62,0,0,1,64.58,18m0-2.46a8.08,8.08,0,1,0,8.08,8.08,8.08,8.08,0,0,0-8.08-8.08Z"/><circle class="cls-4" cx="109.87" cy="17.5" r="16.13"/><path class="cls-4" d="M109.87,6.28A11.22,11.22,0,1,1,98.65,17.5,11.23,11.23,0,0,1,109.87,6.28m0-4.92A16.14,16.14,0,1,0,126,17.5,16.13,16.13,0,0,0,109.87,1.36Z"/></svg>