<svg id="Layer_1" data-name="Layer 1" xmlns="http://www.w3.org/2000/svg" xmlns:xlink="http://www.w3.org/1999/xlink" viewBox="0 0 128.16 128.16"><defs><style>.cls-1,.cls-9{fill:#fcc900;}.cls-2{opacity:0.8;fill:url(#linear-gradient);}.cls-3,.cls-4,.cls-8{fill:#fff;}.cls-3,.cls-4,.cls-7{stroke:#fff;stroke-miterlimit:10;}.cls-3,.cls-4{stroke-width:4px;}.cls-4,.cls-7{opacity:0.85;}.cls-5{fill:#f18a00;}.cls-6{fill:gray;}.cls-7{fill:#62bb46;stroke-width:2.4px;}.cls-8{font-size:25.6px;font-family:Arial-Black, Arial Black;letter-spacing:0.11em;}.cls-9{stroke:gray;stroke-linecap:square;stroke-linejoin:bevel;stroke-width:1.63px;opacity:0.34;}</style><linearGradient id="linear-gradient" y1="57.13" x2="94" y2="57.13" gradientUnits="userSpaceOnUse"><stop offset="0.54" stop-color="#fff"/><stop offset="1" stop-color="#fff" stop-opacity="0"/></linearGradient></defs><title>MoleculeStartValuesFolder</title><polygon class="cls-1" points="0 0.86 83.78 5.12 83.78 113.41 0 94.19 0 0.86"/><polygon class="cls-1" points="83.78 69.24 94 71.02 94 109.27 83.78 107.49 83.78 69.24"/><path class="cls-2" d="M0,.86,83.78,5.12V113.41L0,94.19ZM83.78,107.49,94,109.27V71L83.78,69.24Z"/><path class="cls-3" d="M60.72,21.39a10.32,10.32,0,0,1,.71-4.22,5,5,0,0,1,2.1-2.38A6.19,6.19,0,0,1,67,14.1a7.32,7.32,0,0,1,2.74.62,5.42,5.42,0,0,1,2,1.5,7.5,7.5,0,0,1,1.21,2.28,12.19,12.19,0,0,1,.43,3.56,10.43,10.43,0,0,1-.7,4.2,5,5,0,0,1-2.1,2.38,6.22,6.22,0,0,1-3.53.7,6.4,6.4,0,0,1-4.41-1.78C61.36,26.25,60.72,24.2,60.72,21.39Zm2.44.13q0,3.68,1.13,4.95A3.76,3.76,0,0,0,67,27.83a3.4,3.4,0,0,0,2.76-1.07c.75-.78,1.12-2.39,1.12-4.83s-.37-4.11-1.12-5A3.82,3.82,0,0,0,67,15.61a3.22,3.22,0,0,0-2.62.93C63.58,17.41,63.16,19.07,63.16,21.52Z"/><path class="cls-3" d="M67,30.26A7.36,7.36,0,0,1,62,28.19c-1.46-1.49-2.2-3.8-2.2-6.85a11.4,11.4,0,0,1,.79-4.59A5.9,5.9,0,0,1,63,14a7.19,7.19,0,0,1,4-.81,8.31,8.31,0,0,1,3.1.72,6.31,6.31,0,0,1,2.3,1.77,8.24,8.24,0,0,1,1.37,2.6,12.76,12.76,0,0,1,.49,3.84,11.38,11.38,0,0,1-.78,4.57,5.9,5.9,0,0,1-2.45,2.78A7.17,7.17,0,0,1,67,30.26ZM64,15.59h0a4.1,4.1,0,0,0-1.75,2,9.67,9.67,0,0,0-.63,3.86c0,2.53.55,4.38,1.64,5.49a4.34,4.34,0,0,0,.93.73,6.87,6.87,0,0,1-.61-.6c-.91-1-1.36-2.87-1.36-5.59s.48-4.53,1.47-5.58A3,3,0,0,1,64,15.59Zm5.87.22a5.19,5.19,0,0,1,.58.57c.92,1,1.37,2.87,1.37,5.6s-.45,4.48-1.36,5.44a4.69,4.69,0,0,1-.59.51l.18-.09a4.1,4.1,0,0,0,1.74-2A9.63,9.63,0,0,0,72.45,22a10.88,10.88,0,0,0-.39-3.26,6.14,6.14,0,0,0-1-2A4,4,0,0,0,69.9,15.81ZM67,16.54a2.34,2.34,0,0,0-1.94.66c-.45.48-1,1.63-1,4.37s.55,3.94.87,4.31a2.84,2.84,0,0,0,2.08,1,2.55,2.55,0,0,0,2.08-.81c.33-.34.88-1.34.88-4.22s-.55-3.95-.88-4.32A2.85,2.85,0,0,0,67,16.54Z"/><path class="cls-3" d="M79.19,29.72V14.79l2.57.14v6.13l10.09.53V15.46l2.56.13V30.52l-2.56-.13v-7l-10.09-.53v7Z"/><path class="cls-3" d="M95.34,31.49l-4.42-.23v-7l-8.24-.44v7l-4.41-.23V13.82l4.41.23v6.13l8.24.44V14.48l4.42.24Zm-2.57-2,.72,0V16.47l-.72,0Zm-12.65-.66.71,0V15.8l-.71,0Z"/><path class="cls-3" d="M16,19.05a10.49,10.49,0,0,1,.71-4.22,5.07,5.07,0,0,1,2.11-2.38,6.19,6.19,0,0,1,3.51-.69,7.36,7.36,0,0,1,2.74.62,5.42,5.42,0,0,1,1.95,1.5,7.16,7.16,0,0,1,1.2,2.28,11.77,11.77,0,0,1,.44,3.56,10.61,10.61,0,0,1-.7,4.2,5,5,0,0,1-2.1,2.38,6.32,6.32,0,0,1-3.53.7A6.4,6.4,0,0,1,18,25.22C16.68,23.91,16,21.86,16,19.05Zm2.45.13q0,3.67,1.12,4.95a3.8,3.8,0,0,0,2.76,1.36,3.4,3.4,0,0,0,2.76-1.07c.75-.78,1.12-2.39,1.12-4.83s-.37-4.11-1.12-5a3.83,3.83,0,0,0-2.79-1.36,3.25,3.25,0,0,0-2.62.93Q18.49,15.51,18.49,19.18Z"/><path class="cls-3" d="M22.37,27.92a7.32,7.32,0,0,1-5.05-2.07c-1.46-1.49-2.2-3.8-2.2-6.85a11.2,11.2,0,0,1,.79-4.59,5.88,5.88,0,0,1,2.45-2.77,7.22,7.22,0,0,1,4-.81,8.21,8.21,0,0,1,3.09.72,6.23,6.23,0,0,1,2.3,1.77,8,8,0,0,1,1.38,2.6,12.8,12.8,0,0,1,.48,3.84,11.57,11.57,0,0,1-.77,4.57,5.87,5.87,0,0,1-2.46,2.78A7.14,7.14,0,0,1,22.37,27.92Zm-3-14.67h0a4.1,4.1,0,0,0-1.75,2A9.63,9.63,0,0,0,17,19.1c0,2.53.55,4.38,1.64,5.49a4.41,4.41,0,0,0,.93.73,5.74,5.74,0,0,1-.61-.6c-.92-1-1.36-2.87-1.36-5.59s.48-4.54,1.47-5.58A3,3,0,0,1,19.36,13.25Zm5.87.22a5.19,5.19,0,0,1,.58.57c.92,1,1.36,2.87,1.36,5.6s-.44,4.48-1.36,5.44a4.61,4.61,0,0,1-.58.51l.18-.09a4.2,4.2,0,0,0,1.74-2,9.63,9.63,0,0,0,.63-3.84,11.22,11.22,0,0,0-.39-3.26,6.34,6.34,0,0,0-1-2A4,4,0,0,0,25.23,13.47Zm-2.89.73a2.32,2.32,0,0,0-1.93.66c-.45.48-1,1.63-1,4.37s.54,3.94.87,4.31a2.87,2.87,0,0,0,2.08,1,2.57,2.57,0,0,0,2.08-.81c.33-.34.87-1.34.87-4.22s-.54-3.95-.87-4.32A2.89,2.89,0,0,0,22.34,14.2Z"/><path class="cls-3" d="M75.54,46.58a10.54,10.54,0,0,1,.71-4.23A5,5,0,0,1,78.36,40a6.27,6.27,0,0,1,3.51-.7,7.56,7.56,0,0,1,2.74.63,5.21,5.21,0,0,1,2,1.5,7.06,7.06,0,0,1,1.2,2.28,11.75,11.75,0,0,1,.44,3.55,10.7,10.7,0,0,1-.7,4.21,5,5,0,0,1-2.1,2.38,6.32,6.32,0,0,1-3.53.7,6.4,6.4,0,0,1-4.41-1.78C76.19,51.44,75.54,49.38,75.54,46.58Zm2.45.13q0,3.67,1.12,4.95A3.83,3.83,0,0,0,81.87,53a3.38,3.38,0,0,0,2.76-1.08c.75-.77,1.12-2.38,1.12-4.83s-.37-4.11-1.12-5a3.83,3.83,0,0,0-2.79-1.36,3.18,3.18,0,0,0-2.61.93Q78,43,78,46.71Z"/><path class="cls-3" d="M81.87,55.45a7.37,7.37,0,0,1-5.05-2.07c-1.46-1.5-2.2-3.8-2.2-6.85a11.2,11.2,0,0,1,.79-4.59,5.83,5.83,0,0,1,2.45-2.77,7.22,7.22,0,0,1,4-.81,8.4,8.4,0,0,1,3.09.71,6.36,6.36,0,0,1,2.3,1.78,8,8,0,0,1,1.38,2.59,12.84,12.84,0,0,1,.49,3.85,11.59,11.59,0,0,1-.78,4.57,5.87,5.87,0,0,1-2.46,2.78A7.22,7.22,0,0,1,81.87,55.45Zm-3-14.67h0a4.17,4.17,0,0,0-1.75,2,9.63,9.63,0,0,0-.63,3.86c0,2.53.55,4.38,1.64,5.49a5.08,5.08,0,0,0,.93.73,5.74,5.74,0,0,1-.61-.6c-.92-1-1.36-2.87-1.36-5.59s.48-4.54,1.47-5.58A3,3,0,0,1,78.86,40.78Zm5.87.21a5.29,5.29,0,0,1,.58.58c.92,1,1.36,2.87,1.36,5.59s-.44,4.49-1.36,5.44a4,4,0,0,1-.58.52l.18-.1a4.1,4.1,0,0,0,1.74-2,9.59,9.59,0,0,0,.63-3.84,11,11,0,0,0-.39-3.26,6.28,6.28,0,0,0-1-2A4.23,4.23,0,0,0,84.73,41Zm-2.89.73a2.37,2.37,0,0,0-1.93.67c-.45.48-1,1.62-1,4.37s.54,3.94.87,4.31a2.87,2.87,0,0,0,2.08,1A2.57,2.57,0,0,0,84,51.28c.33-.34.88-1.34.88-4.21s-.55-4-.88-4.32A2.88,2.88,0,0,0,81.84,41.72Z"/><path class="cls-3" d="M93.1,108.46a10.51,10.51,0,0,1,.71-4.23,5,5,0,0,1,2.1-2.38,6.41,6.41,0,0,1,3.52-.69,7.41,7.41,0,0,1,2.74.63,5.37,5.37,0,0,1,2,1.5,7.06,7.06,0,0,1,1.2,2.28,11.75,11.75,0,0,1,.44,3.55,10.61,10.61,0,0,1-.7,4.2,5,5,0,0,1-2.1,2.39,6.34,6.34,0,0,1-3.53.7A6.45,6.45,0,0,1,95,114.63Q93.1,112.67,93.1,108.46Zm2.45.13q0,3.68,1.12,5a3.82,3.82,0,0,0,2.76,1.36,3.4,3.4,0,0,0,2.76-1.08c.74-.77,1.12-2.38,1.12-4.83s-.38-4.11-1.12-4.95a3.86,3.86,0,0,0-2.79-1.36,3.2,3.2,0,0,0-2.62.93C96,104.48,95.55,106.13,95.55,108.59Z"/><path class="cls-3" d="M99.43,117.33a7.37,7.37,0,0,1-5.05-2.07c-1.46-1.5-2.2-3.8-2.2-6.85a11.18,11.18,0,0,1,.78-4.59A6,6,0,0,1,95.42,101a7.22,7.22,0,0,1,4-.8,8.4,8.4,0,0,1,3.09.71,6.45,6.45,0,0,1,2.3,1.78,8.21,8.21,0,0,1,1.38,2.59,12.83,12.83,0,0,1,.48,3.85,11.6,11.6,0,0,1-.77,4.57,6,6,0,0,1-2.46,2.78A7.24,7.24,0,0,1,99.43,117.33Zm-3-14.67h0a4.2,4.2,0,0,0-1.74,2,9.63,9.63,0,0,0-.63,3.86c0,2.53.55,4.37,1.63,5.49a4.43,4.43,0,0,0,.94.72,4.24,4.24,0,0,1-.61-.59c-.92-1-1.37-2.88-1.37-5.59S95.11,104,96.1,103A3,3,0,0,1,96.42,102.66Zm5.87.21a6.21,6.21,0,0,1,.58.57c.92,1,1.36,2.88,1.36,5.6s-.44,4.49-1.36,5.44a4.7,4.7,0,0,1-.58.52l.18-.1a4.2,4.2,0,0,0,1.74-2,9.83,9.83,0,0,0,.62-3.84,11,11,0,0,0-.39-3.26,6.07,6.07,0,0,0-1-2A4.23,4.23,0,0,0,102.29,102.87Zm-2.89.73a2.39,2.39,0,0,0-1.94.67c-.45.47-1,1.62-1,4.36,0,2.89.55,3.94.88,4.32a2.86,2.86,0,0,0,2.08,1,2.53,2.53,0,0,0,2.08-.81c.32-.34.87-1.34.87-4.22s-.54-3.94-.87-4.31A2.9,2.9,0,0,0,99.4,103.6Z"/><path class="cls-3" d="M43.61,63.41a2.59,2.59,0,0,1-2.43-2.55V43.08L29.27,30.92a2.37,2.37,0,1,1,3.38-3.31L45.11,40.32a2.61,2.61,0,0,1,.54.81l.2.47a2.55,2.55,0,0,1,.19,1V61.11A2.27,2.27,0,0,1,43.61,63.41Z"/><path class="cls-3" d="M30.81,49a2.57,2.57,0,0,1-1.68-.77l-7.42-7.48a2.37,2.37,0,1,1,3.36-3.34l7.42,7.48a2.45,2.45,0,0,1,.07,3.45A2.31,2.31,0,0,1,30.81,49Z"/><path class="cls-3" d="M43.61,44.88a2.63,2.63,0,0,1-1-.25,2.54,2.54,0,0,1-1.27-3.26l.19-.45a2.32,2.32,0,0,1,.55-.76l12.45-11.4A2.5,2.5,0,0,1,58,32.43L45.85,43.52A2.29,2.29,0,0,1,43.61,44.88Z"/><path class="cls-3" d="M63.71,95.61a2.59,2.59,0,0,1-2.43-2.56V73.74a2.38,2.38,0,0,1,.2-.95l.19-.45a2.32,2.32,0,0,1,.55-.76l12.45-11.4a2.5,2.5,0,0,1,3.38,3.67L66.14,74.76V93.31A2.28,2.28,0,0,1,63.71,95.61Z"/><path class="cls-3" d="M99.49,97.49a2.6,2.6,0,0,1-2.43-2.56V75.62a2.34,2.34,0,0,1,.2-1l.2-.45a2.16,2.16,0,0,1,.54-.76l12.45-11.41a2.44,2.44,0,0,1,3.44.24,2.42,2.42,0,0,1,0,3.43L101.93,76.63V95.18A2.29,2.29,0,0,1,99.49,97.49Z"/><path class="cls-3" d="M99.49,97.49a2.6,2.6,0,0,1-2.43-2.56V76.38L85.15,64.22a2.38,2.38,0,1,1,3.39-3.32L101,73.61a2.78,2.78,0,0,1,.54.82l.2.47a2.51,2.51,0,0,1,.2,1V95.18A2.29,2.29,0,0,1,99.49,97.49Z"/><path class="cls-3" d="M85.78,95.59A2.59,2.59,0,0,1,83.35,93V80.6a2.28,2.28,0,0,1,2.43-2.3,2.59,2.59,0,0,1,2.44,2.56V93.29A2.29,2.29,0,0,1,85.78,95.59Z"/><path class="cls-3" d="M43.61,106.08a2.53,2.53,0,0,1-1.2-.38L22.5,93.29a2.92,2.92,0,0,1-.28-.21l-.2-.16a2.59,2.59,0,0,1-.94-2V71.34A2.28,2.28,0,0,1,22,69.51l.2-.16a2.39,2.39,0,0,1,.34-.21L42.41,58.81a2.45,2.45,0,0,1,2.41.12l19.9,12.42a2.7,2.7,0,0,1,.34.25l.2.17a2.59,2.59,0,0,1,.88,1.93V93.31a2.28,2.28,0,0,1-.94,1.87l-.2.15a2.61,2.61,0,0,1-.28.17l-19.9,10.33A2.3,2.3,0,0,1,43.61,106.08ZM25.94,89.83l17.67,11,17.67-9.17V74.81l-17.67-11L25.94,73Z"/><path class="cls-3" d="M52,80.52a2.54,2.54,0,0,1-1.19-.37l-8.14-5a2.51,2.51,0,0,1-.93-3.36A2.36,2.36,0,0,1,45,71.05l8.13,5a2.51,2.51,0,0,1,.94,3.36A2.28,2.28,0,0,1,52,80.52Z"/><path class="cls-3" d="M35.56,88.8a2.6,2.6,0,0,1-2.44-2.51L33,77a2.27,2.27,0,0,1,2.38-2.35,2.58,2.58,0,0,1,2.48,2.51L38,86.45A2.28,2.28,0,0,1,35.6,88.8Z"/><path class="cls-3" d="M43.33,94.29A2.61,2.61,0,0,1,41.22,93a2.35,2.35,0,0,1,.9-3.27l8.08-4.22a2.51,2.51,0,0,1,3.32,1.07,2.35,2.35,0,0,1-.89,3.27L44.54,94A2.45,2.45,0,0,1,43.33,94.29Z"/><path class="cls-4" d="M13.58,20.88l74.64,3.91a7.79,7.79,0,0,1,7.31,7.69v17a6.87,6.87,0,0,1-7.31,6.93L13.58,52.49"/><path class="cls-5" d="M60.72,21.39a10.32,10.32,0,0,1,.71-4.22,5,5,0,0,1,2.1-2.38A6.19,6.19,0,0,1,67,14.1a7.32,7.32,0,0,1,2.74.62,5.42,5.42,0,0,1,2,1.5,7.5,7.5,0,0,1,1.21,2.28,12.19,12.19,0,0,1,.43,3.56,10.43,10.43,0,0,1-.7,4.2,5,5,0,0,1-2.1,2.38,6.22,6.22,0,0,1-3.53.7,6.4,6.4,0,0,1-4.41-1.78C61.36,26.25,60.72,24.2,60.72,21.39Zm2.44.13q0,3.68,1.13,4.95A3.76,3.76,0,0,0,67,27.83a3.4,3.4,0,0,0,2.76-1.07c.75-.78,1.12-2.39,1.12-4.83s-.37-4.11-1.12-5A3.82,3.82,0,0,0,67,15.61a3.22,3.22,0,0,0-2.62.93C63.58,17.41,63.16,19.07,63.16,21.52Z"/><path class="cls-5" d="M67,30.26A7.36,7.36,0,0,1,62,28.19c-1.46-1.49-2.2-3.8-2.2-6.85a11.4,11.4,0,0,1,.79-4.59A5.9,5.9,0,0,1,63,14a7.19,7.19,0,0,1,4-.81,8.31,8.31,0,0,1,3.1.72,6.31,6.31,0,0,1,2.3,1.77,8.24,8.24,0,0,1,1.37,2.6,12.76,12.76,0,0,1,.49,3.84,11.38,11.38,0,0,1-.78,4.57,5.9,5.9,0,0,1-2.45,2.78A7.17,7.17,0,0,1,67,30.26ZM64,15.59h0a4.1,4.1,0,0,0-1.75,2,9.67,9.67,0,0,0-.63,3.86c0,2.53.55,4.38,1.64,5.49a4.34,4.34,0,0,0,.93.73,6.87,6.87,0,0,1-.61-.6c-.91-1-1.36-2.87-1.36-5.59s.48-4.53,1.47-5.58A3,3,0,0,1,64,15.59Zm5.87.22a5.19,5.19,0,0,1,.58.57c.92,1,1.37,2.87,1.37,5.6s-.45,4.48-1.36,5.44a4.69,4.69,0,0,1-.59.51l.18-.09a4.1,4.1,0,0,0,1.74-2A9.63,9.63,0,0,0,72.45,22a10.88,10.88,0,0,0-.39-3.26,6.14,6.14,0,0,0-1-2A4,4,0,0,0,69.9,15.81ZM67,16.54a2.34,2.34,0,0,0-1.94.66c-.45.48-1,1.63-1,4.37s.55,3.94.87,4.31a2.84,2.84,0,0,0,2.08,1,2.55,2.55,0,0,0,2.08-.81c.33-.34.88-1.34.88-4.22s-.55-3.95-.88-4.32A2.85,2.85,0,0,0,67,16.54Z"/><path d="M79.19,29.72V14.79l2.57.14v6.13l10.09.53V15.46l2.56.13V30.52l-2.56-.13v-7l-10.09-.53v7Z"/><path d="M95.34,31.49l-4.42-.23v-7l-8.24-.44v7l-4.41-.23V13.82l4.41.23v6.13l8.24.44V14.48l4.42.24Zm-2.57-2,.72,0V16.47l-.72,0Zm-12.65-.66.71,0V15.8l-.71,0Z"/><path class="cls-5" d="M16,19.05a10.49,10.49,0,0,1,.71-4.22,5.07,5.07,0,0,1,2.11-2.38,6.19,6.19,0,0,1,3.51-.69,7.36,7.36,0,0,1,2.74.62,5.42,5.42,0,0,1,1.95,1.5,7.16,7.16,0,0,1,1.2,2.28,11.77,11.77,0,0,1,.44,3.56,10.61,10.61,0,0,1-.7,4.2,5,5,0,0,1-2.1,2.38,6.32,6.32,0,0,1-3.53.7A6.4,6.4,0,0,1,18,25.22C16.68,23.91,16,21.86,16,19.05Zm2.45.13q0,3.67,1.12,4.95a3.8,3.8,0,0,0,2.76,1.36,3.4,3.4,0,0,0,2.76-1.07c.75-.78,1.12-2.39,1.12-4.83s-.37-4.11-1.12-5a3.83,3.83,0,0,0-2.79-1.36,3.25,3.25,0,0,0-2.62.93Q18.49,15.51,18.49,19.18Z"/><path class="cls-5" d="M22.37,27.92a7.32,7.32,0,0,1-5.05-2.07c-1.46-1.49-2.2-3.8-2.2-6.85a11.2,11.2,0,0,1,.79-4.59,5.88,5.88,0,0,1,2.45-2.77,7.22,7.22,0,0,1,4-.81,8.21,8.21,0,0,1,3.09.72,6.23,6.23,0,0,1,2.3,1.77,8,8,0,0,1,1.38,2.6,12.8,12.8,0,0,1,.48,3.84,11.57,11.57,0,0,1-.77,4.57,5.87,5.87,0,0,1-2.46,2.78A7.14,7.14,0,0,1,22.37,27.92Zm-3-14.67h0a4.1,4.1,0,0,0-1.75,2A9.63,9.63,0,0,0,17,19.1c0,2.53.55,4.38,1.64,5.49a4.41,4.41,0,0,0,.93.73,5.74,5.74,0,0,1-.61-.6c-.92-1-1.36-2.87-1.36-5.59s.48-4.54,1.47-5.58A3,3,0,0,1,19.36,13.25Zm5.87.22a5.19,5.19,0,0,1,.58.57c.92,1,1.36,2.87,1.36,5.6s-.44,4.48-1.36,5.44a4.61,4.61,0,0,1-.58.51l.18-.09a4.2,4.2,0,0,0,1.74-2,9.63,9.63,0,0,0,.63-3.84,11.22,11.22,0,0,0-.39-3.26,6.34,6.34,0,0,0-1-2A4,4,0,0,0,25.23,13.47Zm-2.89.73a2.32,2.32,0,0,0-1.93.66c-.45.48-1,1.63-1,4.37s.54,3.94.87,4.31a2.87,2.87,0,0,0,2.08,1,2.57,2.57,0,0,0,2.08-.81c.33-.34.87-1.34.87-4.22s-.54-3.95-.87-4.32A2.89,2.89,0,0,0,22.34,14.2Z"/><path class="cls-5" d="M75.54,46.58a10.54,10.54,0,0,1,.71-4.23A5,5,0,0,1,78.36,40a6.27,6.27,0,0,1,3.51-.7,7.56,7.56,0,0,1,2.74.63,5.21,5.21,0,0,1,2,1.5,7.06,7.06,0,0,1,1.2,2.28,11.75,11.75,0,0,1,.44,3.55,10.7,10.7,0,0,1-.7,4.21,5,5,0,0,1-2.1,2.38,6.32,6.32,0,0,1-3.53.7,6.4,6.4,0,0,1-4.41-1.78C76.19,51.44,75.54,49.38,75.54,46.58Zm2.45.13q0,3.67,1.12,4.95A3.83,3.83,0,0,0,81.87,53a3.38,3.38,0,0,0,2.76-1.08c.75-.77,1.12-2.38,1.12-4.83s-.37-4.11-1.12-5a3.83,3.83,0,0,0-2.79-1.36,3.18,3.18,0,0,0-2.61.93Q78,43,78,46.71Z"/><path class="cls-5" d="M81.87,55.45a7.37,7.37,0,0,1-5.05-2.07c-1.46-1.5-2.2-3.8-2.2-6.85a11.2,11.2,0,0,1,.79-4.59,5.83,5.83,0,0,1,2.45-2.77,7.22,7.22,0,0,1,4-.81,8.4,8.4,0,0,1,3.09.71,6.36,6.36,0,0,1,2.3,1.78,8,8,0,0,1,1.38,2.59,12.84,12.84,0,0,1,.49,3.85,11.59,11.59,0,0,1-.78,4.57,5.87,5.87,0,0,1-2.46,2.78A7.22,7.22,0,0,1,81.87,55.45Zm-3-14.67h0a4.17,4.17,0,0,0-1.75,2,9.63,9.63,0,0,0-.63,3.86c0,2.53.55,4.38,1.64,5.49a5.08,5.08,0,0,0,.93.73,5.74,5.74,0,0,1-.61-.6c-.92-1-1.36-2.87-1.36-5.59s.48-4.54,1.47-5.58A3,3,0,0,1,78.86,40.78Zm5.87.21a5.29,5.29,0,0,1,.58.58c.92,1,1.36,2.87,1.36,5.59s-.44,4.49-1.36,5.44a4,4,0,0,1-.58.52l.18-.1a4.1,4.1,0,0,0,1.74-2,9.59,9.59,0,0,0,.63-3.84,11,11,0,0,0-.39-3.26,6.28,6.28,0,0,0-1-2A4.23,4.23,0,0,0,84.73,41Zm-2.89.73a2.37,2.37,0,0,0-1.93.67c-.45.48-1,1.62-1,4.37s.54,3.94.87,4.31a2.87,2.87,0,0,0,2.08,1A2.57,2.57,0,0,0,84,51.28c.33-.34.88-1.34.88-4.21s-.55-4-.88-4.32A2.88,2.88,0,0,0,81.84,41.72Z"/><path class="cls-5" d="M93.1,108.46a10.51,10.51,0,0,1,.71-4.23,5,5,0,0,1,2.1-2.38,6.41,6.41,0,0,1,3.52-.69,7.41,7.41,0,0,1,2.74.63,5.37,5.37,0,0,1,2,1.5,7.06,7.06,0,0,1,1.2,2.28,11.75,11.75,0,0,1,.44,3.55,10.61,10.61,0,0,1-.7,4.2,5,5,0,0,1-2.1,2.39,6.34,6.34,0,0,1-3.53.7A6.45,6.45,0,0,1,95,114.63Q93.1,112.67,93.1,108.46Zm2.45.13q0,3.68,1.12,5a3.82,3.82,0,0,0,2.76,1.36,3.4,3.4,0,0,0,2.76-1.08c.74-.77,1.12-2.38,1.12-4.83s-.38-4.11-1.12-4.95a3.86,3.86,0,0,0-2.79-1.36,3.2,3.2,0,0,0-2.62.93C96,104.48,95.55,106.13,95.55,108.59Z"/><path class="cls-5" d="M99.43,117.33a7.37,7.37,0,0,1-5.05-2.07c-1.46-1.5-2.2-3.8-2.2-6.85a11.18,11.18,0,0,1,.78-4.59A6,6,0,0,1,95.42,101a7.22,7.22,0,0,1,4-.8,8.4,8.4,0,0,1,3.09.71,6.45,6.45,0,0,1,2.3,1.78,8.21,8.21,0,0,1,1.38,2.59,12.83,12.83,0,0,1,.48,3.85,11.6,11.6,0,0,1-.77,4.57,6,6,0,0,1-2.46,2.78A7.24,7.24,0,0,1,99.43,117.33Zm-3-14.67h0a4.2,4.2,0,0,0-1.74,2,9.63,9.63,0,0,0-.63,3.86c0,2.53.55,4.37,1.63,5.49a4.43,4.43,0,0,0,.94.72,4.24,4.24,0,0,1-.61-.59c-.92-1-1.37-2.88-1.37-5.59S95.11,104,96.1,103A3,3,0,0,1,96.42,102.66Zm5.87.21a6.21,6.21,0,0,1,.58.57c.92,1,1.36,2.88,1.36,5.6s-.44,4.49-1.36,5.44a4.7,4.7,0,0,1-.58.52l.18-.1a4.2,4.2,0,0,0,1.74-2,9.83,9.83,0,0,0,.62-3.84,11,11,0,0,0-.39-3.26,6.07,6.07,0,0,0-1-2A4.23,4.23,0,0,0,102.29,102.87Zm-2.89.73a2.39,2.39,0,0,0-1.94.67c-.45.47-1,1.62-1,4.36,0,2.89.55,3.94.88,4.32a2.86,2.86,0,0,0,2.08,1,2.53,2.53,0,0,0,2.08-.81c.32-.34.87-1.34.87-4.22s-.54-3.94-.87-4.31A2.9,2.9,0,0,0,99.4,103.6Z"/><path class="cls-6" d="M43.61,63.41a2.59,2.59,0,0,1-2.43-2.55V43.08L29.27,30.92a2.37,2.37,0,1,1,3.38-3.31L45.11,40.32a2.61,2.61,0,0,1,.54.81l.2.47a2.55,2.55,0,0,1,.19,1V61.11A2.27,2.27,0,0,1,43.61,63.41Z"/><path class="cls-6" d="M30.81,49a2.57,2.57,0,0,1-1.68-.77l-7.42-7.48a2.37,2.37,0,1,1,3.36-3.34l7.42,7.48a2.45,2.45,0,0,1,.07,3.45A2.31,2.31,0,0,1,30.81,49Z"/><path class="cls-6" d="M43.61,44.88a2.63,2.63,0,0,1-1-.25,2.54,2.54,0,0,1-1.27-3.26l.19-.45a2.32,2.32,0,0,1,.55-.76l12.45-11.4A2.5,2.5,0,0,1,58,32.43L45.85,43.52A2.29,2.29,0,0,1,43.61,44.88Z"/><path class="cls-6" d="M63.71,95.61a2.59,2.59,0,0,1-2.43-2.56V73.74a2.38,2.38,0,0,1,.2-.95l.19-.45a2.32,2.32,0,0,1,.55-.76l12.45-11.4a2.5,2.5,0,0,1,3.38,3.67L66.14,74.76V93.31A2.28,2.28,0,0,1,63.71,95.61Z"/><path class="cls-6" d="M99.49,97.49a2.6,2.6,0,0,1-2.43-2.56V75.62a2.34,2.34,0,0,1,.2-1l.2-.45a2.16,2.16,0,0,1,.54-.76l12.45-11.41a2.44,2.44,0,0,1,3.44.24,2.42,2.42,0,0,1,0,3.43L101.93,76.63V95.18A2.29,2.29,0,0,1,99.49,97.49Z"/><path class="cls-6" d="M99.49,97.49a2.6,2.6,0,0,1-2.43-2.56V76.38L85.15,64.22a2.38,2.38,0,1,1,3.39-3.32L101,73.61a2.78,2.78,0,0,1,.54.82l.2.47a2.51,2.51,0,0,1,.2,1V95.18A2.29,2.29,0,0,1,99.49,97.49Z"/><path class="cls-6" d="M85.78,95.59A2.59,2.59,0,0,1,83.35,93V80.6a2.28,2.28,0,0,1,2.43-2.3,2.59,2.59,0,0,1,2.44,2.56V93.29A2.29,2.29,0,0,1,85.78,95.59Z"/><path class="cls-6" d="M43.61,106.08a2.53,2.53,0,0,1-1.2-.38L22.5,93.29a2.92,2.92,0,0,1-.28-.21l-.2-.16a2.59,2.59,0,0,1-.94-2V71.34A2.28,2.28,0,0,1,22,69.51l.2-.16a2.39,2.39,0,0,1,.34-.21L42.41,58.81a2.45,2.45,0,0,1,2.41.12l19.9,12.42a2.7,2.7,0,0,1,.34.25l.2.17a2.59,2.59,0,0,1,.88,1.93V93.31a2.28,2.28,0,0,1-.94,1.87l-.2.15a2.61,2.61,0,0,1-.28.17l-19.9,10.33A2.3,2.3,0,0,1,43.61,106.08ZM25.94,89.83l17.67,11,17.67-9.17V74.81l-17.67-11L25.94,73Z"/><path class="cls-6" d="M52,80.52a2.54,2.54,0,0,1-1.19-.37l-8.14-5a2.51,2.51,0,0,1-.93-3.36A2.36,2.36,0,0,1,45,71.05l8.13,5a2.51,2.51,0,0,1,.94,3.36A2.28,2.28,0,0,1,52,80.52Z"/><path class="cls-6" d="M35.56,88.8a2.6,2.6,0,0,1-2.44-2.51L33,77a2.27,2.27,0,0,1,2.38-2.35,2.58,2.58,0,0,1,2.48,2.51L38,86.45A2.28,2.28,0,0,1,35.6,88.8Z"/><path class="cls-6" d="M43.33,94.29A2.61,2.61,0,0,1,41.22,93a2.35,2.35,0,0,1,.9-3.27l8.08-4.22a2.51,2.51,0,0,1,3.32,1.07,2.35,2.35,0,0,1-.89,3.27L44.54,94A2.45,2.45,0,0,1,43.33,94.29Z"/><path class="cls-7" d="M13.58,20.88l74.64,3.91a7.79,7.79,0,0,1,7.31,7.69v17a6.87,6.87,0,0,1-7.31,6.93L13.58,52.49"/><text class="cls-8" transform="matrix(1, 0.05, 0, 1, 19.63, 46.84)">MSV</text><polygon class="cls-1" points="0 0.86 30.3 20.76 30.3 118.74 30.3 127.3 0 98.84 0 0.86"/><polyline class="cls-9" points="1.45 1.81 30.3 20.76 30.3 118.74 30.3 127.3 0.91 99.88"/></svg>