<svg id="Layer_1" data-name="Layer 1" xmlns="http://www.w3.org/2000/svg" viewBox="0 0 128.16 128.16"><defs><style>.cls-1{fill:#f18a00;}.cls-2{fill:gray;}.cls-3{fill:#fff;}</style></defs><path class="cls-1" d="M75.75,7.54a9.24,9.24,0,0,0-1.69-3.1,7.29,7.29,0,0,0-2.83-2,10,10,0,0,0-3.8-.68A9.18,9.18,0,0,0,62.5,3a7.85,7.85,0,0,0-3,3.57,14.15,14.15,0,0,0-1,5.7c0,3.74.91,6.53,2.71,8.28a8.61,8.61,0,0,0,6.21,2.22,9.21,9.21,0,0,0,4.95-1.26,7.8,7.8,0,0,0,3-3.58,14.33,14.33,0,0,0,1-5.66A15.29,15.29,0,0,0,75.75,7.54ZM65,6.81a3.08,3.08,0,0,1,2.38-.94A3.38,3.38,0,0,1,70,7c.4.44,1.07,1.7,1.07,5.26s-.67,4.8-1.08,5.24a3.29,3.29,0,0,1-2.55,1.13,3.32,3.32,0,0,1-2.56-1.13c-.4-.44-1.08-1.7-1.08-5.24C63.79,8.87,64.46,7.43,65,6.81Z"/><polygon points="96.79 1.8 96.79 9.34 86.66 9.34 86.66 1.8 81.23 1.8 81.23 22.43 86.66 22.43 86.66 13.78 96.79 13.78 96.79 22.43 102.22 22.43 102.22 1.8 96.79 1.8"/><path class="cls-1" d="M20.82,7.54a9.44,9.44,0,0,0-1.7-3.1,7.14,7.14,0,0,0-2.83-2,10,10,0,0,0-3.8-.68A9.18,9.18,0,0,0,7.56,3a7.91,7.91,0,0,0-3,3.57,14.16,14.16,0,0,0-1,5.7c0,3.75.9,6.53,2.7,8.28a8.63,8.63,0,0,0,6.21,2.22,9.21,9.21,0,0,0,5-1.26,7.88,7.88,0,0,0,3-3.58,14.52,14.52,0,0,0,.95-5.66A15.63,15.63,0,0,0,20.82,7.54ZM10.08,6.81a3.05,3.05,0,0,1,2.38-.94A3.38,3.38,0,0,1,15.05,7c.4.44,1.08,1.7,1.08,5.26s-.68,4.8-1.08,5.24a3.32,3.32,0,0,1-2.56,1.13,3.29,3.29,0,0,1-2.55-1.13c-.41-.43-1.08-1.7-1.08-5.24C8.86,8.87,9.52,7.43,10.08,6.81Z"/><path class="cls-1" d="M94,37.56a9.44,9.44,0,0,0-1.7-3.1,7.14,7.14,0,0,0-2.83-2,9.8,9.8,0,0,0-3.8-.68A9.12,9.12,0,0,0,80.74,33a7.79,7.79,0,0,0-3,3.56,14.23,14.23,0,0,0-1,5.7c0,3.75.9,6.54,2.7,8.28a8.59,8.59,0,0,0,6.21,2.23,9.19,9.19,0,0,0,5-1.26,7.93,7.93,0,0,0,3-3.58,14.58,14.58,0,0,0,1-5.67A15.61,15.61,0,0,0,94,37.56Zm-10.74-.73a3,3,0,0,1,2.38-.95A3.34,3.34,0,0,1,88.22,37c.4.43,1.08,1.69,1.08,5.25s-.68,4.81-1.08,5.25a3.45,3.45,0,0,1-5.11,0c-.41-.44-1.08-1.7-1.08-5.25C82,38.89,82.69,37.44,83.25,36.83Z"/><path class="cls-1" d="M115.58,112.52a9.71,9.71,0,0,0-1.69-3.1,7.29,7.29,0,0,0-2.83-2,10.07,10.07,0,0,0-3.81-.68,9.15,9.15,0,0,0-4.92,1.25,7.81,7.81,0,0,0-3,3.57,14.16,14.16,0,0,0-1,5.7c0,3.74.91,6.53,2.7,8.28a8.63,8.63,0,0,0,6.21,2.22,9.19,9.19,0,0,0,5-1.26,7.87,7.87,0,0,0,3-3.58,14.52,14.52,0,0,0,1-5.66A15.63,15.63,0,0,0,115.58,112.52Zm-10.74-.73a3.05,3.05,0,0,1,2.38-.94,3.36,3.36,0,0,1,2.59,1.12c.4.44,1.08,1.7,1.08,5.26s-.68,4.8-1.08,5.24a3.45,3.45,0,0,1-5.11,0c-.41-.44-1.08-1.7-1.08-5.24C103.62,113.85,104.28,112.41,104.84,111.79Z"/><path class="cls-2" d="M20.8,47.29A3,3,0,1,0,24.93,43l-9.12-8.73a3,3,0,0,0-4.13,4.32Z"/><path class="cls-2" d="M76.81,59,62.93,72.48,41.61,60.3V40.18L56.25,26a3,3,0,1,0-4.16-4.29L38.61,34.75l-13.47-13A3,3,0,1,0,21,26L35.62,40.18V60.3l-23,13.12a2.42,2.42,0,0,0-.42.29l-.25.2a3,3,0,0,0-1.09,2.31v24.11a3,3,0,0,0,1.16,2.37l.25.19a4,4,0,0,0,.34.23l24.48,14a3,3,0,0,0,3,0l24.47-14,.35-.23.24-.19.12-.11c.09-.09.19-.18.27-.27l.17-.21a2,2,0,0,0,.2-.31,2.53,2.53,0,0,0,.12-.23,2.46,2.46,0,0,0,.14-.38c0-.07,0-.14.07-.22a4,4,0,0,0,.06-.5s0-.09,0-.14V77.52L81,63.34A3,3,0,0,0,76.81,59Zm-38.2,52L16.89,98.65V77.89L38.61,65.48,60.34,77.89V98.65Z"/><path class="cls-2" d="M125,59.11a3,3,0,0,0-4.23-.07L107.33,72.09,93.86,59a3,3,0,0,0-4.17,4.3l14.65,14.18v22.81a3,3,0,0,0,6,0V77.52L125,63.34A3,3,0,0,0,125,59.11Z"/><path class="cls-2" d="M90.47,80.61a3,3,0,0,0-3,3V98.89a3,3,0,0,0,6,0V83.6A3,3,0,0,0,90.47,80.61Z"/><path class="cls-2" d="M50.32,79.92l-10-5.59a3,3,0,1,0-2.91,5.22l10,5.59a2.94,2.94,0,0,0,1.45.38,3,3,0,0,0,1.46-5.6Z"/><path class="cls-2" d="M28.49,79.32h-.06a3,3,0,0,0-2.93,3.05l.22,11.46a3,3,0,0,0,3,2.93h.05a3,3,0,0,0,2.94-3.05l-.22-11.46A3,3,0,0,0,28.49,79.32Z"/><path class="cls-2" d="M46.72,91.71l-9.94,5.71a3,3,0,1,0,3,5.19L49.7,96.9a3,3,0,0,0-3-5.19Z"/><circle class="cls-1" cx="90.26" cy="90.26" r="35.32"/><path class="cls-3" d="M90.26,127.73a37.47,37.47,0,1,1,37.47-37.47h0A37.47,37.47,0,0,1,90.26,127.73Zm0-70.6A33.17,33.17,0,1,0,123.44,90.3v0A33.18,33.18,0,0,0,90.26,57.13Z"/><polygon class="cls-3" points="95.04 108.67 85.53 108.67 85.53 94.79 71.89 94.79 71.89 85.64 85.53 85.64 85.53 71.88 95.04 71.88 95.04 85.64 108.68 85.64 108.68 94.79 95.04 94.79 95.04 108.67"/></svg>