<svg id="Layer_1" data-name="Layer 1" xmlns="http://www.w3.org/2000/svg" xmlns:xlink="http://www.w3.org/1999/xlink" viewBox="0 0 128.16 128.16"><defs><style>.cls-1,.cls-8{fill:#fcc900;}.cls-2{opacity:0.8;fill:url(#linear-gradient);}.cls-3,.cls-7{fill:none;}.cls-3,.cls-4{stroke:#fff;}.cls-3,.cls-4,.cls-5,.cls-6{stroke-miterlimit:10;}.cls-3{stroke-width:5.98px;}.cls-4{fill:#fff;stroke-width:3.99px;}.cls-5{fill:#f18a00;stroke:#f18a00;stroke-width:1.82px;}.cls-6{stroke:#000;stroke-width:1.82px;}.cls-7,.cls-8{stroke:gray;}.cls-7{stroke-linecap:round;stroke-linejoin:round;stroke-width:4.78px;}.cls-8{stroke-linecap:square;stroke-linejoin:bevel;stroke-width:1.62px;opacity:0.34;}</style><linearGradient id="linear-gradient" x1="8.04" y1="57.8" x2="101.71" y2="57.8" gradientUnits="userSpaceOnUse"><stop offset="0.54" stop-color="#fff"/><stop offset="1" stop-color="#fff" stop-opacity="0"/></linearGradient></defs><polygon class="cls-1" points="8.04 1.73 91.53 5.97 91.53 113.88 8.04 94.74 8.04 1.73"/><polygon class="cls-1" points="91.53 69.87 101.71 71.64 101.71 109.75 91.53 107.98 91.53 69.87"/><path class="cls-2" d="M8,1.73,91.53,6V113.88L8,94.74ZM91.53,108l10.18,1.78V71.64L91.53,69.87Z"/><path class="cls-3" d="M67.86,22.62a10.17,10.17,0,0,1,.7-4.15,5,5,0,0,1,2.06-2.34,6.2,6.2,0,0,1,3.46-.68,7.1,7.1,0,0,1,2.69.62,5.12,5.12,0,0,1,1.92,1.47,6.92,6.92,0,0,1,1.18,2.24,11.41,11.41,0,0,1,.43,3.49,10.34,10.34,0,0,1-.69,4.14,5,5,0,0,1-2.06,2.34,6.21,6.21,0,0,1-3.47.69,6.29,6.29,0,0,1-4.33-1.75Q67.86,26.75,67.86,22.62Zm2.41.13c0,2.41.36,4,1.1,4.87A3.78,3.78,0,0,0,74.08,29a3.37,3.37,0,0,0,2.71-1.06c.74-.77,1.1-2.35,1.1-4.75s-.36-4-1.1-4.88a3.78,3.78,0,0,0-2.74-1.33,3.14,3.14,0,0,0-2.57.92Q70.27,19.14,70.27,22.75Z"/><path class="cls-3" d="M86,30.81V16.14l2.53.13v6l9.92.52v-6l2.52.13V31.6l-2.52-.14V24.55L88.55,24v6.91Z"/><path class="cls-3" d="M23.94,20.32a10.36,10.36,0,0,1,.69-4.15,5,5,0,0,1,2.07-2.34,6.11,6.11,0,0,1,3.46-.68,7.34,7.34,0,0,1,2.69.61,5.33,5.33,0,0,1,1.92,1.48A7.12,7.12,0,0,1,36,17.48,11.41,11.41,0,0,1,36.38,21a10.34,10.34,0,0,1-.69,4.14,5,5,0,0,1-2.06,2.34,6.13,6.13,0,0,1-3.47.68,6.26,6.26,0,0,1-4.34-1.74Q23.95,24.46,23.94,20.32Zm2.4.13q0,3.61,1.11,4.86a3.69,3.69,0,0,0,2.71,1.34,3.32,3.32,0,0,0,2.71-1.06c.73-.76,1.1-2.34,1.1-4.74S33.6,16.8,32.87,16a3.74,3.74,0,0,0-2.74-1.33,3.16,3.16,0,0,0-2.57.91Q26.35,16.84,26.34,20.45Z"/><path class="cls-3" d="M82.44,47.39a10.22,10.22,0,0,1,.7-4.16,5,5,0,0,1,2.06-2.34,6.28,6.28,0,0,1,3.46-.68,7.34,7.34,0,0,1,2.69.62,5.33,5.33,0,0,1,1.92,1.47,6.87,6.87,0,0,1,1.18,2.25A11.36,11.36,0,0,1,94.88,48a10.29,10.29,0,0,1-.69,4.13,5,5,0,0,1-2.06,2.35,6.21,6.21,0,0,1-3.47.68,6.33,6.33,0,0,1-4.34-1.75Q82.45,51.51,82.44,47.39Zm2.4.12c0,2.41.37,4,1.11,4.87a3.73,3.73,0,0,0,2.71,1.34,3.33,3.33,0,0,0,2.71-1.06c.74-.76,1.1-2.35,1.1-4.75s-.36-4-1.1-4.87a3.79,3.79,0,0,0-2.74-1.34,3.17,3.17,0,0,0-2.57.92Q84.85,43.9,84.84,47.51Z"/><path class="cls-3" d="M99.7,108.22a10.17,10.17,0,0,1,.7-4.15,5,5,0,0,1,2.06-2.34,6.2,6.2,0,0,1,3.46-.68,7.2,7.2,0,0,1,2.7.62,5.29,5.29,0,0,1,1.91,1.47,6.92,6.92,0,0,1,1.18,2.24,11.48,11.48,0,0,1,.43,3.5,10.29,10.29,0,0,1-.69,4.13,5,5,0,0,1-2.06,2.34,6.21,6.21,0,0,1-3.47.69,6.29,6.29,0,0,1-4.33-1.75Q99.7,112.35,99.7,108.22Zm2.41.13c0,2.41.36,4,1.1,4.87a3.78,3.78,0,0,0,2.71,1.34,3.4,3.4,0,0,0,2.72-1.06c.73-.76,1.09-2.35,1.09-4.75s-.36-4-1.09-4.87a3.79,3.79,0,0,0-2.75-1.34,3.14,3.14,0,0,0-2.57.92Q102.11,104.74,102.11,108.35Z"/><path class="cls-4" d="M51,64.54a3,3,0,0,1-3-3V44.28L36.47,32.46a3,3,0,1,1,4.27-4.19L53,40.77a3.09,3.09,0,0,1,.62.93l.19.47A2.85,2.85,0,0,1,54,43.32V61.55A3,3,0,0,1,51,64.54Z"/><path class="cls-4" d="M38.45,50.36a3,3,0,0,1-2.12-.89L29,42.12a3,3,0,1,1,4.25-4.21l7.29,7.36a3,3,0,0,1-2.13,5.09Z"/><path class="cls-4" d="M51,46.31a3,3,0,0,1-2.73-4.19l.19-.44a3,3,0,0,1,.72-1L61.46,29.46a3,3,0,0,1,4,4.41L53.71,44.67A3,3,0,0,1,51,46.31Z"/><path class="cls-4" d="M70.81,96.19a3,3,0,0,1-3-3v-19A3,3,0,0,1,68.06,73l.19-.44a2.94,2.94,0,0,1,.73-1L81.22,60.35a3,3,0,0,1,4,4.41L73.79,75.26V93.2A3,3,0,0,1,70.81,96.19Z"/><path class="cls-4" d="M106,98a3,3,0,0,1-3-3v-19a3,3,0,0,1,.25-1.21l.19-.44a3.12,3.12,0,0,1,.72-1L116.4,62.2a3,3,0,0,1,4,4.41L109,77.11V95.05A3,3,0,0,1,106,98Z"/><path class="cls-4" d="M106,98a3,3,0,0,1-3-3V77L91.41,65.19A3,3,0,1,1,95.68,61l12.25,12.5a3,3,0,0,1,.62.93l.19.46a3,3,0,0,1,.23,1.16v19A3,3,0,0,1,106,98Z"/><path class="cls-4" d="M92.51,96.17a3,3,0,0,1-3-3V81a3,3,0,0,1,6,0V93.19A3,3,0,0,1,92.51,96.17Z"/><path class="cls-4" d="M51,106.49a3,3,0,0,1-1.58-.46L29.89,93.83a2.88,2.88,0,0,1-.35-.26,3.51,3.51,0,0,1-1.25-2.44V71.85a3,3,0,0,1,1.13-2.34,6.11,6.11,0,0,1,.67-.46L49.67,58.89a3,3,0,0,1,2.95.12L72.19,71.22a2.19,2.19,0,0,1,.39.29,3.56,3.56,0,0,1,1.21,2.41V93.2a3,3,0,0,1-1.24,2.43c-.11.08-.43.3-.56.37L52.42,106.15A2.93,2.93,0,0,1,51,106.49Zm-16.77-17,16.91,10.55,16.64-8.63V75.54L50.91,65,34.27,73.62Z"/><path class="cls-4" d="M59.23,81.35a2.94,2.94,0,0,1-1.55-.44l-8-4.88a3,3,0,0,1,3.11-5.11l8,4.89a3,3,0,0,1-1.56,5.54Z"/><path class="cls-4" d="M43.12,89.5a3,3,0,0,1-3-2.94L40,77.39a3,3,0,0,1,2.93-3,3,3,0,0,1,3,2.94l.17,9.17a3,3,0,0,1-2.93,3Z"/><path class="cls-4" d="M50.77,94.89a3,3,0,0,1-1.39-5.64l7.95-4.15a3,3,0,0,1,2.77,5.3l-8,4.15A3,3,0,0,1,50.77,94.89Z"/><path class="cls-5" d="M67.86,22.62a10.17,10.17,0,0,1,.7-4.15,5,5,0,0,1,2.06-2.34,6.2,6.2,0,0,1,3.46-.68,7.1,7.1,0,0,1,2.69.62,5.12,5.12,0,0,1,1.92,1.47,6.92,6.92,0,0,1,1.18,2.24,11.41,11.41,0,0,1,.43,3.49,10.34,10.34,0,0,1-.69,4.14,5,5,0,0,1-2.06,2.34,6.21,6.21,0,0,1-3.47.69,6.29,6.29,0,0,1-4.33-1.75Q67.86,26.75,67.86,22.62Zm2.41.13c0,2.41.36,4,1.1,4.87A3.78,3.78,0,0,0,74.08,29a3.37,3.37,0,0,0,2.71-1.06c.74-.77,1.1-2.35,1.1-4.75s-.36-4-1.1-4.88a3.78,3.78,0,0,0-2.74-1.33,3.14,3.14,0,0,0-2.57.92Q70.27,19.14,70.27,22.75Z"/><path class="cls-6" d="M86,30.81V16.14l2.53.13v6l9.92.52v-6l2.52.13V31.6l-2.52-.14V24.55L88.55,24v6.91Z"/><path class="cls-5" d="M23.94,20.32a10.36,10.36,0,0,1,.69-4.15,5,5,0,0,1,2.07-2.34,6.11,6.11,0,0,1,3.46-.68,7.34,7.34,0,0,1,2.69.61,5.33,5.33,0,0,1,1.92,1.48A7.12,7.12,0,0,1,36,17.48,11.41,11.41,0,0,1,36.38,21a10.34,10.34,0,0,1-.69,4.14,5,5,0,0,1-2.06,2.34,6.13,6.13,0,0,1-3.47.68,6.26,6.26,0,0,1-4.34-1.74Q23.95,24.46,23.94,20.32Zm2.4.13q0,3.61,1.11,4.86a3.69,3.69,0,0,0,2.71,1.34,3.32,3.32,0,0,0,2.71-1.06c.73-.76,1.1-2.34,1.1-4.74S33.6,16.8,32.87,16a3.74,3.74,0,0,0-2.74-1.33,3.16,3.16,0,0,0-2.57.91Q26.35,16.84,26.34,20.45Z"/><path class="cls-5" d="M82.44,47.39a10.22,10.22,0,0,1,.7-4.16,5,5,0,0,1,2.06-2.34,6.28,6.28,0,0,1,3.46-.68,7.34,7.34,0,0,1,2.69.62,5.33,5.33,0,0,1,1.92,1.47,6.87,6.87,0,0,1,1.18,2.25A11.36,11.36,0,0,1,94.88,48a10.29,10.29,0,0,1-.69,4.13,5,5,0,0,1-2.06,2.35,6.21,6.21,0,0,1-3.47.68,6.33,6.33,0,0,1-4.34-1.75Q82.45,51.51,82.44,47.39Zm2.4.12c0,2.41.37,4,1.11,4.87a3.73,3.73,0,0,0,2.71,1.34,3.33,3.33,0,0,0,2.71-1.06c.74-.76,1.1-2.35,1.1-4.75s-.36-4-1.1-4.87a3.79,3.79,0,0,0-2.74-1.34,3.17,3.17,0,0,0-2.57.92Q84.85,43.9,84.84,47.51Z"/><path class="cls-5" d="M99.7,108.22a10.17,10.17,0,0,1,.7-4.15,5,5,0,0,1,2.06-2.34,6.2,6.2,0,0,1,3.46-.68,7.2,7.2,0,0,1,2.7.62,5.29,5.29,0,0,1,1.91,1.47,6.92,6.92,0,0,1,1.18,2.24,11.48,11.48,0,0,1,.43,3.5,10.29,10.29,0,0,1-.69,4.13,5,5,0,0,1-2.06,2.34,6.21,6.21,0,0,1-3.47.69,6.29,6.29,0,0,1-4.33-1.75Q99.7,112.35,99.7,108.22Zm2.41.13c0,2.41.36,4,1.1,4.87a3.78,3.78,0,0,0,2.71,1.34,3.4,3.4,0,0,0,2.72-1.06c.73-.76,1.09-2.35,1.09-4.75s-.36-4-1.09-4.87a3.79,3.79,0,0,0-2.75-1.34,3.14,3.14,0,0,0-2.57.92Q102.11,104.74,102.11,108.35Z"/><polyline class="cls-7" points="38.6 30.36 50.85 42.86 51.04 43.32 51.04 61.55"/><line class="cls-7" x1="31.16" y1="40.01" x2="38.45" y2="47.37"/><polyline class="cls-7" points="63.48 31.67 51.24 42.88 51.04 43.32"/><polyline class="cls-7" points="83.24 62.56 71 73.77 70.8 74.22 70.8 93.2"/><polyline class="cls-7" points="118.42 64.4 106.18 75.62 105.98 76.06 105.98 95.05"/><polyline class="cls-7" points="93.55 63.1 105.79 75.6 105.98 76.06 105.98 95.05"/><line class="cls-7" x1="92.51" y1="80.96" x2="92.51" y2="93.19"/><polyline class="cls-7" points="51.04 61.55 70.61 73.75 70.81 73.92 70.81 93.2 70.61 93.34 51.04 103.5 31.48 91.29 31.28 91.13 31.28 71.85 31.48 71.7 51.04 61.55"/><line class="cls-7" x1="51.24" y1="73.47" x2="59.24" y2="78.36"/><line class="cls-7" x1="43.12" y1="86.51" x2="42.95" y2="77.33"/><line class="cls-7" x1="58.71" y1="87.75" x2="50.77" y2="91.9"/><polygon class="cls-1" points="8.04 1.73 38.23 21.56 38.23 119.2 38.23 127.73 8.04 99.36 8.04 1.73"/><polyline class="cls-8" points="9.49 2.68 38.23 21.56 38.23 119.2 38.23 127.73 8.95 100.4"/></svg>