<svg id="Layer_1" data-name="Layer 1" xmlns="http://www.w3.org/2000/svg" viewBox="0 0 128.16 128.16"><defs><style>.cls-1{fill:#00aeef;}.cls-2{fill:#fff;}</style></defs><rect class="cls-1" x="3.07" y="2.86" width="123.32" height="123.74" rx="9.58"/><path d="M47.5,111.9a4.93,4.93,0,0,1-2.21-.51,5,5,0,0,1-2.69-5.5c.14-.71,3.37-18-9.83-36.3C22.77,55.7,11.4,51.25,11.28,51.21a5,5,0,0,1-1.36-8.59c1-.79,24.51-19.36,49.24-24,23.43-4.38,35.62,5.76,39.62,9.1.32.26.57.47.76.61l.15.1c2.7,1.82,7.23,4.87,7.23,11.22a29.38,29.38,0,0,1-.58,5c-.26,1.53-.76,4.37-.39,5.16.33.43,1.54,1.62,2.6,2.67,5.13,5,12.87,12.66,12.87,21.14,0,5.26,0,16.22-6.62,22.7-3.47,3.39-8.11,5-13.81,4.91-8-.17-14.19-2.14-19.18-3.72-6.83-2.15-10.3-3.09-14.74-.73-7.73,4.11-15.71,13.3-15.79,13.39A5,5,0,0,1,47.5,111.9Z"/><path class="cls-2" d="M13,46.53s23.24-18.53,47-23,34.19,7.28,36.65,8.94,5.19,3.41,5.19,7.18-2.46,9.84,0,13.1,14.5,12.45,14.5,20.85-.51,22.94-15.32,22.62c-17.23-.39-25.16-9.83-36.37-3.87C56,97,47.5,106.91,47.5,106.91s4.1-19.72-10.67-40.24C25.69,51.2,13,46.53,13,46.53Z"/><path d="M106.42,54.64a37.21,37.21,0,0,1-2.93-3.06c-1.17-1.54-.62-4.68-.14-7.45a26.75,26.75,0,0,0,.54-4.46,8.28,8.28,0,0,0-2.38-5.89v0A6.17,6.17,0,0,0,100,32.38c-.67-.53-1.35-1-2-1.41l-.17-.11c-.19-.13-.57-.45-1-.79-4.13-3.44-15.1-12.57-37.12-8.45-24,4.49-46.94,22.6-47.91,23.37a2,2,0,1,0,2.45,3.07c.23-.18,23.16-18.27,46.18-22.58C80.65,21.7,90.59,30,94.33,33.09l.41.33a4.25,4.25,0,0,1-1.21.8,5.94,5.94,0,0,1-3.14-.15,8.82,8.82,0,0,0-5.83.23c-4.2,1.8-4.76,8.82-4.84,10.21a2,2,0,0,0,1.86,2.06h.11a2,2,0,0,0,2-1.86c.14-2.47,1.07-6.21,2.47-6.81a5.13,5.13,0,0,1,3.44,0,9.59,9.59,0,0,0,5.09.08,7.4,7.4,0,0,0,2.68-1.6,7.79,7.79,0,0,1,.69-.52A4.71,4.71,0,0,1,100,39.67a24.32,24.32,0,0,1-.48,3.79c-.62,3.56-1.32,7.59.88,10.49a37.39,37.39,0,0,0,3.31,3.49l1.86,1.85a3.72,3.72,0,0,1-2.11.69,2.13,2.13,0,0,0-2.29,1.38c-.46,1.34.47,3,2.49,4.32,1.66,1.12,2.75,1.63,3.55,1.63a1.47,1.47,0,0,0,.64-.14c.8-.38,1-1.39,1-2.4.05-.6.14-1.17.23-1.67,2.87,3.34,5.38,7.13,5.38,10.52,0,.6,0,1.29,0,2A4.9,4.9,0,0,1,112,77H98.09a2,2,0,0,0,0,3.93H112a5.91,5.91,0,0,0,2.21-.47c-.43,3.95-1.51,8.25-4.23,10.91-2.11,2.06-5,3-8.78,2.93-7-.15-12.44-1.87-17.24-3.39C77,88.69,71,86.8,63.81,90.63c-8.91,4.74-17.44,14.58-17.8,15a2,2,0,0,0,.21,2.77,1.94,1.94,0,0,0,1.28.48,2,2,0,0,0,1.49-.68c.08-.1,8.39-9.7,16.66-14.09,5.75-3.06,10.5-1.56,17.07.52,5.06,1.6,10.79,3.41,18.34,3.58,4.84.1,8.75-1.26,11.61-4,5.71-5.59,5.71-15.68,5.71-20.53C118.38,66.41,111.18,59.33,106.42,54.64Z"/><path d="M94.4,47.12a3.6,3.6,0,1,0-3.6,3.61A3.6,3.6,0,0,0,94.4,47.12Z"/><path d="M58,62.83h.21a2,2,0,0,0,.21-3.91s-4.29-.55-10.26-5c-3.29-2.44-5.06-8.8-3.78-13.61A7.47,7.47,0,0,1,51,34.44c2.87-.34,5,.15,6.28,1.47C59.48,38.14,59,42.2,59,42.26a2,2,0,0,0,3.88.55c0-.25.82-6-2.73-9.63-2.19-2.24-5.4-3.13-9.56-2.64a11.37,11.37,0,0,0-10,8.79c-1.7,6.4.64,14.37,5.23,17.77C52.7,62.24,57.75,62.81,58,62.83Z"/><path d="M52.59,40.57a2,2,0,0,0-2.73.49,8.8,8.8,0,0,0-.78,7.24,6.12,6.12,0,0,0,3.68,4.09,10,10,0,0,0,3.36.61,7.17,7.17,0,0,0,3.36-.74,1.94,1.94,0,0,0,.77-2.61,2,2,0,0,0-2.63-.85,4.77,4.77,0,0,1-3.54-.1,2.37,2.37,0,0,1-1.26-1.6,4.91,4.91,0,0,1,.26-3.8A2,2,0,0,0,52.59,40.57Z"/></svg>