<svg id="Layer_1" data-name="Layer 1" xmlns="http://www.w3.org/2000/svg" viewBox="0 0 128.16 128.16"><defs><style>.cls-1{fill:#00aeef;}.cls-2,.cls-3{fill:#fff;}.cls-2,.cls-3,.cls-5{fill-rule:evenodd;}.cls-3{stroke:#000;stroke-linecap:round;stroke-linejoin:round;stroke-width:5px;}.cls-4{fill:#231f20;}</style></defs><rect class="cls-1" x="3.07" y="2.86" width="123.32" height="123.74" rx="9.58"/><path class="cls-2" d="M28.87,43.72c0-.06,0-.12,0-.18C32,18.14,54.07,25.19,60,29c1.86,1.21,40.63,32.62,46.54,40.25s13.74,20.22,7.64,29.38S99.84,104.87,88,104.34s-56.47,0-56.47,0-10.7-4.51-9.93-29.89-9.72-29.27-9.72-29.27a14.87,14.87,0,0,1,9.54-3.13c5.72,0,7.44,1.67,7.44,1.67"/><path class="cls-3" d="M62.42,30.92s8.23-9.57,18.34-5.79C100,32.31,91.14,54.39,91.14,54.39"/><path d="M52.53,55.25a1.59,1.59,0,0,1-1-.32,6.26,6.26,0,0,1-2.31-4,7.19,7.19,0,0,1,1.8-5.43,5.73,5.73,0,0,1,4.26-2.35c3.15-.15,5.74,2.4,6,2.69A1.64,1.64,0,1,1,59,48.13a5.76,5.76,0,0,0-3.51-1.7,2.53,2.53,0,0,0-1.85,1.11,4.09,4.09,0,0,0-1.11,2.92,3,3,0,0,0,1,1.84,1.65,1.65,0,0,1,.3,2.3A1.63,1.63,0,0,1,52.53,55.25Z"/><path class="cls-4" d="M93.92,69c-5.26-2.34-11.17-.1-11.42,0a.48.48,0,0,0-.27.27.5.5,0,0,0,0,.38c.12.23,2.81,5.72,6.58,6.94a11.19,11.19,0,0,0,3.26.42,30.85,30.85,0,0,0,7.12-1,.45.45,0,0,0,.34-.47C99.54,75.39,99.28,71.42,93.92,69Z"/><path class="cls-5" d="M108.49,67.75c-2.16-2.79-8.24-8.38-15.36-14.56,1.09-3.54,3-11.81-.27-19.14-2.11-4.77-6-8.25-11.57-10.33-8-3-14.8,1.7-18.06,4.67-1-.8-1.69-1.32-1.9-1.46-4.68-3.05-15.23-6.44-23.57-2.55C32.12,27,28.47,32.31,26.91,40.14a22.56,22.56,0,0,0-5.48-.6,17.35,17.35,0,0,0-11.23,3.8A2.5,2.5,0,0,0,11,47.53c.08,0,8.78,3.89,8.08,26.84-.33,11,1.36,19.71,5,25.83,2.92,4.86,6.08,6.3,6.43,6.44a2.48,2.48,0,0,0,1,.2c.45,0,44.7-.52,56.33,0,2.15.09,4.18.27,6.14.45,2.45.21,4.8.42,7,.42,5.83,0,11-1.4,15.14-7.67C121.53,92.08,118.93,81.22,108.49,67.75ZM80.23,26.54c4.78,1.79,8.1,4.72,9.87,8.72,2.49,5.6,1.45,12.11.51,15.75-9.14-7.86-19.34-16.2-25-20.73C68.52,27.75,74,24.21,80.23,26.54Zm33.06,66.54a7.74,7.74,0,0,0-.17,2.14,10.73,10.73,0,0,1-1.05,2,13.17,13.17,0,0,1-3.13,3.4l-17-16.81a1.64,1.64,0,0,0-2.31,2.34l10.59,10.46L89.74,91.1A1.65,1.65,0,0,0,88.19,94l16,8.49a43.84,43.84,0,0,1-9.71-.2c-2-.17-4.1-.36-6.36-.46-4-.18-11.67-.24-20.08-.24-14.88,0-32.13.19-35.86.23-1.71-1.13-8.69-7-8.07-27.31C24.64,57,20,49,16.47,45.42a14,14,0,0,1,5-.88c3.84,0,5.42.83,5.75,1a2.1,2.1,0,0,0,1.45.74c-.21,6.28,1.48,11.39,5.11,15.2C41.49,69.66,55,68.83,55.61,68.8a1.5,1.5,0,0,0-.21-3c-.12,0-12.7.77-19.48-6.36-3.52-3.7-4.9-9-4.1-15.65s3.1-11.48,6.83-14.21c.4-.24.8-.47,1.22-.67,6.69-3.11,15.66.22,18.72,2.21,1.78,1.2,40.17,32.24,46,39.69,4.7,6.07,9.48,13.92,9.3,20.61A7.88,7.88,0,0,0,113.29,93.08Z"/></svg>