<svg id="Layer_1" data-name="Layer 1" xmlns="http://www.w3.org/2000/svg" viewBox="0 0 128.16 128.16"><defs><style>.cls-1{fill:#62bb46;}.cls-2{fill:#f18a00;}.cls-3{fill:#fff;}</style></defs><path class="cls-1" d="M95.3,127.9H8a7.4,7.4,0,0,1-7-7.8V8.88A7.41,7.41,0,0,1,8,1.19H95.3a7.41,7.41,0,0,1,6.92,7.69V120.1A7.4,7.4,0,0,1,95.3,127.9ZM9.06,119.57H94.18V9.52H9.06Z"/><circle class="cls-2" cx="90.56" cy="90.37" r="35.72"/><path class="cls-3" d="M90.56,128.26a37.89,37.89,0,1,1,37.89-37.89h0A37.89,37.89,0,0,1,90.56,128.26Zm0-71.4A33.55,33.55,0,1,0,124.1,90.41v0A33.54,33.54,0,0,0,90.56,56.86Z"/><path class="cls-3" d="M110.19,85.91h-8.41V72.39A3.38,3.38,0,0,0,98.4,69h-16A3.38,3.38,0,0,0,79,72.39V85.91H70.65c-1.45,0-2,.8-2,1.52a2.85,2.85,0,0,0,.72,1.89l18.66,21.24a3.12,3.12,0,0,0,2.34,1.13,3,3,0,0,0,2.33-1.13l18.62-21.4a2.66,2.66,0,0,0,.77-1.73C112.12,86.71,111.63,85.91,110.19,85.91Z"/><path class="cls-1" d="M16.06,19.93H27.75L33.84,30.5l5.91-10.57H51.33L40.64,36.57l11.7,17.72H40.41l-6.78-11-6.79,11H15L26.83,36.38Z"/></svg>