<svg id="Layer_1" data-name="Layer 1" xmlns="http://www.w3.org/2000/svg" xmlns:xlink="http://www.w3.org/1999/xlink" viewBox="0 0 128.16 128.16"><defs><style>.cls-1,.cls-7{fill:#fcc900;}.cls-2{opacity:0.8;fill:url(#linear-gradient);}.cls-3,.cls-5{fill:#fff;}.cls-3,.cls-4{stroke:#fff;stroke-miterlimit:10;}.cls-3{stroke-width:4px;}.cls-4{fill:#62bb46;stroke-width:2.4px;opacity:0.85;}.cls-5{font-size:25.6px;font-family:Arial-Black, Arial Black;letter-spacing:0.11em;}.cls-6{fill:#00aeef;}.cls-7{stroke:gray;stroke-linecap:square;stroke-linejoin:bevel;stroke-width:1.63px;opacity:0.34;}</style><linearGradient id="linear-gradient" y1="57.13" x2="94" y2="57.13" gradientUnits="userSpaceOnUse"><stop offset="0.54" stop-color="#fff"/><stop offset="1" stop-color="#fff" stop-opacity="0"/></linearGradient></defs><title>ParameterStartValuesFolder</title><polygon class="cls-1" points="0 0.86 83.78 5.12 83.78 113.41 0 94.19 0 0.86"/><polygon class="cls-1" points="83.78 69.24 94 71.02 94 109.27 83.78 107.49 83.78 69.24"/><path class="cls-2" d="M0,.86,83.78,5.12V113.41L0,94.19ZM83.78,107.49,94,109.27V71L83.78,69.24Z"/><path class="cls-3" d="M20.71,54.76l-4-.2A3.58,3.58,0,0,1,13.4,51v-4a3.16,3.16,0,0,1,3.35-3.18l4,.21a3.58,3.58,0,0,1,3.35,3.53v4A3.14,3.14,0,0,1,20.71,54.76Z"/><path class="cls-3" d="M20.71,80.24l-4-.21A3.58,3.58,0,0,1,13.4,76.5v-4a3.14,3.14,0,0,1,3.35-3.17l4,.2a3.58,3.58,0,0,1,3.35,3.53v4A3.16,3.16,0,0,1,20.71,80.24Z"/><path class="cls-3" d="M20.71,105.56l-4-.21a3.58,3.58,0,0,1-3.35-3.53v-4a3.14,3.14,0,0,1,3.35-3.17l4,.21a3.56,3.56,0,0,1,3.35,3.52v4A3.16,3.16,0,0,1,20.71,105.56Z"/><path class="cls-3" d="M111.41,59.52l-77-4A3.57,3.57,0,0,1,31.06,52V48a3.14,3.14,0,0,1,3.35-3.17l77,4a3.56,3.56,0,0,1,3.35,3.52v4A3.16,3.16,0,0,1,111.41,59.52Z"/><path class="cls-3" d="M111.41,85l-77-4a3.56,3.56,0,0,1-3.35-3.52v-4a3.16,3.16,0,0,1,3.35-3.18l77,4a3.57,3.57,0,0,1,3.35,3.52v4A3.14,3.14,0,0,1,111.41,85Z"/><path class="cls-3" d="M111.41,110.31l-77-4a3.58,3.58,0,0,1-3.35-3.53v-4a3.16,3.16,0,0,1,3.35-3.18l77,4a3.57,3.57,0,0,1,3.35,3.52v4A3.14,3.14,0,0,1,111.41,110.31Z"/><path class="cls-3" d="M109.43,37l-90.7-4.75a5.69,5.69,0,0,1-5.33-5.62V16.31a5,5,0,0,1,5.33-5.06L109.43,16a5.69,5.69,0,0,1,5.33,5.62V32A5,5,0,0,1,109.43,37Z"/><path class="cls-4" d="M13.58,20.79l74.64,3.92a7.78,7.78,0,0,1,7.31,7.69v17a6.87,6.87,0,0,1-7.31,6.93L13.58,52.41"/><text class="cls-5" transform="matrix(1, 0.05, 0, 1, 21.94, 46.88)">PSV</text><path class="cls-6" d="M20.71,54.76l-4-.2A3.58,3.58,0,0,1,13.4,51v-4a3.16,3.16,0,0,1,3.35-3.18l4,.21a3.58,3.58,0,0,1,3.35,3.53v4A3.14,3.14,0,0,1,20.71,54.76Z"/><path class="cls-6" d="M20.71,80.24l-4-.21A3.58,3.58,0,0,1,13.4,76.5v-4a3.14,3.14,0,0,1,3.35-3.17l4,.2a3.58,3.58,0,0,1,3.35,3.53v4A3.16,3.16,0,0,1,20.71,80.24Z"/><path class="cls-6" d="M20.71,105.56l-4-.21a3.58,3.58,0,0,1-3.35-3.53v-4a3.14,3.14,0,0,1,3.35-3.17l4,.21a3.56,3.56,0,0,1,3.35,3.52v4A3.16,3.16,0,0,1,20.71,105.56Z"/><path class="cls-6" d="M111.41,59.52l-77-4A3.57,3.57,0,0,1,31.06,52V48a3.14,3.14,0,0,1,3.35-3.17l77,4a3.56,3.56,0,0,1,3.35,3.52v4A3.16,3.16,0,0,1,111.41,59.52Z"/><path class="cls-6" d="M111.41,85l-77-4a3.56,3.56,0,0,1-3.35-3.52v-4a3.16,3.16,0,0,1,3.35-3.18l77,4a3.57,3.57,0,0,1,3.35,3.52v4A3.14,3.14,0,0,1,111.41,85Z"/><path class="cls-6" d="M111.41,110.31l-77-4a3.58,3.58,0,0,1-3.35-3.53v-4a3.16,3.16,0,0,1,3.35-3.18l77,4a3.57,3.57,0,0,1,3.35,3.52v4A3.14,3.14,0,0,1,111.41,110.31Z"/><path class="cls-6" d="M109.43,37l-90.7-4.75a5.69,5.69,0,0,1-5.33-5.62V16.31a5,5,0,0,1,5.33-5.06L109.43,16a5.69,5.69,0,0,1,5.33,5.62V32A5,5,0,0,1,109.43,37Z"/><path class="cls-4" d="M13.58,20.79l74.64,3.92a7.78,7.78,0,0,1,7.31,7.69v17a6.87,6.87,0,0,1-7.31,6.93L13.58,52.41"/><text class="cls-5" transform="matrix(1, 0.05, 0, 1, 21.94, 46.88)">PSV</text><polygon class="cls-1" points="0 0.86 30.3 20.76 30.3 118.74 30.3 127.3 0 98.84 0 0.86"/><polyline class="cls-7" points="1.45 1.81 30.3 20.76 30.3 118.74 30.3 127.3 0.91 99.88"/></svg>