<svg id="Layer_1" data-name="Layer 1" xmlns="http://www.w3.org/2000/svg" viewBox="0 0 128.16 128.16"><defs><style>.cls-1{fill:#00aeef;}.cls-2{fill:#f18a00;}.cls-3{fill:#fff;}</style></defs><rect class="cls-1" x="1.73" y="44.96" width="12.83" height="12.83" rx="4.03"/><rect class="cls-1" x="1.73" y="75.6" width="12.83" height="12.83" rx="4.03"/><rect class="cls-1" x="1.73" y="106.07" width="12.83" height="12.83" rx="4.03"/><rect class="cls-1" x="22.97" y="44.96" width="100.71" height="12.83" rx="4.03"/><rect class="cls-1" x="22.97" y="75.6" width="100.71" height="12.83" rx="4.03"/><rect class="cls-1" x="22.97" y="106.07" width="100.71" height="12.83" rx="4.03"/><rect class="cls-1" x="1.73" y="5.55" width="121.96" height="25.28" rx="6.42"/><circle class="cls-2" cx="88.12" cy="87.65" r="34.18"/><path class="cls-3" d="M88.12,123.9a36.26,36.26,0,1,1,36.26-36.25A36.26,36.26,0,0,1,88.12,123.9Zm0-68.33a32.1,32.1,0,1,0,32.1,32.09h0a32.13,32.13,0,0,0-32.1-32.11Z"/><path class="cls-2" d="M88.61,91.57a4.48,4.48,0,0,1-4.26-4.27,3.63,3.63,0,0,1,1.1-2.6l16.64-18.14L101.85,62a3.25,3.25,0,0,1,.57-2l6.23-8.88a2.58,2.58,0,0,1,2.1-1.07h.36a2.49,2.49,0,0,1,2,1.69l2.8,8.18,8.2,2.82a2.52,2.52,0,0,1,.63,4.45l-8.89,6.24a3.24,3.24,0,0,1-1.81.58h-.16l-4.57-.24L91.12,90.53A3.58,3.58,0,0,1,88.61,91.57Z"/><path class="cls-3" d="M110.75,52h.09a.63.63,0,0,1,.48.4l3.12,9.09,9.08,3.12a.59.59,0,0,1,.16,1l-8.9,6.25a1.24,1.24,0,0,1-.7.22H114l-5.37-.28L89.83,89.1a1.75,1.75,0,0,1-1.25.54A2.33,2.33,0,0,1,87,88.9a1.93,1.93,0,0,1-.38-2.7c0-.07.11-.13.16-.19L104.1,67.2l-.28-5.36a1.23,1.23,0,0,1,.19-.65l6.24-8.91a.63.63,0,0,1,.49-.25m0-3.85A4.46,4.46,0,0,0,107.12,50L100.86,59a5,5,0,0,0-.91,3.18l.19,3.74L84,83.42a5.55,5.55,0,0,0-1.59,3.85,6.42,6.42,0,0,0,6.22,6.23,5.59,5.59,0,0,0,3.85-1.6L110,75.76l3.75.2H114a5,5,0,0,0,2.89-1l8.9-6.24a4.44,4.44,0,0,0,1.09-6.19,4.4,4.4,0,0,0-2.21-1.66l-7.22-2.47L115,51.14a4.44,4.44,0,0,0-3.59-3h-.65Z"/><path class="cls-3" d="M109.62,74.59l-4.45,4.09a18.89,18.89,0,1,1-8-8l4.09-4.45V66A25,25,0,1,0,110,74.64Z"/><path class="cls-3" d="M94.72,88.28l5.44-5a12.49,12.49,0,1,1-7.55-7.57l-5,5.48c-1.34.17-1.29,2.31-2.33,3.35-2.48,2.48-2.48,3.28,0,5.77s3.85,3.32,6.34.84C92.66,90.06,94.55,89.62,94.72,88.28Z"/></svg>