<svg id="Layer_1" data-name="Layer 1" xmlns="http://www.w3.org/2000/svg" viewBox="0 0 128.16 128.16"><defs><style>.cls-1,.cls-2{fill:none;}.cls-1{stroke:gray;stroke-miterlimit:10;stroke-width:5.47px;}.cls-3{fill:gray;}.cls-4{fill:#f18a00;}</style></defs><line class="cls-1" x1="64.73" y1="23.63" x2="64.73" y2="27.63"/><path class="cls-2" d="M67.48,116.73H62v-7.4h5.5Zm0-14.9H62v-7.4h5.5Zm0-14.8H62v-7.4h5.5Zm0-14.9H62v-7.4h5.5Zm0-14.8H62v-7.4h5.5Zm0-14.8H62v-7.4h5.5Z"/><rect class="cls-3" x="61.98" y="94.43" width="5.5" height="7.4"/><rect class="cls-3" x="61.98" y="109.33" width="5.5" height="7.4"/><rect class="cls-3" x="61.98" y="79.63" width="5.5" height="7.4"/><rect class="cls-3" x="61.98" y="64.73" width="5.5" height="7.4"/><rect class="cls-3" x="61.98" y="35.13" width="5.5" height="7.4"/><rect class="cls-3" x="61.98" y="49.93" width="5.5" height="7.4"/><polygon class="cls-3" points="64.78 1.33 57.48 28.63 72.08 28.63 64.78 1.33"/><path class="cls-3" d="M1.38,53.13v5.5h29.3c.1-1.8.2-3.7.3-5.5Z"/><path class="cls-3" d="M1.38,73.63v5.5h29.8c-.2-1.8-.3-3.6-.5-5.5Z"/><path class="cls-3" d="M128.08,53.13H98.58c.1,1.8.3,3.6.3,5.5h29.2Z"/><path class="cls-3" d="M128.08,79.13v-5.5H98.68c-.1,1.8-.3,3.7-.5,5.5Z"/><path class="cls-4" d="M50.48,1.33C40.38,10.83,32.88,30,31,53.13c-.1,1.8-.3,3.6-.3,5.5s-.1,4.1-.1,6.1c0,3,.1,6,.3,8.9.1,1.8.3,3.7.5,5.5,2.2,21.8,9.5,39.9,19.2,49h2.3V1.33Z"/><path class="cls-4" d="M98.88,58.63c-.1-1.8-.2-3.7-.3-5.5-1.9-23.1-9.4-42.3-19.5-51.8h-2.3V128h2.3c9.7-9.1,16.9-27.2,19.2-49,.2-1.8.3-3.6.5-5.5.2-2.9.3-5.9.3-8.9C99,62.63,99,60.63,98.88,58.63Z"/></svg>