<svg id="Layer_1" data-name="Layer 1" xmlns="http://www.w3.org/2000/svg" viewBox="0 0 128.16 128.16"><defs><style>.cls-1{fill:gray;}.cls-2{fill:#c32a1f;}</style></defs><path class="cls-1" d="M93.31,119.46H8.65V10H93.31v6.22h8V9.49c0-4.29-3.09-7.78-6.9-7.78H7.55C3.75,1.71.65,5.2.65,9.49V120c0,4.29,3.1,7.78,6.9,7.78H94.39c3.81,0,6.9-3.49,6.9-7.78V69.65h-8Z"/><path class="cls-1" d="M18.15,24.65H36.53q6,0,9,2.85t3,8.13c0,3.62-1.09,6.44-3.26,8.48s-5.49,3-10,3h-6v13.3H18.15ZM29.26,39.93H32c2.13,0,3.63-.37,4.49-1.11A3.59,3.59,0,0,0,37.75,36a4,4,0,0,0-1.1-2.85c-.75-.79-2.16-1.18-4.22-1.18H29.26Z"/><path class="cls-1" d="M54.45,24.65H70.88A19.67,19.67,0,0,1,78.73,26a12.74,12.74,0,0,1,5,3.78,15.82,15.82,0,0,1,2.83,5.74,26.56,26.56,0,0,1,.88,6.93,24.26,24.26,0,0,1-1.31,8.9,15,15,0,0,1-3.67,5.33,12,12,0,0,1-5,2.84,25.92,25.92,0,0,1-6.6,1H54.45Zm11.06,8.1V52.33h2.71a11.38,11.38,0,0,0,4.93-.77,5.25,5.25,0,0,0,2.3-2.68,17.1,17.1,0,0,0,.83-6.23q0-5.68-1.86-7.79t-6.15-2.1Z"/><path class="cls-1" d="M93.25,24.65h27.34v7.69H104.36v6.31h13.86v7.23H104.36V60.46H93.25Z"/><path class="cls-2" d="M62.19,72.31a1,1,0,0,0-1,.52c-.86,1.32-.78,5,.77,9.61,1.69-5.72,1.69-8.79,1-9.79A.76.76,0,0,0,62.19,72.31ZM76,99.25a19.88,19.88,0,0,0,7.66,2.08c1.15,0,1.56-.26,1.6-.33a.66.66,0,0,0-.21-.55c-.3-.31-1.62-1.32-6.2-1.32Q77.51,99.13,76,99.25Zm-19.34,2.31-.07.14a68,68,0,0,1,7.26-2.55c1.67-.5,3.35-.92,5-1.27l-.11-.07H69a21.55,21.55,0,0,1-4.27-4.47,41.21,41.21,0,0,1-2.47-4.07l-.05.14v-.07c-.8,2.08-1.71,4.22-2.69,6.32s-2,4.13-2.92,6Zm-6,5.65c-4.17,2.33-6.24,4.34-6.44,5.47a.53.53,0,0,0,.18.54.62.62,0,0,0,.44.21C45.16,113.43,46.9,113.09,50.65,107.21Zm-5.82,8.64h0a3,3,0,0,1-2.15-.92,2.93,2.93,0,0,1-.86-2.67c.62-3.47,7.08-7,11.13-9,1.42-2.56,2.89-5.49,4.39-8.71,1.32-2.85,2.52-5.77,3.48-8.49-2.06-4.87-3.66-11.45-1.61-14.6a3.43,3.43,0,0,1,3-1.62,3.15,3.15,0,0,1,2.7,1.35C66.5,73.43,66,78.39,63.42,86a35.37,35.37,0,0,0,3.34,5.9,20.94,20.94,0,0,0,5.65,5.33,42.59,42.59,0,0,1,6.48-.53c4,0,6.64.7,8,2.07a3.07,3.07,0,0,1,.88,2.3c0,.63-.4,2.67-4,2.67-3.27,0-7.86-1.55-11.82-4a58.57,58.57,0,0,0-7.3,1.7,76,76,0,0,0-9.9,3.7c-5.48,9.63-8.29,10.75-9.94,10.75Z"/></svg>