<svg id="Layer_1" data-name="Layer 1" xmlns="http://www.w3.org/2000/svg" viewBox="0 0 128.16 128.16"><defs><style>.cls-1{fill:#e6e7e8;}.cls-2{fill:#62bb46;}.cls-3{fill:#b1d89b;}.cls-4{fill:#00aeef;}.cls-5{fill:#6dcff6;}.cls-6{fill:#6d6e70;}.cls-7{fill:#f18a00;}.cls-8{fill:#fff;}</style></defs><path class="cls-1" d="M34.74,9.25C38.41,5.67,42,3.79,45.52,3.39A19,19,0,0,1,48.14,3H10.51A7.38,7.38,0,0,0,3.16,9.93a174.4,174.4,0,0,0,15.45,27C23.19,25.09,28.5,15.25,34.74,9.25Z"/><path class="cls-2" d="M112.52,91.93c-18.33-1.84-46-4.61-74.35-25.9A106.55,106.55,0,0,1,20.46,48.77C13,71.65,7.65,99.73,3.79,120.72a7.38,7.38,0,0,0,6.72,4.35h107a7.42,7.42,0,0,0,7.4-7.31V93.21c-2.13-.21-4.74-.49-8-.84Z"/><path class="cls-3" d="M3.12,22.65V94.2C6.62,77,10.88,58.93,16.24,43.42A165.66,165.66,0,0,1,3.12,22.65Z"/><path class="cls-4" d="M63.91,15.73c1.6,2.11,3.34,4.73,5.34,7.77,3.17,4.78,7.1,10.73,12.28,17.35a42,42,0,0,0,10.68,9.38l.75.48C103,56.89,115.45,60.22,124.86,62V10.41a7.41,7.41,0,0,0-7.4-7.4H48.94l-.59.34C55.13,4.17,60,10.55,63.91,15.73Z"/><path class="cls-5" d="M41.58,61.5c27,20.35,53.8,23,71.51,24.79l4.39.45c3.14.34,5.51.58,7.38.75V67.79C110.48,65.22,88.55,59,77.06,44.34c-5.31-6.8-9.31-12.85-12.53-17.71-2-3-3.65-5.52-5.13-7.48-3.34-4.42-7.49-9.91-12-10.25-2.6-.18-5.52,1.3-8.72,4.42-6.16,5.93-11.46,16.42-16,29.05A103.52,103.52,0,0,0,41.58,61.5Z"/><path class="cls-6" d="M117.46,1.73H10.51a8.68,8.68,0,0,0-8.68,8.68V117.68a8.68,8.68,0,0,0,8.68,8.68h107a8.71,8.71,0,0,0,8.68-8.6V10.41A8.68,8.68,0,0,0,117.46,1.73Zm7.4,91.48v24.55a7.42,7.42,0,0,1-7.4,7.31H10.51a7.38,7.38,0,0,1-6.72-4.35,7.19,7.19,0,0,1-.67-3V10.41c0-.16,0-.32,0-.48A7.38,7.38,0,0,1,10.51,3h107a7.41,7.41,0,0,1,7.4,7.4V64.55h0V93.21Z"/><g id="Population_Simulation_Import_Ribbon" data-name="Population Simulation Import Ribbon"><circle class="cls-7" cx="89.78" cy="89.88" r="35.68"/><path class="cls-8" d="M89.78,127.73a37.85,37.85,0,1,1,37.85-37.85h0A37.86,37.86,0,0,1,89.78,127.73Zm0-71.32a33.51,33.51,0,1,0,33.51,33.51v0A33.51,33.51,0,0,0,89.78,56.41Z"/><path class="cls-8" d="M88.25,61.47a6.22,6.22,0,0,1,3.42.85A2.62,2.62,0,0,1,93,64.53,1.31,1.31,0,0,1,91.89,66a1,1,0,0,1-.34,0,2.71,2.71,0,0,1-1.93-.92L87.93,63.4a1.36,1.36,0,0,0-.76-.2c-1.85,0-3.14,1.45-4,4.38A119.05,119.05,0,0,0,81.3,85.74a86.78,86.78,0,0,1-2.41,18.44,12.31,12.31,0,0,1-3.73,6.11,8.52,8.52,0,0,1-5.79,2.25,5.75,5.75,0,0,1-3.21-.84,2.5,2.5,0,0,1-1.29-2.09,1.79,1.79,0,0,1,.44-1.17,1.39,1.39,0,0,1,1-.48,2.43,2.43,0,0,1,1.72.84l1.21,1.33a2,2,0,0,0,1.53.76c2.69,0,4.29-3.65,4.9-10.93L76,96.35a28.17,28.17,0,0,1,.2-3.7c0-2.37,0-3.77.24-4.26l.28-3.61.32-3.7A46.49,46.49,0,0,1,79.49,68a12.5,12.5,0,0,1,3.62-4.86A8,8,0,0,1,88.25,61.47Z"/><path class="cls-8" d="M102,78.91c.69-1.93.81-2.57.29-2.89l-.81-.56a.6.6,0,0,1,0-.49,14.43,14.43,0,0,1,4-.64v.2c-.64,1.93-1.17,3.26-2.21,6.15-3.46,9.52-5.06,15.07-5.38,16.07,0,.44,0,.8.2.8a10.52,10.52,0,0,0,3.81-3.13c.33,0,.53,0,.53.44a9.73,9.73,0,0,1-5.67,4.82,1,1,0,0,1-1.09-1,.49.49,0,0,1,0-.12,5.81,5.81,0,0,1,.44-2l1.2-3.46h0c-2.41,3.22-5,6.59-8.39,6.59-1.37,0-2.09-1.12-2.09-2.53a14.63,14.63,0,0,1,4.62-9.08,10.39,10.39,0,0,1,6.23-3.29,2.13,2.13,0,0,1,1.76,1.08Zm-7,8.64a30.21,30.21,0,0,0-5,6.75,7,7,0,0,0-1.08,3.33.72.72,0,0,0,.64.73,9,9,0,0,0,4.7-3.1,15.12,15.12,0,0,0,4.26-6.71c.4-1.48,0-2.53-.93-2.53A4.52,4.52,0,0,0,95,87.55Z"/><path class="cls-8" d="M110.27,87.15l-3.13,9.16c0,.64,0,.84.24.84a13.31,13.31,0,0,0,4-3.09c.32,0,.52.2.48.6a11.64,11.64,0,0,1-6.67,5,1,1,0,0,1-1-1,7.48,7.48,0,0,1,.57-1.85l3.29-9.6h-2.73a.84.84,0,0,1,.4-1l2.77-.48,1.93-3.45a1.24,1.24,0,0,1,1.33.2l-1,3.41h3.82a1,1,0,0,1-.44,1.29Z"/></g></svg>