<svg id="Layer_1" data-name="Layer 1" xmlns="http://www.w3.org/2000/svg" viewBox="0 0 128.16 128.16"><defs><style>.cls-1{fill:gray;}.cls-2{fill:#f18a00;}.cls-3{fill:#fff;}.cls-4{isolation:isolate;}</style></defs><path class="cls-1" d="M93.68,119.43H8.1V8.73H93.68V15h8.09V8.21a7.44,7.44,0,0,0-7-7.85H7A7.44,7.44,0,0,0,0,8.21V120a7.44,7.44,0,0,0,7,7.85h87.8a7.44,7.44,0,0,0,7-7.85V78.17H93.68Z"/><circle class="cls-2" cx="90.04" cy="89.54" r="35.91"/><path class="cls-3" d="M90,51.44a38.1,38.1,0,1,1-38.1,38.1h0A38.14,38.14,0,0,1,90,51.44Zm0,71.83A33.73,33.73,0,1,0,56.31,89.54h0A33.77,33.77,0,0,0,90,123.27Z"/><path class="cls-3" d="M69.13,88.37l18.73,21.55a3,3,0,0,0,2.34,1.14,3.12,3.12,0,0,0,2.35-1.14l18.76-21.55a2.79,2.79,0,0,0,.73-1.7c0-.73-.52-1.54-2-1.54h-8.41V71.54a3.4,3.4,0,0,0-3.4-3.4H82.15a3.4,3.4,0,0,0-3.39,3.4V85.13H70.3c-1.45,0-1.94.81-1.94,1.54A2.6,2.6,0,0,0,69.13,88.37Z"/><g class="cls-4"><path class="cls-1" d="M16.55,46.39V21.78h8a28.65,28.65,0,0,1,5.91.37A6.43,6.43,0,0,1,34,24.56a7.62,7.62,0,0,1,1.43,4.79,8,8,0,0,1-.83,3.81,6.54,6.54,0,0,1-2.09,2.42,7.12,7.12,0,0,1-2.57,1.17,29,29,0,0,1-5.16.35H21.51v9.29Zm5-20.45v7h2.72a13.17,13.17,0,0,0,3.93-.38,3.24,3.24,0,0,0,1.55-1.21,3.29,3.29,0,0,0,.57-1.92,3.2,3.2,0,0,0-.79-2.21,3.42,3.42,0,0,0-2-1.09,24,24,0,0,0-3.58-.17Z"/><path class="cls-1" d="M39.54,46.39V21.78h5V32.7l10-10.92h6.68L52,31.36l9.77,15H55.3L48.54,34.84l-4,4.11v7.44Z"/><path class="cls-1" d="M64.23,46.39V21.78h7.44l4.47,16.78,4.41-16.78H88V46.39H83.39V27L78.5,46.39H73.72L68.85,27V46.39Z"/><path class="cls-1" d="M93.07,46.39V22h5V42.24H110.4v4.15Z"/></g></svg>