<svg id="Layer_1" data-name="Layer 1" xmlns="http://www.w3.org/2000/svg" viewBox="0 0 128.16 128.16"><defs><style>.cls-1{fill:#00aeef;}.cls-2{fill:#f18a00;}</style></defs><g id="Create_Ribbon" data-name="Create Ribbon"><g id="Population"><rect class="cls-1" x="47.38" y="49.97" width="76.71" height="76.71" rx="7.81"/><path class="cls-2" d="M45.23,127a12.76,12.76,0,0,1-2.91-8V57.82a12.57,12.57,0,0,1,.56-3.7H11.72a7.65,7.65,0,0,0-7.65,7.61v57.7a7.65,7.65,0,0,0,7.65,7.65H43.84Z"/><path class="cls-1" d="M85.76,1.08A19.93,19.93,0,1,0,105.68,21h0A19.92,19.92,0,0,0,85.76,1.08Z"/><path class="cls-2" d="M40.57,7.89A19.09,19.09,0,1,0,59.66,27v0A19.1,19.1,0,0,0,40.57,7.89Z"/></g></g></svg>