<svg id="Layer_1" data-name="Layer 1" xmlns="http://www.w3.org/2000/svg" viewBox="0 0 128.16 128.16"><defs><style>.cls-1{fill:#e6e6e6;}.cls-2{fill:#62bb46;}.cls-3{fill:#b1d89b;}.cls-4{fill:#00aeef;}.cls-5{fill:#6dcff6;}.cls-6{fill:#6d6f70;}.cls-7{fill:#f18a00;}.cls-8{fill:#fff;}</style></defs><path class="cls-1" d="M35,10.08c3.77-3.68,7.4-5.62,11-5.94H10.86a7.29,7.29,0,0,0-7.27,7A172.79,172.79,0,0,0,19,38C23.51,26.06,28.81,16.15,35,10.08Z"/><path class="cls-2" d="M112.51,92.58C94.23,90.76,66.62,88,38.4,66.76A105.54,105.54,0,0,1,20.8,49.69C13.4,72.52,8.09,100.45,4.25,121.31a7.29,7.29,0,0,0,6.61,4.25H117.3a7.29,7.29,0,0,0,7.28-7.27V93.8c-2.13-.19-4.72-.45-7.79-.78Z"/><path class="cls-3" d="M3.58,23.83V95c3.49-17.1,7.72-35.12,13-50.6A164.57,164.57,0,0,1,3.58,23.83Z"/><path class="cls-4" d="M64.12,16.5c1.59,2.1,3.32,4.71,5.32,7.74C72.58,29,76.5,34.93,81.66,41.53c10,12.67,29.47,18.4,42.92,20.93v-51a7.29,7.29,0,0,0-7.28-7.27H49l-.13.07C55.45,5.14,60.24,11.41,64.12,16.5Z"/><path class="cls-5" d="M77.24,45C71.93,38.21,68,32.18,64.75,27.34c-2-2.95-3.63-5.49-5.11-7.44-3.51-4.62-7.5-9.86-12-10.19C45.07,9.52,42.15,11,39,14.1c-6.15,6-11.44,16.57-16,29.25A102.69,102.69,0,0,0,41.78,62.27c27,20.29,53.64,23,71.29,24.72l4.32.44c3,.33,5.36.56,7.19.73v-20c-3-.54-6.33-1.24-9.83-2.14C97.3,61.56,84.68,54.47,77.24,45Z"/><path class="cls-6" d="M117.3,2.86H10.86A8.57,8.57,0,0,0,2.3,11.41V118.29a8.58,8.58,0,0,0,8.56,8.55H117.3a8.58,8.58,0,0,0,8.56-8.55V11.41A8.57,8.57,0,0,0,117.3,2.86Zm7.28,59.6v2.75h0v53.08a7.29,7.29,0,0,1-7.28,7.27H10.86a7.29,7.29,0,0,1-6.61-4.25,7.1,7.1,0,0,1-.67-3V11.41c0-.09,0-.17,0-.26a7.29,7.29,0,0,1,7.27-7H117.3a7.29,7.29,0,0,1,7.28,7.27Z"/><circle class="cls-7" cx="87.42" cy="87.66" r="35.51"/><path class="cls-8" d="M87.42,125.33a37.67,37.67,0,1,1,37.67-37.67h0A37.71,37.71,0,0,1,87.42,125.33Zm0-71a33.35,33.35,0,1,0,33.35,33.35h0A33.38,33.38,0,0,0,87.42,54.31Z"/><rect class="cls-8" x="80.75" y="78.49" width="29.33" height="29.33" rx="2.99"/><path class="cls-8" d="M79.93,107.93a4.86,4.86,0,0,1-1.11-3.11V81.48A4.86,4.86,0,0,1,79,80.06H67.12A2.92,2.92,0,0,0,64.2,83V105A2.92,2.92,0,0,0,67.12,108H79.4Z"/><path class="cls-8" d="M95.42,59.77A7.62,7.62,0,1,0,103,67.43v0A7.63,7.63,0,0,0,95.42,59.77Z"/><path class="cls-8" d="M78.15,62.39a7.29,7.29,0,1,0,7.29,7.29h0A7.31,7.31,0,0,0,78.15,62.39Z"/><path class="cls-7" d="M86.42,94.73l10.34,11.9a1.68,1.68,0,0,0,1.29.62,1.72,1.72,0,0,0,1.3-.62l10.34-11.9a1.46,1.46,0,0,0,.42-1c0-.41-.28-.85-1.07-.85h-4.66v-7.5a1.89,1.89,0,0,0-1.89-1.89H93.61a1.88,1.88,0,0,0-1.88,1.89v7.5H87.06c-.79,0-1.07.44-1.07.85A1.43,1.43,0,0,0,86.42,94.73Z"/></svg>