<svg id="Layer_1" data-name="Layer 1" xmlns="http://www.w3.org/2000/svg" viewBox="0 0 128.16 128.16"><defs><style>.cls-1{fill:#00aeef;}.cls-2{fill:#f18a00;}.cls-3{fill:#fff;}</style></defs><path class="cls-1" d="M90.13,126.68H7.81c-3.95,0-7.16-3.48-7.16-7.77V8.42C.65,4.14,3.86.65,7.81.65H97.92c3.94,0,7.16,3.49,7.16,7.77V112C105.08,116.27,94.08,126.68,90.13,126.68ZM8.94,118.4H96.79V8.94H8.94Z"/><circle class="cls-2" cx="84.39" cy="84.39" r="41.87"/><path class="cls-3" d="M84.39,128.81a44.42,44.42,0,1,1,44.42-44.42A44.47,44.47,0,0,1,84.39,128.81Zm0-83.75a39.33,39.33,0,1,0,39.32,39.33A39.37,39.37,0,0,0,84.39,45.06Z"/><path class="cls-3" d="M83.34,71V61.67a3.67,3.67,0,0,0-1.07-2.58,3.66,3.66,0,0,0-5.15,0l-20,19.7a4.08,4.08,0,0,0,0,5.81l20,19.68a3.65,3.65,0,0,0,6.22-2.57V92.65c10,.25,20.94,2.06,29.12,14.52v-3.64A32.75,32.75,0,0,0,83.34,71Z"/></svg>