<svg id="Layer_1" data-name="Layer 1" xmlns="http://www.w3.org/2000/svg" viewBox="0 0 128.16 128.16"><defs><style>.cls-1{fill:#00aeef;}.cls-2{fill:#f18a00;}.cls-3{fill:#fff;}</style></defs><path class="cls-1" d="M90.13,126.68H7.81c-3.95,0-7.16-3.48-7.16-7.77V8.42C.65,4.14,3.86.65,7.81.65H97.92c3.94,0,7.16,3.49,7.16,7.77V112C105.08,116.27,94.08,126.68,90.13,126.68ZM8.94,118.4H96.79V8.94H8.94Z"/><circle class="cls-2" cx="84.39" cy="84.39" r="41.87"/><path class="cls-3" d="M84.39,128.81a44.42,44.42,0,1,1,44.42-44.42A44.47,44.47,0,0,1,84.39,128.81Zm0-83.75a39.33,39.33,0,1,0,39.32,39.33A39.37,39.37,0,0,0,84.39,45.06Z"/><path class="cls-3" d="M98.26,61.7,84.39,75.58,70.51,61.7a6.23,6.23,0,0,0-8.81,8.81L75.58,84.39,61.7,98.26a6.23,6.23,0,0,0,8.81,8.82h0L84.39,93.2l13.87,13.87h0a6.24,6.24,0,0,0,8.82-8.82L93.2,84.39l13.87-13.87h0a6.23,6.23,0,0,0-8.82-8.81Z"/></svg>