<svg id="Layer_1" data-name="Layer 1" xmlns="http://www.w3.org/2000/svg" xmlns:xlink="http://www.w3.org/1999/xlink" viewBox="0 0 128.16 128.16"><defs><style>.cls-1{fill:none;}.cls-2{clip-path:url(#clip-path);}.cls-3{fill:#00aeef;}.cls-4,.cls-5{fill:#62bb46;}.cls-5{stroke:#62bb46;stroke-linecap:round;stroke-linejoin:round;stroke-width:0.13px;}</style><clipPath id="clip-path"><rect class="cls-1" width="128.16" height="128.16"/></clipPath></defs><g class="cls-2"><path class="cls-3" d="M117.82,123.83c-6.19,4.16-19.72,4.33-21.67,4.33s-15.48-.17-21.67-4.33V115c6.19,4.16,19.72,4.33,21.67,4.33s15.48-.17,21.67-4.33Z"/><path class="cls-3" d="M96.15,116.24c12,0,21.67-2.77,21.67-6.19s-9.7-6.19-21.67-6.19-21.67,2.78-21.67,6.19S84.18,116.24,96.15,116.24Z"/><path class="cls-3" d="M44,27.28c-6.19,4.15-19.72,4.32-21.67,4.32S6.85,31.43.66,27.28V18.45c6.19,4.16,19.72,4.33,21.67,4.33S37.81,22.61,44,18.45Z"/><path class="cls-3" d="M22.33,19.69c12,0,21.67-2.78,21.67-6.19S34.29,7.31,22.33,7.31.66,10.08.66,13.5,10.36,19.69,22.33,19.69Z"/><path class="cls-4" d="M114.77,96.71c-10.11,6.8-32.22,7.07-35.41,7.07S54.07,103.51,44,96.71V82.3c10.12,6.79,32.23,7.07,35.41,7.07s25.3-.28,35.41-7.07Z"/><path class="cls-4" d="M79.36,84.31c19.56,0,35.41-4.53,35.41-10.11S98.92,64.08,79.36,64.08,44,68.61,44,74.2,59.81,84.31,79.36,84.31Z"/><path class="cls-3" d="M87.69,1.57c-6.76-.13-12.63,2.1-13.11,5a2,2,0,0,0,0,.81c.71-2.78,6.45-4.15,13-4C93.77,3.44,98.5,4.69,99,7.19a1.52,1.52,0,0,0,.06-.2C99.54,4.12,94.45,1.69,87.69,1.57Z"/><path class="cls-4" d="M56.17,63.58c7.58-1.39,13.55-5.4,13.33-8.95a3,3,0,0,0-.25-1c-.06,3.49-5.91,7.35-13.31,8.71-6.86,1.26-12.67-.06-13.89-2.95,0,.08,0,.17,0,.25C42.26,63.22,48.58,65,56.17,63.58Z"/><path class="cls-4" d="M100.45,63.58c-5.16-.69-8.8-3.86-8.12-7.08a3.41,3.41,0,0,1,.31-.88c-.47,3.14,3.11,6.18,8.15,6.85a12.34,12.34,0,0,0,11.93-5.54C112.07,61.72,105.74,64.29,100.45,63.58Z"/><path class="cls-4" d="M106.21,63.5c5.29-1.86,8.64-6,7.48-9.36a4.3,4.3,0,0,0-.45-.88c.93,3.27-2.38,7.3-7.55,9.12-4.78,1.68-11-.84-12.71-3.45a1.55,1.55,0,0,0,.06.23C94.2,62.47,100.91,65.35,106.21,63.5Z"/><path class="cls-5" d="M63.15,39l-.14,0c-2.82-.77-5.11-1.42-5.76-1.69a3.69,3.69,0,0,1-.69-.41l0,0L68.2,33.72l.11,0,6.4,1.84.11,0Z"/><path class="cls-5" d="M63.15,26.37l-.14,0c-2.82-.77-5.11-1.42-5.76-1.69a3.69,3.69,0,0,1-.69-.41l0,0L68.2,21.13l.11,0L74.71,23l.11,0Z"/><path class="cls-3" d="M55.76,17.17V23.6s12.07-3.48,14.53-4.21c5.21-1.56,3.35-11.12,3.35-11.12s-.3,3.48-5.48,5.12C63.36,14.9,55.76,17.17,55.76,17.17Z"/><path class="cls-3" d="M56,35.83c2.16-.55,17.82-4.56,19.68-5.33a2.11,2.11,0,0,0,1.53-2.24V23.68a.19.19,0,0,0-.25-.19l-21.06,6a.2.2,0,0,0-.14.19v5.93A.19.19,0,0,0,56,35.83Z"/><path class="cls-3" d="M55.76,48.56S73.69,44,75.68,43.16a2.11,2.11,0,0,0,1.53-2.24V36.08L55.76,42.22Z"/><path class="cls-4" d="M67.87,54.19s-8.19-1.87-10.18-2.7a2.53,2.53,0,0,1-1.54-1.87l6.6-1.7a10.12,10.12,0,0,1,4.15,1.66C68.53,50.86,67.87,54.19,67.87,54.19Z"/><path class="cls-5" d="M88.13,39l-.14,0c-2.82-.77-5.12-1.42-5.76-1.69a3.4,3.4,0,0,1-.69-.41l0,0,11.68-3.07.11,0,6.4,1.84.11,0Z"/><path class="cls-5" d="M88.13,26.37l-.14,0c-2.82-.77-5.12-1.42-5.76-1.69a3.4,3.4,0,0,1-.69-.41l0,0,11.68-3.07.11,0L99.69,23l.11,0Z"/><path class="cls-3" d="M80.74,17.17V23.6s12.07-3.48,14.53-4.21c5.21-1.56,3.35-11.12,3.35-11.12s-.3,3.48-5.49,5.12C88.34,14.9,80.74,17.17,80.74,17.17Z"/><path class="cls-3" d="M81,35.83c2.15-.55,17.82-4.56,19.67-5.33a2.11,2.11,0,0,0,1.54-2.24V23.68a.2.2,0,0,0-.25-.19l-21.06,6a.18.18,0,0,0-.14.19v5.93A.19.19,0,0,0,81,35.83Z"/><path class="cls-3" d="M80.74,48.56s17.92-4.57,19.91-5.4a2.11,2.11,0,0,0,1.54-2.24V36.08L80.74,42.22Z"/><path class="cls-4" d="M92.85,54.19s-8.19-1.87-10.18-2.7a2.53,2.53,0,0,1-1.54-1.87l6.6-1.7a10.12,10.12,0,0,1,4.15,1.66C93.51,50.86,92.85,54.19,92.85,54.19Z"/></g></svg>