<svg id="Layer_1" data-name="Layer 1" xmlns="http://www.w3.org/2000/svg" viewBox="0 0 128.16 128.16"><defs><style>.cls-1{fill:#00aeef;}.cls-2{fill:#f18a00;}.cls-3{fill:#fff;}</style></defs><g id="Create_Ribbon" data-name="Create Ribbon"><g id="Protocol"><path class="cls-1" d="M117.71,63.8A54.37,54.37,0,1,1,63.34,9.43,54.37,54.37,0,0,1,117.71,63.8ZM.62,63.8A62.72,62.72,0,1,0,63.34,1.08h0A62.72,62.72,0,0,0,.62,63.8Z"/><path class="cls-1" d="M65.42,18.5a6.27,6.27,0,0,1,6.27,6.27V66.12a6.27,6.27,0,0,1-6.23,6.31H30.9a6.27,6.27,0,1,1,0-12.54H59.14V24.77a6.28,6.28,0,0,1,6.28-6.27Z"/><circle class="cls-2" cx="88.99" cy="89.45" r="35.47"/><path class="cls-3" d="M89,127.08a37.63,37.63,0,1,1,37.63-37.63h0A37.63,37.63,0,0,1,89,127.08Zm0-70.91A33.32,33.32,0,1,0,122.3,89.49v0A33.31,33.31,0,0,0,89,56.17Z"/><polygon class="cls-3" points="93.98 76.98 85.51 76.98 86.39 68.11 93.14 68.11 93.98 76.98"/><path class="cls-3" d="M111.08,93.6V86.85l-6.2-.61a15.79,15.79,0,0,0-1.62-4.09l4.1-5-4.75-4.79-4.87,4a15.69,15.69,0,0,0-4-1.8l-.61-6.46H86.39l-.62,6.27A15.66,15.66,0,0,0,81.7,76l-5-4.12-4.79,4.75,4,4.85a16.08,16.08,0,0,0-1.84,4l-6.4.63v6.75l6.11.58a16.16,16.16,0,0,0,1.58,4.25l-4,4.88,4.75,4.76,4.64-3.83A16.1,16.1,0,0,0,85,105.39l.61,6.15h6.75l.57-6a15.69,15.69,0,0,0,4.31-1.68l4.83,3.93,4.75-4.75L103,98.38a15.9,15.9,0,0,0,1.81-4.18ZM83.84,95.39a8,8,0,0,1-.21-11.3l.21-.2a8,8,0,1,1,0,11.5Z"/></g></g></svg>