<svg id="Layer_1" data-name="Layer 1" xmlns="http://www.w3.org/2000/svg" xmlns:xlink="http://www.w3.org/1999/xlink" viewBox="0 0 31.68 31.68"><defs><style>.cls-1,.cls-7{fill:#fcc900;}.cls-2{opacity:0.8;fill:url(#linear-gradient);}.cls-3,.cls-5{fill:#fff;}.cls-3{stroke:#fff;stroke-miterlimit:10;stroke-width:1.5px;}.cls-4{fill:#f18a00;}.cls-6{fill:#00aeef;}.cls-7{stroke:gray;stroke-linecap:square;stroke-linejoin:bevel;stroke-width:0.41px;opacity:0.34;}</style><linearGradient id="linear-gradient" y1="14.14" x2="23.5" y2="14.14" gradientUnits="userSpaceOnUse"><stop offset="0.54" stop-color="#fff"/><stop offset="1" stop-color="#fff" stop-opacity="0"/></linearGradient></defs><polygon class="cls-1" points="0 0.07 20.95 1.13 20.95 28.21 0 23.4 0 0.07"/><polygon class="cls-1" points="20.95 17.16 23.5 17.61 23.5 27.17 20.95 26.73 20.95 17.16"/><path class="cls-2" d="M0,.07,21,1.13V28.21L0,23.4ZM21,26.73l2.55.44V17.61L21,17.16Z"/><g id="Protocol"><path class="cls-3" d="M26.67,16.22A10.22,10.22,0,0,1,15.79,26.54,11.6,11.6,0,0,1,4.9,15.08,10.22,10.22,0,0,1,15.79,4.77,11.59,11.59,0,0,1,26.67,16.22ZM3.22,15A13.41,13.41,0,0,0,15.79,28.22,11.81,11.81,0,0,0,28.35,16.31,13.4,13.4,0,0,0,15.79,3.09,11.81,11.81,0,0,0,3.22,15Z"/><path class="cls-3" d="M16.2,6.61a1.33,1.33,0,0,1,1.26,1.32v8.28A1.18,1.18,0,0,1,16.2,17.4L9.29,17A1.34,1.34,0,0,1,8,15.71a1.18,1.18,0,0,1,1.25-1.19l5.66.3v-7A1.17,1.17,0,0,1,16.2,6.61Z"/><ellipse class="cls-4" cx="20.92" cy="21.06" rx="6.92" ry="7.29" transform="translate(-8.76 20.58) rotate(-44.25)"/><path class="cls-5" d="M20.92,28.6a8,8,0,0,1-7.53-7.93,7.08,7.08,0,0,1,7.53-7.14,8,8,0,0,1,7.54,7.93A7.09,7.09,0,0,1,20.92,28.6Zm0-14.21a6.28,6.28,0,0,0-6.67,6.32,7.12,7.12,0,0,0,6.67,7,6.27,6.27,0,0,0,6.67-6.32A7.11,7.11,0,0,0,20.92,14.39Z"/><polygon class="cls-5" points="21.92 18.61 20.23 18.53 20.4 16.76 21.75 16.83 21.92 18.61"/><polygon class="cls-5" points="19.83 18.61 18.63 19.74 17.5 18.31 18.46 17.4 19.83 18.61"/><polygon class="cls-5" points="22.16 23.68 23.36 22.54 24.5 23.98 23.54 24.88 22.16 23.68"/><polygon class="cls-5" points="18.42 20.08 18.42 21.78 16.65 21.51 16.65 20.16 18.42 20.08"/><polygon class="cls-5" points="23.57 22.2 23.57 20.5 25.35 20.77 25.35 22.12 23.57 22.2"/><polygon class="cls-5" points="18.52 22.18 19.72 23.44 18.35 24.5 17.39 23.49 18.52 22.18"/><polygon class="cls-5" points="23.47 20.1 22.27 18.84 23.65 17.78 24.61 18.79 23.47 20.1"/><polygon class="cls-5" points="20.07 23.67 21.77 23.75 21.6 25.52 20.25 25.45 20.07 23.67"/><polygon class="cls-5" points="21.92 18.61 20.23 18.53 20.4 16.76 21.75 16.83 21.92 18.61"/><path class="cls-5" d="M23.25,19a3.1,3.1,0,1,1-4.5,4.26A3.1,3.1,0,1,1,23.25,19Zm-3.4.92a1.67,1.67,0,1,0,2.3.12A1.62,1.62,0,0,0,19.85,19.93Z"/></g><g id="Protocol-2" data-name="Protocol"><path class="cls-6" d="M26.67,16.22A10.22,10.22,0,0,1,15.79,26.54,11.6,11.6,0,0,1,4.9,15.08,10.22,10.22,0,0,1,15.79,4.77,11.59,11.59,0,0,1,26.67,16.22ZM3.22,15A13.41,13.41,0,0,0,15.79,28.22,11.81,11.81,0,0,0,28.35,16.31,13.4,13.4,0,0,0,15.79,3.09,11.81,11.81,0,0,0,3.22,15Z"/><path class="cls-6" d="M16.2,6.61a1.33,1.33,0,0,1,1.26,1.32v8.28A1.18,1.18,0,0,1,16.2,17.4L9.29,17A1.34,1.34,0,0,1,8,15.71a1.18,1.18,0,0,1,1.25-1.19l5.66.3v-7A1.17,1.17,0,0,1,16.2,6.61Z"/><ellipse class="cls-4" cx="20.92" cy="21.06" rx="6.92" ry="7.29" transform="translate(-8.76 20.58) rotate(-44.25)"/><path class="cls-5" d="M20.92,28.6a8,8,0,0,1-7.53-7.93,7.08,7.08,0,0,1,7.53-7.14,8,8,0,0,1,7.54,7.93A7.09,7.09,0,0,1,20.92,28.6Zm0-14.21a6.28,6.28,0,0,0-6.67,6.32,7.12,7.12,0,0,0,6.67,7,6.27,6.27,0,0,0,6.67-6.32A7.11,7.11,0,0,0,20.92,14.39Z"/><polygon class="cls-5" points="21.92 18.61 20.23 18.53 20.4 16.76 21.75 16.83 21.92 18.61"/><polygon class="cls-5" points="19.83 18.61 18.63 19.74 17.5 18.31 18.46 17.4 19.83 18.61"/><polygon class="cls-5" points="22.16 23.68 23.36 22.54 24.5 23.98 23.54 24.88 22.16 23.68"/><polygon class="cls-5" points="18.42 20.08 18.42 21.78 16.65 21.51 16.65 20.16 18.42 20.08"/><polygon class="cls-5" points="23.57 22.2 23.57 20.5 25.35 20.77 25.35 22.12 23.57 22.2"/><polygon class="cls-5" points="18.52 22.18 19.72 23.44 18.35 24.5 17.39 23.49 18.52 22.18"/><polygon class="cls-5" points="23.47 20.1 22.27 18.84 23.65 17.78 24.61 18.79 23.47 20.1"/><polygon class="cls-5" points="20.07 23.67 21.77 23.75 21.6 25.52 20.25 25.45 20.07 23.67"/><polygon class="cls-5" points="21.92 18.61 20.23 18.53 20.4 16.76 21.75 16.83 21.92 18.61"/><path class="cls-5" d="M23.25,19a3.1,3.1,0,1,1-4.5,4.26A3.1,3.1,0,1,1,23.25,19Zm-3.4.92a1.67,1.67,0,1,0,2.3.12A1.62,1.62,0,0,0,19.85,19.93Z"/></g><polygon class="cls-1" points="0 0.07 7.57 5.04 7.57 29.54 7.57 31.68 0 24.56 0 0.07"/><polyline class="cls-7" points="0.36 0.31 7.57 5.04 7.57 29.54 7.57 31.68 0.23 24.82"/></svg>