<svg id="Layer_1" data-name="Layer 1" xmlns="http://www.w3.org/2000/svg" viewBox="0 0 128.16 128.16"><defs><style>.cls-1{fill:#00aeef;}.cls-2{fill:#fff;}</style></defs><rect class="cls-1" x="2.42" y="2.21" width="123.32" height="123.74" rx="9.58"/><path class="cls-2" d="M75.31,118.37A41.61,41.61,0,0,1,65.78,117c-15.37-3.69-27.69-19.44-34.3-27.91l-1-1.24c-2.74-3.48-3.71-6.75-2.89-9.73s3.58-5.57,7.89-7.22A79.91,79.91,0,0,1,45.17,68c-.06-5.16,1.62-7.8,3.08-9.12-.34-.65-.73-1.32-1.14-2a49.57,49.57,0,0,0-3.27-4.63,45.28,45.28,0,0,1-6.13-9.78c-2-1.27-7.55-5.66-10.31-16.25-1.55-6-1.39-10.13.51-12.77s4.7-3.06,7.28-3.23c4.35-.31,8.46,4.44,10,6.49,2.42.09,5.55,1.25,9.33,4.79,7.44,7,9.59,18,10.07,26.2,1.64.48,4.61,1.48,6.07,2.75.67.52,3.92,0,5.49-.19.66-.1,1.3-.19,1.9-.26,4-.5,12.47,3.7,18,8.78l.1.1c5.31,4.89,15.16,14,16.88,26a10.58,10.58,0,0,1-2,8.51c-3.64,4.49-11.27,5.58-20.42,6.27.24,1.92,0,4.89-1.82,8.94C85.48,115.83,81.28,118.37,75.31,118.37Z"/><path d="M53.06,53.94a2,2,0,0,1-1.75-1s-1.25-2.21-5-9c-3.86-7-6.26-15.46-1.4-18.2a3.92,3.92,0,0,1,3.15-.3c3.46,1.1,6.4,6.93,7,8.08a2,2,0,1,1-3.61,1.73c-1.42-3-3.7-5.93-4.61-6-1.2.71-.89,5.68,3,12.77,3.73,6.76,5,9,5,9A2,2,0,0,1,54,53.68,2.05,2.05,0,0,1,53.06,53.94Z"/><path d="M114,84.73c-1.78-12.36-11.81-21.62-17.17-26.56L96.68,58c-5.78-5.35-14.54-9.57-18.74-9-.61.07-1.26.17-1.9.26l-.73.1a19.9,19.9,0,0,1-4.08.26,18.25,18.25,0,0,0-5.68-2.67C65,38.75,62.7,27.81,55.21,20.75c-3.29-3.06-6.48-4.75-9.5-5-1.81-2.34-6-6.85-10.58-6.52-2.94.19-6,.77-8,3.64s-2.31,7.23-.66,13.61C29.16,36.9,34.5,41.52,36.93,43.14a46.06,46.06,0,0,0,6.13,9.72,47.46,47.46,0,0,1,3.2,4.53c.26.44.52.88.76,1.31-1.36,1.49-2.74,4.09-2.84,8.5a79.34,79.34,0,0,0-9,2.76c-4.56,1.75-7.58,4.55-8.5,7.89s.12,6.87,3.08,10.62l1,1.23c6.68,8.56,19.12,24.48,34.83,28.26a42.82,42.82,0,0,0,9.76,1.41h0c6.77,0,11.06-3.1,14.35-10.36a19.49,19.49,0,0,0,2-8.44c8.45-.67,16.24-1.78,20.14-6.58A11.59,11.59,0,0,0,114,84.73ZM63.84,91c.17.39,4.09,9.1,18.38,9.1.8,0,1.64,0,2.51-.09l1.32-.09.58,0c.18,1.15.17,3.44-1.44,7-2.09,4.54-4.15,6.58-7.31,7.22-1.59,0-16.54-.38-30.94-13.7-15.2-14-15-21.4-14.89-22.46A10.27,10.27,0,0,1,37,74.61,73.21,73.21,0,0,1,45.54,72c.17,1.09.37,2.21.66,3.41A2,2,0,0,0,48.14,77a1.88,1.88,0,0,0,.47,0,2,2,0,0,0,1.48-2.41c-1.64-6.88-.76-10.21.19-11.77.8,1.7,1.54,3.43,2.19,5.19a2,2,0,0,0,1.87,1.31,1.89,1.89,0,0,0,.7-.13,2,2,0,0,0,1.18-2.57,67.47,67.47,0,0,0-5.65-11.7,50,50,0,0,0-3.55-5,38.85,38.85,0,0,1-5.78-9.29,1.07,1.07,0,0,0-.07-.19c-.17-.45-.33-.92-.47-1.39-2.53-8.53-.79-15.84,2.26-17.72,2.88-1.78,6.79,1.22,8.87,3.17C63.12,35,60.43,57.88,60.4,58.11a2,2,0,1,0,4,.49,58.65,58.65,0,0,0,.36-6.67,13,13,0,0,1,3.36,1.53c2,1.69,5.39,1.19,8.67.71l1.79-.25c2.24-.25,9.69,3.13,14.8,7.84,4.94,4.56,14.14,13.06,15.68,23.69a6.69,6.69,0,0,1-1.11,5.41,6.29,6.29,0,0,1-.86.85l-.1,0c-2.17-.39-3.71-1.18-4.45-2.28a3.36,3.36,0,0,1-.53-2.35,2,2,0,1,0-3.89-1,7.32,7.32,0,0,0,1,5.44,8,8,0,0,0,2.7,2.53c-4.3,1.12-10.07,1.51-16,1.9l-1.32.09c-13.36.88-16.8-6.28-17-6.62A2,2,0,0,0,63.84,91Zm-28.06-56a28.45,28.45,0,0,1-4.51-9.9c-1.51-5.82-.89-8.34-.11-9.42s2.31-1.44,4.31-1.58c1.64-.12,3.84,1.78,5.45,3.59l-.06,0C36.57,20.43,34.69,27.29,35.78,35.06ZM29.14,83.78a9.56,9.56,0,0,1-.64-2A20.47,20.47,0,0,0,29.14,83.78ZM62.77,115c-1.06-.38-2.1-.82-3.13-1.31C60.71,114.22,61.76,114.65,62.77,115Zm-3.48-1.47-.13-.06Z"/><path d="M85.34,62.91c-3.34-1.72-7.22-.84-8.67,2s.1,6.48,3.43,8.2a7.85,7.85,0,0,0,3.54.88,5.59,5.59,0,0,0,5.13-2.84C90.21,68.3,88.67,64.63,85.34,62.91Z"/></svg>