<svg id="Layer_1" data-name="Layer 1" xmlns="http://www.w3.org/2000/svg" viewBox="0 0 128.16 128.16"><defs><style>.cls-1{fill:#00aeef;}.cls-2{fill:#fff;fill-rule:evenodd;}</style></defs><rect class="cls-1" x="2.42" y="2.21" width="123.32" height="123.74" rx="9.58"/><path class="cls-2" d="M28.2,99.81s8.8-5.6,11.91-5.57,6.09,3.84,17.46,4.24S88,95.73,103.32,86.42s8.81-15.65,5-19.09S79.27,51,72.46,48.56c-4.87-1.77-6.15-2.79-6-3.82.75-3.91,2-11.76-1.08-14.48s-6.22.79-6.22.79-.68-3.58-5.69-2.53S44,37,37.82,43.31,13,53,13,53s-1.61,6.36,7.45,23S28.2,99.81,28.2,99.81Z"/><path d="M105.35,78.51A1.63,1.63,0,0,0,104,76.6l-22.2-4a1.64,1.64,0,0,0-.59,3.23L92,77.77l-18.24.58a1.65,1.65,0,0,0,0,3.29h.06l17-.54L74.8,86.24a1.64,1.64,0,0,0,.5,3.21,1.51,1.51,0,0,0,.51-.08l27.09-8.65.89,0a1.64,1.64,0,0,0,1.59-1.7,1.59,1.59,0,0,0-.06-.38A.54.54,0,0,0,105.35,78.51Z"/><path d="M83.33,60.65c-.19-.18-4.61-4.21-10.12-4.21s-9.93,4-10.12,4.21a1.83,1.83,0,0,0,0,2.69c.18.17,4.58,4.23,10.12,4.23s9.94-4.06,10.12-4.23a1.83,1.83,0,0,0,0-2.69Z"/><path d="M114.06,80.07l.14-.24A11.69,11.69,0,0,0,115,78a5.42,5.42,0,0,0,1.19-3.53,4.93,4.93,0,0,0-2-4.26,20.35,20.35,0,0,0-4.12-4.75C106,61.75,80.35,48.76,73.37,46.22a26.72,26.72,0,0,1-4.25-1.86c1.07-5.88,1.65-12.74-2.05-16a6.13,6.13,0,0,0-4.67-1.63,7.09,7.09,0,0,0-2.55.73,5.8,5.8,0,0,0-.71-.55,7,7,0,0,0-4.4-1.09,11.64,11.64,0,0,0-1.78.24c-4.07.85-7.38,4.54-11.11,8.92l-.65.76c-1.65,1.93-3.35,3.92-5.21,5.81-2.23,2.27-6.57,4.22-11,5.73a96.23,96.23,0,0,1-11.67,3.1l-.72.13a2.44,2.44,0,0,0-.61.21l-.14.07a2.51,2.51,0,0,0-.46.32l-.06,0a2.63,2.63,0,0,0-.39.49l-.08.13a2.28,2.28,0,0,0-.21.51l0,.07v.06h0c-.24,1-1.35,8.13,7.69,24.74,8.25,15.16,7.51,22,7.48,22.22a.27.27,0,0,0,0,.09,2,2,0,0,0,0,.54.62.62,0,0,0,0,.13,2.23,2.23,0,0,0,.16.6l.06.12a1.74,1.74,0,0,0,.14.27s.07.08.1.13.12.15.19.22a2.8,2.8,0,0,0,.31.28l.11.1.09,0a2.53,2.53,0,0,0,.44.21l.2.08a2.37,2.37,0,0,0,.65.09h0a2.74,2.74,0,0,0,.69-.1,2.53,2.53,0,0,0,.65-.3h0l.24-.15c4.28-2.7,9-5,10.29-5h0a8.79,8.79,0,0,1,2.61.91c.68.3,1.46.64,2.35,1A36.88,36.88,0,0,0,57.36,101h.12c12.56.48,32.05-3.19,47.2-12.42a30,30,0,0,0,8.39-7,1.71,1.71,0,0,0,.11-.14A13.28,13.28,0,0,0,114.06,80.07ZM60.9,32.88l.18-.17a3.38,3.38,0,0,1,1-.76l.08-.05.08,0a1.4,1.4,0,0,1,1.52.26c.49.43,1.9,2.43.57,10.49-1.8-.66-3.63-1.28-5.46-1.84A20.76,20.76,0,0,0,60.9,32.88ZM22.65,74.8c-6-10.94-7.07-17.14-7.23-19.74,1.91-.4,5-1.12,8.44-2.16h0l1.65-.52.21-.07,1.45-.49.3-.11,1.29-.47.64-.25,1.08-.43.94-.4.44-.2a25.86,25.86,0,0,0,7.61-4.79,6.92,6.92,0,0,0,1.18,3,1.66,1.66,0,0,0,1.34.68,1.64,1.64,0,0,0,1.33-2.61c-.87-1.2-.76-3.18-.43-4.79.72-.83,1.43-1.65,2.12-2.47.16-.18.31-.37.47-.56,3.1-3.62,6-6.92,8.53-7.45a7.26,7.26,0,0,1,1-.14c.93,0,1.52.22,1.66.69a2.23,2.23,0,0,0,.89,1.56c-.19,2.62-1.29,7.75-6.53,13a1.63,1.63,0,0,0,0,2.32,1.61,1.61,0,0,0,1.16.49,1.64,1.64,0,0,0,1.16-.48,28.38,28.38,0,0,0,2.84-3.26,3.19,3.19,0,0,0,.59.28A105.94,105.94,0,0,1,68.1,49.53a1.06,1.06,0,0,0,.19.06c1,.46,2.13.89,3.32,1.32,7,2.57,31.67,15.21,35,18.27a17.38,17.38,0,0,1,2.91,3.15,6,6,0,0,0-.4,2.16,5.83,5.83,0,0,0,.71,2.84c-.94,1.76-3.12,4.1-7.83,7C87.75,93,69.47,96.39,57.68,96h0a31.86,31.86,0,0,1-11.38-2.24l-1.58-.68a12.39,12.39,0,0,0-4.23-1.29l-.33,0h-.06a5.71,5.71,0,0,0-.88.09l-.24,0c-.26,0-.53.11-.81.19l-.21,0a22.18,22.18,0,0,0-2.36.86h0a50.85,50.85,0,0,0-5.06,2.54C29.92,91.45,28,84.7,22.65,74.8Z"/></svg>