<svg id="Layer_1" data-name="Layer 1" xmlns="http://www.w3.org/2000/svg" viewBox="0 0 128.16 128.16"><defs><style>.cls-1{fill:#ccc;}.cls-2{fill:gray;}.cls-3{opacity:0.75;isolation:isolate;}.cls-4{fill:#e88b24;}.cls-5{fill:#404040;}.cls-6{fill:#00aeef;}.cls-7{fill:#62bb46;}.cls-8{fill:#f18a00;}.cls-9{fill:#fff;}</style></defs><path class="cls-1" d="M15.9,94.39,60.82,30.17a4.61,4.61,0,0,1,6.52,0h0l44.92,64.22a4.61,4.61,0,0,1-3.26,7.87H19.16a4.61,4.61,0,0,1-3.26-7.87Z"/><path class="cls-2" d="M109,104.94H19.16a7.3,7.3,0,0,1-5.34-12.26L58.76,28.44l.16-.17a7.32,7.32,0,0,1,10.32,0l.3.36,44.8,64.05A7.29,7.29,0,0,1,109,104.94ZM19.16,99.58H109a1.87,1.87,0,0,0,1.36-.57,1.91,1.91,0,0,0,0-2.72l-.3-.36-44.75-64a1.93,1.93,0,0,0-2.46,0L18,96.12l-.17.17a1.93,1.93,0,0,0,1.37,3.29Z"/><g class="cls-3"><circle class="cls-4" cx="64.08" cy="28.82" r="13.98"/><path class="cls-5" d="M64.08,43.78a15,15,0,1,1,15-15A15,15,0,0,1,64.08,43.78Zm0-28a13,13,0,1,0,13,13A13,13,0,0,0,64.08,15.82Z"/></g><g class="cls-3"><circle class="cls-6" cx="15.97" cy="99.34" r="13.98"/><path class="cls-5" d="M16,114.3a15,15,0,1,1,15-15A15,15,0,0,1,16,114.3Zm0-28a13,13,0,1,0,13,13A13,13,0,0,0,16,86.34Z"/></g><g class="cls-3"><circle class="cls-7" cx="112.19" cy="99.34" r="13.98"/><path class="cls-5" d="M112.19,114.3a15,15,0,1,1,15-15A15,15,0,0,1,112.19,114.3Zm0-28a13,13,0,1,0,13,13A13,13,0,0,0,112.19,86.34Z"/></g><circle class="cls-8" cx="90.49" cy="90.49" r="35.51"/><path class="cls-9" d="M90.49,128.16a37.67,37.67,0,1,1,37.67-37.67A37.68,37.68,0,0,1,90.49,128.16Zm0-71a33.35,33.35,0,1,0,33.35,33.35h0A33.38,33.38,0,0,0,90.49,57.14Z"/><polygon class="cls-9" points="95.27 108.98 85.71 108.98 85.71 95.04 72 95.04 72 85.83 85.71 85.83 85.71 72 95.27 72 95.27 85.83 108.98 85.83 108.98 95.04 95.27 95.04 95.27 108.98"/></svg>