<svg id="Layer_1" data-name="Layer 1" xmlns="http://www.w3.org/2000/svg" xmlns:xlink="http://www.w3.org/1999/xlink" viewBox="0 0 31.68 31.68"><defs><style>.cls-1,.cls-8{fill:#fcc900;}.cls-2{opacity:0.8;fill:url(#linear-gradient);}.cls-3{fill:#fff;stroke:#fff;stroke-width:1.5px;}.cls-3,.cls-4,.cls-5,.cls-6,.cls-7{stroke-miterlimit:10;}.cls-4{fill:#ccc;stroke-width:1.07px;}.cls-4,.cls-8{stroke:gray;}.cls-5{fill:#ea8b00;}.cls-5,.cls-6,.cls-7{stroke:#404040;stroke-width:0.39px;opacity:0.75;}.cls-6{fill:#00aeef;}.cls-7{fill:#62bb46;}.cls-8{stroke-linecap:square;stroke-linejoin:bevel;stroke-width:0.41px;opacity:0.34;}</style><linearGradient id="linear-gradient" y1="14.14" x2="23.5" y2="14.14" gradientUnits="userSpaceOnUse"><stop offset="0.54" stop-color="#fff"/><stop offset="1" stop-color="#fff" stop-opacity="0"/></linearGradient></defs><polygon class="cls-1" points="0 0.07 20.95 1.13 20.95 28.21 0 23.4 0 0.07"/><polygon class="cls-1" points="20.95 17.16 23.5 17.61 23.5 27.17 20.95 26.73 20.95 17.16"/><path class="cls-2" d="M0,.07,21,1.13V28.21L0,23.4ZM21,26.73l2.55.44V17.61L21,17.16Z"/><path class="cls-3" d="M6.2,21.15l9-12.38a.92.92,0,0,1,1.3.07l9,13.32a.89.89,0,0,1-.66,1.53l-18-.94A1,1,0,0,1,6.2,21.15Z"/><path class="cls-3" d="M24.88,24.23H24.8l-18-.94a1.51,1.51,0,0,1-1.34-1,1.42,1.42,0,0,1,.34-1.53l8.92-12.3a1.44,1.44,0,0,1,2.13,0l9,13.39a1.42,1.42,0,0,1,.25,1.53A1.39,1.39,0,0,1,24.88,24.23ZM15.79,9.07a.36.36,0,0,0-.23.09L6.64,21.46a.41.41,0,0,0-.14.46.42.42,0,0,0,.38.3l18,.94,0,.53v-.53a.3.3,0,0,0,.3-.2.4.4,0,0,0-.09-.44l-9-13.38A.55.55,0,0,0,15.79,9.07Z"/><ellipse class="cls-3" cx="15.84" cy="8.54" rx="2.72" ry="2.87" transform="translate(-1.46 13.47) rotate(-44.25)"/><path class="cls-3" d="M16,11.53h-.16a3.18,3.18,0,0,1-3-3.14,2.83,2.83,0,0,1,3-2.85,3.18,3.18,0,0,1,3,3.14A2.82,2.82,0,0,1,16,11.53Zm-.3-5.6a2.43,2.43,0,0,0-2.45,2.46,2.79,2.79,0,0,0,2.61,2.75,2.43,2.43,0,0,0,2.59-2.46,2.79,2.79,0,0,0-2.61-2.75Z"/><ellipse class="cls-3" cx="6.22" cy="22.14" rx="2.72" ry="2.87" transform="translate(-13.68 10.62) rotate(-44.25)"/><path class="cls-3" d="M6.37,25.13H6.21a3.18,3.18,0,0,1-3-3.14,2.81,2.81,0,0,1,3-2.85,3.19,3.19,0,0,1,3,3.14A2.82,2.82,0,0,1,6.37,25.13Zm-.3-5.6A2.42,2.42,0,0,0,3.62,22a2.79,2.79,0,0,0,2.61,2.75h.14a2.43,2.43,0,0,0,2.45-2.46,2.79,2.79,0,0,0-2.61-2.75Z"/><ellipse class="cls-3" cx="25.46" cy="23.14" rx="2.72" ry="2.87" transform="translate(-8.93 24.33) rotate(-44.25)"/><path class="cls-3" d="M25.61,26.14h-.16a3.19,3.19,0,0,1-3-3.14,2.82,2.82,0,0,1,3-2.85,3.19,3.19,0,0,1,3,3.14A2.82,2.82,0,0,1,25.61,26.14Zm-.3-5.6A2.43,2.43,0,0,0,22.86,23a2.79,2.79,0,0,0,2.61,2.75h.14a2.42,2.42,0,0,0,2.45-2.46,2.79,2.79,0,0,0-2.61-2.75Z"/><path class="cls-4" d="M6.2,21.15l9-12.38a.92.92,0,0,1,1.3.07l9,13.32a.89.89,0,0,1-.66,1.53l-18-.94A1,1,0,0,1,6.2,21.15Z"/><ellipse class="cls-5" cx="15.84" cy="8.54" rx="2.72" ry="2.87" transform="translate(-1.46 13.47) rotate(-44.25)"/><ellipse class="cls-6" cx="6.22" cy="22.14" rx="2.72" ry="2.87" transform="translate(-13.68 10.62) rotate(-44.25)"/><ellipse class="cls-7" cx="25.46" cy="23.14" rx="2.72" ry="2.87" transform="translate(-8.93 24.33) rotate(-44.25)"/><polygon class="cls-1" points="0 0.07 7.57 5.04 7.57 29.54 7.57 31.68 0 24.56 0 0.07"/><polyline class="cls-8" points="0.36 0.31 7.57 5.04 7.57 29.54 7.57 31.68 0.23 24.82"/></svg>