<svg id="Layer_1" data-name="Layer 1" xmlns="http://www.w3.org/2000/svg" viewBox="0 0 128.16 128.16"><defs><style>.cls-1{fill:#ccc;}.cls-2{fill:gray;}.cls-3{opacity:0.75;isolation:isolate;}.cls-4{fill:#e88b24;}.cls-5{fill:#404040;}.cls-6{fill:#00aeef;}.cls-7{fill:#62bb46;}</style></defs><path class="cls-1" d="M15.9,94.4,60.8,30.2a4.59,4.59,0,0,1,6.5,0h0l44.9,64.2a4.59,4.59,0,0,1,0,6.5,4.53,4.53,0,0,1-3.3,1.4H19.2a4.65,4.65,0,0,1-4.6-4.6A4.1,4.1,0,0,1,15.9,94.4Z"/><path class="cls-2" d="M108.9,105H19.2a7.29,7.29,0,0,1-7.28-7.18,6.68,6.68,0,0,1,1.91-5.11L58.74,28.47l.16-.17a7.3,7.3,0,0,1,10.29,0l.31.36,44.78,64A7.33,7.33,0,0,1,108.9,105ZM62.83,32,18,96.13l-.17.17a1.42,1.42,0,0,0-.52,1.19v.21a2,2,0,0,0,1.92,1.92h89.7a1.84,1.84,0,0,0,1.4-.62,1.88,1.88,0,0,0,0-2.7l-.3-.36L65.27,32A1.9,1.9,0,0,0,62.83,32Z"/><g class="cls-3"><circle class="cls-4" cx="64.1" cy="28.8" r="14"/><path class="cls-5" d="M64.1,43.78a15,15,0,1,1,15-15A15,15,0,0,1,64.1,43.78Zm0-28a13,13,0,1,0,13,13A13,13,0,0,0,64.1,15.78Z"/></g><g class="cls-3"><circle class="cls-6" cx="16" cy="99.3" r="14"/><path class="cls-5" d="M16,114.28a15,15,0,1,1,15-15A15,15,0,0,1,16,114.28Zm0-28a13,13,0,1,0,13,13A13,13,0,0,0,16,86.28Z"/></g><g class="cls-3"><circle class="cls-7" cx="112.2" cy="99.3" r="14"/><path class="cls-5" d="M112.2,114.28a15,15,0,1,1,15-15A15,15,0,0,1,112.2,114.28Zm0-28a13,13,0,1,0,13,13A13,13,0,0,0,112.2,86.28Z"/></g></svg>