<svg id="Layer_1" data-name="Layer 1" xmlns="http://www.w3.org/2000/svg" viewBox="0 0 128.16 128.16"><defs><style>.cls-1{fill:#f18a00;}.cls-2{fill:#fff;}</style></defs><path class="cls-1" d="M64.08,1.43a62.65,62.65,0,1,0,62.66,62.65A62.65,62.65,0,0,0,64.08,1.43Z"/><path class="cls-2" d="M99.81,39.77a43.06,43.06,0,0,0-78,16.82H45.09a20.56,20.56,0,0,1,38.2-.3L75.5,64.08h31.79V32.29Z"/><path class="cls-2" d="M43.29,64.08H20.87V95.86l7.7-7.7a43,43,0,0,0,78.11-16.59H83.44a20.58,20.58,0,0,1-38.33.06l7.55-7.55Z"/></svg>