<svg id="Layer_1" data-name="Layer 1" xmlns="http://www.w3.org/2000/svg" viewBox="0 0 128.16 128.16"><defs><style>.cls-1{fill:#62bb46;fill-rule:evenodd;}.cls-2{fill:#6d6e70;}.cls-3{fill:#f18a00;}.cls-4{fill:#fff;}</style></defs><path class="cls-1" d="M25.78,42.13a2.87,2.87,0,0,0,4.07,0L42.08,29.91A2.88,2.88,0,0,0,38,25.84L27.82,36,21.7,29.91A2.88,2.88,0,0,0,17.63,34Zm4.07,16.59A25.93,25.93,0,1,0,3.92,32.79,25.93,25.93,0,0,0,29.85,58.72Z"/><g id="Scatter"><g id="Simulation"><path class="cls-2" d="M116.59,125.46H10.14a8.57,8.57,0,0,1-8.56-8.55V10a8.56,8.56,0,0,1,8.56-8.55H116.59A8.56,8.56,0,0,1,125.14,10V116.91A8.57,8.57,0,0,1,116.59,125.46ZM10.14,2.75A7.29,7.29,0,0,0,2.86,10V116.91a7.28,7.28,0,0,0,7.28,7.27H116.59a7.28,7.28,0,0,0,7.27-7.27V10a7.29,7.29,0,0,0-7.27-7.28Z"/></g></g><path class="cls-1" d="M86.92,42.13a2.87,2.87,0,0,0,4.07,0l12.23-12.22a2.88,2.88,0,1,0-4.08-4.07L89,36l-6.11-6.11A2.88,2.88,0,0,0,78.77,34ZM91,58.72A25.93,25.93,0,1,0,65.07,32.79,25.92,25.92,0,0,0,91,58.72Z"/><path class="cls-1" d="M25.78,103.49a2.89,2.89,0,0,0,4.07,0L42.08,91.26A2.88,2.88,0,1,0,38,87.19L27.82,97.38,21.7,91.26a2.88,2.88,0,0,0-4.07,4.08Zm4.07,16.58A25.93,25.93,0,1,0,3.92,94.15,25.92,25.92,0,0,0,29.85,120.07Z"/><path class="cls-1" d="M91,120.07A25.93,25.93,0,1,0,65.07,94.15,25.92,25.92,0,0,0,91,120.07Z"/><circle class="cls-3" cx="89.77" cy="89.88" r="35.51"/><path class="cls-4" d="M89.77,52.21A37.67,37.67,0,1,1,52.1,89.88,37.71,37.71,0,0,1,89.77,52.21Zm0,71A33.35,33.35,0,1,0,56.42,89.88,33.39,33.39,0,0,0,89.77,123.23Z"/><path class="cls-4" d="M107.88,76.8a22,22,0,0,0-39.76,8.57H80a10.48,10.48,0,0,1,19.48-.15l-4,4h16.21V73Z"/><path class="cls-4" d="M79.06,89.19H67.62V105.4l3.93-3.93A22,22,0,0,0,111.38,93H99.52A10.49,10.49,0,0,1,80,93l3.85-3.85H79.06Z"/></svg>