<svg id="Layer_1" data-name="Layer 1" xmlns="http://www.w3.org/2000/svg" viewBox="0 0 128.16 128.16"><defs><style>.cls-1{fill:#00aeef;}.cls-2{fill:gray;stroke:gray;stroke-miterlimit:10;stroke-width:6.27px;}.cls-3{fill:#231f20;}</style></defs><path class="cls-1" d="M116.06,93.12H13.4A12.84,12.84,0,0,1,.57,80.3V49.16A12.85,12.85,0,0,1,13.4,36.33H116.06a12.84,12.84,0,0,1,12.82,12.83V80.3A12.83,12.83,0,0,1,116.06,93.12ZM13.4,45.48a3.68,3.68,0,0,0-3.68,3.68V80.3A3.68,3.68,0,0,0,13.4,84H116.06a3.68,3.68,0,0,0,3.67-3.68V49.16a3.68,3.68,0,0,0-3.67-3.68Z"/><path class="cls-2" d="M61.23,53V75.89h-40V53Z"/><path class="cls-3" d="M61.42,27.86H78.69v73.73H61.42v9.28h45.93v-9.28H91.28V27.86h16.07V18.59H61.42Z"/></svg>