<svg id="Layer_1" data-name="Layer 1" xmlns="http://www.w3.org/2000/svg" viewBox="0 0 128.16 128.16"><defs><style>.cls-1{fill:#929497;}.cls-2{fill:#f18a00;}.cls-3{fill:#fff;}.cls-4{isolation:isolate;}</style></defs><path class="cls-1" d="M106.9.94H16.8c-4,0-7.16,3.49-7.16,7.78V24.41h-3a3.84,3.84,0,0,0-.48,0A5.8,5.8,0,1,0,6.64,36h3V46.53h-3a5.8,5.8,0,0,0,0,11.6h3V69h-3a5.8,5.8,0,0,0,0,11.6h3V89.3h-3a5.8,5.8,0,0,0,0,11.6h3v18.32c0,4.29,3.21,7.78,7.16,7.78h90.1c3.95,0,7.16-3.51,7.16-7.8V8.72C114.06,4.43,110.9.94,106.9.94Zm-1.14,117.77H17.9V100.9h2.51a5.8,5.8,0,0,0,0-11.6h-2.5V80.63h2.51a5.8,5.8,0,0,0,0-11.6h-2.5V58.13h2.5a5.8,5.8,0,0,0,0-11.6h-2.5V36h3a5.8,5.8,0,1,0-.48-11.59H17.92V9.23h87.84Z"/><circle class="cls-2" cx="89.89" cy="89.55" r="35.51"/><path class="cls-3" d="M89.89,127.22a37.67,37.67,0,1,1,37.67-37.67h0A37.7,37.7,0,0,1,89.89,127.22Zm0-71a33.35,33.35,0,1,0,33.35,33.35h0A33.38,33.38,0,0,0,89.89,56.2Z"/><path class="cls-3" d="M110.56,90.69,92.05,69.38a2.78,2.78,0,0,0-.42-.42,3,3,0,0,0-4.22.42L68.9,90.69a2.68,2.68,0,0,0-.77,1.7c0,.74.51,1.53,1.93,1.53h8.35v13.44a3.38,3.38,0,0,0,3.38,3.38H97.68a3.38,3.38,0,0,0,3.38-3.38V93.92h8.34c1.42,0,1.93-.79,1.93-1.53A2.68,2.68,0,0,0,110.56,90.69Z"/><g class="cls-4"><path class="cls-1" d="M34.42,42.15v-19H27.63V19.24h18.2v3.88H39.05v19Z"/><path class="cls-1" d="M46.49,42.15,54.32,30.2l-7.1-11h5.41l4.59,7.36,4.5-7.36h5.36L60,30.37l7.82,11.78H62.21l-5.08-7.92L52,42.15Z"/><path class="cls-1" d="M75.32,42.15v-19h-6.8V19.24h18.2v3.88H79.94v19Z"/></g></svg>