<svg id="Layer_1" data-name="Layer 1" xmlns="http://www.w3.org/2000/svg" viewBox="0 0 128.16 128.16"><defs><style>.cls-1{fill:#f18a00;}.cls-2{fill:#fff;}</style></defs><g id="Simulation_Run_Ribbon" data-name="Simulation Run Ribbon"><path class="cls-1" d="M64.08,1.08a63,63,0,1,0,63,63A63,63,0,0,0,64.08,1.08Z"/><path class="cls-2" d="M47.87,105c-1.41,0-2.9-1-2.9-3.66V26.79c0-2.7,1.49-3.62,2.9-3.62a5,5,0,0,1,3.22,1.44L91.32,59.69a5.64,5.64,0,0,1,.85,7.92,6.28,6.28,0,0,1-.85.86L51.09,103.55A5,5,0,0,1,47.87,105Z"/></g></svg>