<svg id="Layer_1" data-name="Layer 1" xmlns="http://www.w3.org/2000/svg" viewBox="0 0 128.16 128.16"><defs><style>.cls-1,.cls-3{fill:gray;}.cls-2{fill:#f18a00;}.cls-3{stroke:gray;stroke-miterlimit:10;stroke-width:2.74px;}</style></defs><path class="cls-1" d="M116.18,112.1a4.64,4.64,0,1,1,4.64-4.64A4.64,4.64,0,0,1,116.18,112.1Zm-11.62,0a4.64,4.64,0,1,1,4.64-4.64A4.64,4.64,0,0,1,104.56,112.1Zm-11.62,0a4.64,4.64,0,1,1,4.64-4.64A4.64,4.64,0,0,1,92.94,112.1Zm32-21.25H4.49a3.4,3.4,0,0,0-3.4,3.4v26.42a3.4,3.4,0,0,0,3.4,3.4H125a3.4,3.4,0,0,0,3.4-3.4V94.25A3.4,3.4,0,0,0,125,90.85Z"/><path class="cls-2" d="M101.57,64.12H85.78V38.71a6.39,6.39,0,0,0-6.39-6.39h-30A6.39,6.39,0,0,0,43,38.71V64.12H27.17c-2.69,0-3.65,1.49-3.65,2.88A5,5,0,0,0,25,70.22l35,40.3a5.66,5.66,0,0,0,8.77,0l35-40.3A5,5,0,0,0,105.21,67C105.21,65.61,104.25,64.12,101.57,64.12Z"/><path class="cls-2" d="M107.37,28.22H22.09a5.61,5.61,0,0,1-5.61-5.61V9a5.61,5.61,0,0,1,5.61-5.6h85.28A5.61,5.61,0,0,1,113,9V22.61A5.62,5.62,0,0,1,107.37,28.22ZM22.09,7.39A1.61,1.61,0,0,0,20.48,9V22.61a1.61,1.61,0,0,0,1.61,1.61h85.28A1.61,1.61,0,0,0,109,22.61V9a1.61,1.61,0,0,0-1.61-1.6Z"/><path class="cls-3" d="M26.31,10.67v10h-.8v-10Z"/></svg>