<svg id="Layer_1" data-name="Layer 1" xmlns="http://www.w3.org/2000/svg" viewBox="0 0 128.16 128.16"><defs><style>.cls-1{fill:gray;}.cls-2{fill:#f18a00;}</style></defs><path class="cls-1" d="M116.18,111.84a4.64,4.64,0,1,1,4.64-4.64A4.64,4.64,0,0,1,116.18,111.84Zm-11.62,0a4.64,4.64,0,1,1,4.64-4.64A4.64,4.64,0,0,1,104.56,111.84Zm-11.62,0a4.64,4.64,0,1,1,4.64-4.64A4.64,4.64,0,0,1,92.94,111.84Zm32-21.25H4.49A3.4,3.4,0,0,0,1.09,94v26.42a3.4,3.4,0,0,0,3.4,3.4H125a3.4,3.4,0,0,0,3.4-3.4V94A3.4,3.4,0,0,0,125,90.59Z"/><path class="cls-2" d="M101.57,37.45H85.78V12a6.39,6.39,0,0,0-6.39-6.39h-30A6.39,6.39,0,0,0,43,12V37.45H27.17c-2.69,0-3.65,1.48-3.65,2.88A5,5,0,0,0,25,43.55L60,83.84a5.66,5.66,0,0,0,8.77,0l35-40.29a5,5,0,0,0,1.45-3.22C105.21,38.93,104.25,37.45,101.57,37.45Z"/></svg>