<svg id="Layer_1" data-name="Layer 1" xmlns="http://www.w3.org/2000/svg" viewBox="0 0 128.16 128.16"><defs><style>.cls-1{fill:#f18a00;}.cls-2{fill:#fff;}</style></defs><circle class="cls-1" cx="64.08" cy="64.08" r="60.07"/><path class="cls-2" d="M64.08,127.8A63.72,63.72,0,1,1,127.8,64.08,63.8,63.8,0,0,1,64.08,127.8Zm0-120.13a56.41,56.41,0,1,0,56.41,56.41A56.47,56.47,0,0,0,64.08,7.67Z"/><path class="cls-2" d="M99.05,66,67.74,30a5.05,5.05,0,0,0-7.85,0L28.57,66a4.51,4.51,0,0,0-1.3,2.88c0,1.25.86,2.58,3.27,2.58H44.66V94.2a5.71,5.71,0,0,0,5.71,5.72H77.25A5.72,5.72,0,0,0,83,94.2V71.47H97.09c2.4,0,3.26-1.33,3.26-2.58A4.51,4.51,0,0,0,99.05,66Z"/></svg>