<svg id="Layer_1" data-name="Layer 1" xmlns="http://www.w3.org/2000/svg" viewBox="0 0 128.16 128.16"><defs><style>.cls-1{fill:#f18a00;}</style></defs><g id="Journal_Ribbon" data-name="Journal Ribbon"><path class="cls-1" d="M64.08,1.08a63,63,0,1,0,63,63A63,63,0,0,0,64.08,1.08ZM81,70.44l23.29,23.21a2.73,2.73,0,0,1,.48.48h.2A7.58,7.58,0,0,1,94.37,105h0l-.64-.64L70.24,81h-.37l-.44.24A32.19,32.19,0,1,1,81.1,69.67a2.16,2.16,0,0,1,0,.36ZM53.38,74.78A21.4,21.4,0,1,0,32,53.38h0A21.4,21.4,0,0,0,53.38,74.78Z"/></g></svg>