<svg id="Layer_1" data-name="Layer 1" xmlns="http://www.w3.org/2000/svg" viewBox="0 0 128.16 128.16"><defs><style>.cls-1{fill:#f18a00;}.cls-2{fill:none;}.cls-3{fill:#00aeef;}.cls-4{fill:#6d6e70;}.cls-5{fill:#fff;}</style></defs><circle class="cls-1" cx="25.11" cy="111.38" r="9.98"/><path class="cls-1" d="M123.71,108.51H40.84a14,14,0,0,1,.3,2.87,13.2,13.2,0,0,1-.3,2.86h82.87a2.87,2.87,0,0,0,0-5.73Z"/><path class="cls-1" d="M7.48,111.38a13.29,13.29,0,0,1,.3-2.87H3.83a2.87,2.87,0,1,0,0,5.73h4A13.2,13.2,0,0,1,7.48,111.38Z"/><rect class="cls-2" x="105.65" y="3.22" width="19.43" height="32.85"/><rect class="cls-3" x="3.08" y="3.22" width="102.57" height="32.85"/><path class="cls-4" d="M0,.15v39H128.16V.15ZM125.08,36.07H3.08V3.22h122Z"/><circle class="cls-1" cx="95.28" cy="69.36" r="30.54"/><path class="cls-5" d="M95.28,101.76a32.4,32.4,0,1,1,32.41-32.4A32.44,32.44,0,0,1,95.28,101.76Zm0-61.08A28.69,28.69,0,1,0,124,69.36,28.71,28.71,0,0,0,95.28,40.68Z"/><path class="cls-5" d="M95.15,79.23a10.46,10.46,0,1,1,10.46-10.46A10.46,10.46,0,0,1,95.15,79.23Zm0-26.15c-10.73,0-20.93,12.16-20.93,15.69s10.2,15.69,20.93,15.69,20.92-12.15,20.92-15.69S105.88,53.08,95.15,53.08Zm0,10.46a5.23,5.23,0,0,1-5.23,5.23,5.23,5.23,0,1,0,5.23-5.23Z"/></svg>