<svg id="Layer_1" data-name="Layer 1" xmlns="http://www.w3.org/2000/svg" viewBox="0 0 128.16 128.16"><defs><style>.cls-1{fill:#62bb46;}.cls-2{fill:#f18a00;}.cls-3,.cls-4{fill:#fff;}.cls-4{fill-rule:evenodd;}</style></defs><rect class="cls-1" x="0.73" y="46.14" width="13.33" height="13.33" rx="4.19"/><rect class="cls-1" x="0.73" y="77.98" width="13.33" height="13.33" rx="4.19"/><rect class="cls-1" x="0.73" y="109.63" width="13.33" height="13.33" rx="4.19"/><rect class="cls-1" x="22.8" y="46.14" width="104.63" height="13.33" rx="4.19"/><rect class="cls-1" x="22.8" y="77.98" width="104.63" height="13.33" rx="4.19"/><rect class="cls-1" x="22.8" y="109.63" width="104.63" height="13.33" rx="4.19"/><rect class="cls-1" x="0.73" y="5.2" width="126.71" height="26.26" rx="6.67"/><circle class="cls-2" cx="90.49" cy="90.49" r="35.51"/><path class="cls-3" d="M90.49,128.16a37.67,37.67,0,1,1,37.67-37.67A37.71,37.71,0,0,1,90.49,128.16Zm0-71a33.35,33.35,0,1,0,33.35,33.35A33.39,33.39,0,0,0,90.49,57.14Z"/><path class="cls-4" d="M116.63,74.74H93.36a10.39,10.39,0,0,0-19.61,0H64.41a1.77,1.77,0,0,0-1.77,1.74V80a1.77,1.77,0,0,0,1.77,1.74h9.34a10.39,10.39,0,0,0,19.61,0h23.27A1.72,1.72,0,0,0,118.34,80V76.48A1.72,1.72,0,0,0,116.63,74.74Z"/><path class="cls-4" d="M64.35,106.24H87.62a10.38,10.38,0,0,0,19.61,0h9.34a1.76,1.76,0,0,0,1.77-1.74V101a1.76,1.76,0,0,0-1.77-1.74h-9.34a10.39,10.39,0,0,0-19.61,0H64.35A1.72,1.72,0,0,0,62.64,101v3.48A1.72,1.72,0,0,0,64.35,106.24Z"/></svg>