<svg id="Layer_1" data-name="Layer 1" xmlns="http://www.w3.org/2000/svg" viewBox="0 0 128.16 128.16"><defs><style>.cls-1{fill:#f18a00;}.cls-2{fill:#fff;}</style></defs><circle class="cls-1" cx="64.08" cy="64.08" r="63"/><polygon class="cls-2" points="72.87 39.63 56.75 39.63 58.39 22.78 71.23 22.78 72.87 39.63"/><path class="cls-2" d="M105.38,71.23V58.39L93.47,57.23a30.21,30.21,0,0,0-3-7.76l7.85-9.54-9.08-9.08L80,38.46a29.45,29.45,0,0,0-7.6-3.38l-1.19-12.3H58.39L57.23,34.69a30.21,30.21,0,0,0-7.76,3l-9.54-7.85L30.85,38.9l7.61,9.24a29.45,29.45,0,0,0-3.38,7.6l-12.3,1.19V69.77l11.91,1.16a30.21,30.21,0,0,0,3,7.76l-7.85,9.54,9.08,9.08,9.24-7.61a29.45,29.45,0,0,0,7.6,3.38l1.19,12.3H69.77l1.16-11.91a30.21,30.21,0,0,0,7.76-3l9.54,7.85,9.08-9.08L89.7,80a29.45,29.45,0,0,0,3.38-7.6ZM53.13,75A15.49,15.49,0,1,1,75,75,15.48,15.48,0,0,1,53.13,75Z"/></svg>