<svg id="Layer_1" data-name="Layer 1" xmlns="http://www.w3.org/2000/svg" viewBox="0 0 128.16 128.16"><defs><style>.cls-1{fill:#fff;}.cls-2{fill:#e6e7e8;}.cls-3{fill:#62bb46;}.cls-4{fill:#b1d89b;}.cls-5{fill:#00aeef;}.cls-6{fill:#6dcff6;}.cls-7{fill:#6d6e70;}</style></defs><path class="cls-1" d="M86.32,43V81.64a5.13,5.13,0,0,1-5.12,5.07H7.09a5.12,5.12,0,0,1-4.66-3A5.21,5.21,0,0,1,2,81.59V7.26C2,7.14,2,7,2,6.9a5.11,5.11,0,0,1,5.1-4.76H81.2a5.12,5.12,0,0,1,5.12,5.12Z"/><path class="cls-2" d="M23.88,6.46c2.67-2.6,5.23-4,7.81-4.15a10.55,10.55,0,0,1,1.24-.17H7.09A5.11,5.11,0,0,0,2,6.9,119.71,119.71,0,0,0,12.7,25.64C15.87,17.44,19.56,10.62,23.88,6.46Z"/><path class="cls-3" d="M77.77,63.74c-12.7-1.27-31.89-3.19-51.51-17.94A73.68,73.68,0,0,1,14,33.84C8.81,49.7,5.11,69.17,2.43,83.71a5.12,5.12,0,0,0,4.66,3H81.2a5.13,5.13,0,0,0,5.12-5.07v-17c-1.5-.14-3.34-.32-5.52-.56Z"/><path class="cls-4" d="M2,15.76V65.3C4.4,53.39,7.35,40.87,11.06,30.13A116.15,116.15,0,0,1,2,15.76Z"/><path class="cls-5" d="M81.2,2.14H33.72l-.38.21c4.69.58,8,5,10.76,8.6,1.1,1.46,2.31,3.27,3.7,5.38,2.19,3.31,4.91,7.43,8.5,12C63.24,37.22,77,41.23,86.32,43V7.26A5.12,5.12,0,0,0,81.2,2.14Z"/><path class="cls-6" d="M28.63,42.66c18.73,14.1,37.27,16,49.53,17.18l3.06.31c2.16.23,3.81.4,5.1.52V47c-2.13-.39-4.5-.88-7-1.53-12.16-3.15-20.94-8.1-26.11-14.7-3.69-4.71-6.46-8.91-8.69-12.28-1.35-2-2.52-3.81-3.55-5.18-2.31-3.05-5.19-6.86-8.31-7.09-1.79-.15-3.83.89-6,3.06-4.28,4.11-8,11.38-11.12,20.14A71.22,71.22,0,0,0,28.63,42.66Z"/><path class="cls-7" d="M81.2,1.24H7.09a6,6,0,0,0-6,6V81.59a6,6,0,0,0,6,6H81.2a6,6,0,0,0,6-6V7.26A6,6,0,0,0,81.2,1.24ZM86.32,43V81.64a5.13,5.13,0,0,1-5.12,5.07H7.09a5.12,5.12,0,0,1-4.66-3A5.21,5.21,0,0,1,2,81.59V7.26C2,7.14,2,7,2,6.9a5.11,5.11,0,0,1,5.1-4.76H81.2a5.12,5.12,0,0,1,5.12,5.12Z"/><path class="cls-2" d="M23.88,6.46c2.67-2.6,5.23-4,7.81-4.15a10.55,10.55,0,0,1,1.24-.17H7.09A5.11,5.11,0,0,0,2,6.9,119.71,119.71,0,0,0,12.7,25.64C15.87,17.44,19.56,10.62,23.88,6.46Z"/><path class="cls-3" d="M77.77,63.74c-12.7-1.27-31.89-3.19-51.51-17.94A73.68,73.68,0,0,1,14,33.84C8.81,49.7,5.11,69.17,2.43,83.71a5.12,5.12,0,0,0,4.66,3H81.2a5.13,5.13,0,0,0,5.12-5.07v-17c-1.5-.14-3.34-.32-5.52-.56Z"/><path class="cls-4" d="M2,15.76V65.3C4.4,53.39,7.35,40.87,11.06,30.13A116.15,116.15,0,0,1,2,15.76Z"/><path class="cls-5" d="M81.2,2.14H33.72l-.38.21c4.69.58,8,5,10.76,8.6,1.1,1.46,2.31,3.27,3.7,5.38,2.19,3.31,4.91,7.43,8.5,12C63.24,37.22,77,41.23,86.32,43V7.26A5.12,5.12,0,0,0,81.2,2.14Z"/><path class="cls-6" d="M28.63,42.66c18.73,14.1,37.27,16,49.53,17.18l3.06.31c2.16.23,3.81.4,5.1.52V47c-2.13-.39-4.5-.88-7-1.53-12.16-3.15-20.94-8.1-26.11-14.7-3.69-4.71-6.46-8.91-8.69-12.28-1.35-2-2.52-3.81-3.55-5.18-2.31-3.05-5.19-6.86-8.31-7.09-1.79-.15-3.83.89-6,3.06-4.28,4.11-8,11.38-11.12,20.14A71.22,71.22,0,0,0,28.63,42.66Z"/><path class="cls-7" d="M81.2,1.24H7.09a6,6,0,0,0-6,6V81.59a6,6,0,0,0,6,6H81.2a6,6,0,0,0,6-6V7.26A6,6,0,0,0,81.2,1.24ZM86.32,43V81.64a5.13,5.13,0,0,1-5.12,5.07H7.09a5.12,5.12,0,0,1-4.66-3A5.21,5.21,0,0,1,2,81.59V7.26C2,7.14,2,7,2,6.9a5.11,5.11,0,0,1,5.1-4.76H81.2a5.12,5.12,0,0,1,5.12,5.12Z"/><path class="cls-1" d="M126.19,82.3V121a5.14,5.14,0,0,1-5.12,5.07H47a5.12,5.12,0,0,1-4.66-3,5,5,0,0,1-.46-2.12V46.57c0-.12,0-.23,0-.35A5.13,5.13,0,0,1,47,41.45h74.11a5.13,5.13,0,0,1,5.12,5.12Z"/><path class="cls-2" d="M63.75,45.77c2.66-2.6,5.23-4,7.81-4.15.41-.07.82-.13,1.24-.17H47a5.13,5.13,0,0,0-5.11,4.77A121,121,0,0,0,52.56,65C55.74,56.75,59.42,49.93,63.75,45.77Z"/><path class="cls-3" d="M117.64,103.06c-12.7-1.27-31.9-3.19-51.51-18a74.08,74.08,0,0,1-12.29-12C48.67,89,45,108.48,42.3,123A5.12,5.12,0,0,0,47,126h74.11a5.14,5.14,0,0,0,5.12-5.07v-17c-1.5-.13-3.34-.32-5.53-.55C119.7,103.26,118.69,103.16,117.64,103.06Z"/><path class="cls-4" d="M41.84,55.07v49.54c2.43-11.91,5.37-24.43,9.09-35.17A113.83,113.83,0,0,1,41.84,55.07Z"/><path class="cls-5" d="M121.07,41.45H73.59l-.38.22c4.68.58,8,5,10.75,8.59,1.11,1.46,2.31,3.28,3.7,5.38,2.19,3.31,4.92,7.43,8.51,12,6.94,8.88,20.65,12.88,30,14.64V46.57A5.13,5.13,0,0,0,121.07,41.45Z"/><path class="cls-6" d="M68.49,82C87.22,96.07,105.76,97.92,118,99.15l3,.31c2.16.24,3.82.4,5.11.52V86.31c-2.13-.38-4.51-.88-7-1.53C107,81.63,98.24,76.69,93.07,70.08c-3.68-4.71-6.45-8.9-8.68-12.27C83,55.76,81.86,54,80.83,52.63c-2.31-3.06-5.19-6.86-8.31-7.1-1.79-.14-3.82.89-6,3.06C62.2,52.7,58.53,60,55.36,68.73A71.89,71.89,0,0,0,68.49,82Z"/><path class="cls-7" d="M121.07,40.56H47a6,6,0,0,0-6,6V120.9a6,6,0,0,0,6,6h74.11a6,6,0,0,0,6-6V46.57A6,6,0,0,0,121.07,40.56Zm5.12,41.74V121a5.14,5.14,0,0,1-5.12,5.07H47a5.12,5.12,0,0,1-4.66-3,5,5,0,0,1-.46-2.12V46.57c0-.12,0-.23,0-.35A5.13,5.13,0,0,1,47,41.45h74.11a5.13,5.13,0,0,1,5.12,5.12Z"/></svg>