<svg id="Layer_1" data-name="Layer 1" xmlns="http://www.w3.org/2000/svg" viewBox="0 0 128.16 128.16"><defs><style>.cls-1{fill:#fff;}.cls-2{fill:#e6e7e8;}.cls-3{fill:#62bb46;}.cls-4{fill:#b1d89b;}.cls-5{fill:#00aeef;}.cls-6{fill:#6dcff6;}.cls-7{fill:#6d6e70;}.cls-8{fill:#f18a00;}</style></defs><path class="cls-1" d="M124.72,62v55.57a7.39,7.39,0,0,1-7.37,7.29H10.81a7.37,7.37,0,0,1-6.7-4.32,7.24,7.24,0,0,1-.67-3V10.65c0-.18,0-.34,0-.51a7.37,7.37,0,0,1,7.34-6.86H117.35a7.37,7.37,0,0,1,7.37,7.37Z"/><path class="cls-2" d="M35,9.49c3.82-3.73,7.51-5.69,11.23-6A17.33,17.33,0,0,1,48,3.28H10.81a7.37,7.37,0,0,0-7.34,6.86,172,172,0,0,0,15.4,26.94C23.43,25.28,28.72,15.48,35,9.49Z"/><path class="cls-3" d="M112.42,91.86C94.16,90,66.57,87.27,38.37,66.06A106.62,106.62,0,0,1,20.71,48.87C13.27,71.67,8,99.65,4.11,120.56a7.37,7.37,0,0,0,6.7,4.32H117.35a7.39,7.39,0,0,0,7.37-7.29V93.1q-3.24-.28-8-.8C115.39,92.15,113.94,92,112.42,91.86Z"/><path class="cls-4" d="M3.44,22.87V94.09C6.93,77,11.17,59,16.51,43.53A166.27,166.27,0,0,1,3.44,22.87Z"/><path class="cls-5" d="M117.35,3.28H49.09l-.54.31C55.28,4.43,60.11,10.79,64,16c1.59,2.1,3.32,4.71,5.32,7.74C72.48,28.45,76.39,34.37,81.55,41c10,12.76,29.69,18.52,43.17,21.05V10.65A7.37,7.37,0,0,0,117.35,3.28Z"/><path class="cls-6" d="M41.76,61.55C68.7,81.81,95.35,84.48,113,86.24l4.4.45c3.1.34,5.48.57,7.34.75V67.78c-3.07-.55-6.48-1.27-10.07-2.2C97.17,61.05,84.54,53.94,77.11,44.44c-5.3-6.77-9.29-12.79-12.49-17.64-2-2.95-3.63-5.49-5.11-7.45C56.18,15,52.05,9.49,47.56,9.15c-2.57-.21-5.5,1.28-8.69,4.4-6.14,5.91-11.43,16.36-16,29A103.65,103.65,0,0,0,41.76,61.55Z"/><path class="cls-7" d="M117.35,2H10.81a8.66,8.66,0,0,0-8.65,8.65V117.51a8.66,8.66,0,0,0,8.65,8.65H117.35a8.68,8.68,0,0,0,8.65-8.57V10.65A8.66,8.66,0,0,0,117.35,2Zm7.37,60v55.57a7.39,7.39,0,0,1-7.37,7.29H10.81a7.37,7.37,0,0,1-6.7-4.32,7.24,7.24,0,0,1-.67-3V10.65c0-.18,0-.34,0-.51a7.37,7.37,0,0,1,7.34-6.86H117.35a7.37,7.37,0,0,1,7.37,7.37Z"/><circle class="cls-8" cx="89.59" cy="89.79" r="35.48"/><path class="cls-1" d="M89.59,127.27a37.48,37.48,0,1,1,37.48-37.48h0A37.43,37.43,0,0,1,89.59,127.27Zm0-71A33.09,33.09,0,1,0,122.68,89.4h0A33.26,33.26,0,0,0,89.59,56.31Z"/><path class="cls-1" d="M113.91,81a2.65,2.65,0,0,0-2.39-.4h-.4c-4-7.57-12-15.54-21.53-11.16-1.59.8-.79,1.6,0,2h.8C100.76,73.05,97.17,77,98,79v.8L90.79,87h-.4a2.45,2.45,0,0,0-2.79.4L72.45,102.55a2.42,2.42,0,0,0,0,3.19h0l4,4a2.44,2.44,0,0,0,3.19,0h0L94.78,94.58a2.48,2.48,0,0,0,.4-2.79v-.4l7.17-7.18h.4c1.2.8,2.39-.4,3.59.4V85a1.87,1.87,0,0,0,.4,2.39l1.59,1.6a1.94,1.94,0,0,0,2.79,0l4.39-4.39a1.92,1.92,0,0,0,0-2.79Z"/><path class="cls-1" d="M76.44,87.8l4,4.39c.39.39.39.39.79,0h0L86.41,87h0v-.4l-4.39-4a3,3,0,0,1-.4-2,8.55,8.55,0,0,0-5.18-11.56,10,10,0,0,0-6.78,0c-.4,0-.4.4-.4.8s0,.4.4.4l4,4a3.65,3.65,0,0,1,0,4.78l-.4.4a3.65,3.65,0,0,1-4.78,0h0l-4-4c0-.4-.4-.4-.8,0l-.4.4c-1.59,4.78.4,10,5.19,11.56a7.75,7.75,0,0,0,6,0C75.24,87,76,87,76.44,87.8Z"/><path class="cls-1" d="M101.16,106.54a2.42,2.42,0,0,1-3.19,0h0a2.42,2.42,0,0,1,0-3.19h0a2.26,2.26,0,1,1,3.19,3.19Zm0-7.18-4-4a.55.55,0,0,0-.8,0h0l-.4.39-5.58,5.59c-.4.39-.4.79,0,.79l3.59,4a3,3,0,0,1,.8,2c.4.4.4,1.2.79,1.6a6.11,6.11,0,0,0,8.38-2.79,7.84,7.84,0,0,0,0-6,2.08,2.08,0,0,0-1.6-.8c-.4,0-.8-.4-1.19-.8Z"/></svg>