<svg id="Layer_1" data-name="Layer 1" xmlns="http://www.w3.org/2000/svg" viewBox="0 0 128.16 128.16"><defs><style>.cls-1{fill:#fff;}.cls-2{fill:#e6e7e8;}.cls-3{fill:#62bb46;}.cls-4{fill:#b1d89b;}.cls-5{fill:#00aeef;}.cls-6{fill:#6dcff6;}.cls-7{fill:#6d6e70;}.cls-8{fill:#f18a00;}</style></defs><path class="cls-1" d="M124.72,62v55.57a7.39,7.39,0,0,1-7.37,7.29H10.81a7.37,7.37,0,0,1-6.7-4.32,7.24,7.24,0,0,1-.67-3V10.65c0-.18,0-.34,0-.51a7.37,7.37,0,0,1,7.34-6.86H117.35a7.37,7.37,0,0,1,7.37,7.37Z"/><path class="cls-2" d="M35,9.49c3.82-3.73,7.51-5.69,11.23-6A17.33,17.33,0,0,1,48,3.28H10.81a7.37,7.37,0,0,0-7.34,6.86,172,172,0,0,0,15.4,26.94C23.43,25.28,28.72,15.48,35,9.49Z"/><path class="cls-3" d="M112.42,91.86C94.16,90,66.57,87.27,38.37,66.06A106.62,106.62,0,0,1,20.71,48.87C13.27,71.67,8,99.65,4.11,120.56a7.37,7.37,0,0,0,6.7,4.32H117.35a7.39,7.39,0,0,0,7.37-7.29V93.1q-3.24-.28-8-.8C115.39,92.15,113.94,92,112.42,91.86Z"/><path class="cls-4" d="M3.44,22.87V94.09C6.93,77,11.17,59,16.51,43.53A166.27,166.27,0,0,1,3.44,22.87Z"/><path class="cls-5" d="M117.35,3.28H49.09l-.54.31C55.28,4.43,60.11,10.79,64,16c1.59,2.1,3.32,4.71,5.32,7.74C72.48,28.45,76.39,34.37,81.55,41c10,12.76,29.69,18.52,43.17,21.05V10.65A7.37,7.37,0,0,0,117.35,3.28Z"/><path class="cls-6" d="M41.76,61.55C68.7,81.81,95.35,84.48,113,86.24l4.4.45c3.1.34,5.48.57,7.34.75V67.78c-3.07-.55-6.48-1.27-10.07-2.2C97.17,61.05,84.54,53.94,77.11,44.44c-5.3-6.77-9.29-12.79-12.49-17.64-2-2.95-3.63-5.49-5.11-7.45C56.18,15,52.05,9.49,47.56,9.15c-2.57-.21-5.5,1.28-8.69,4.4-6.14,5.91-11.43,16.36-16,29A103.65,103.65,0,0,0,41.76,61.55Z"/><path class="cls-7" d="M117.35,2H10.81a8.66,8.66,0,0,0-8.65,8.65V117.51a8.66,8.66,0,0,0,8.65,8.65H117.35a8.68,8.68,0,0,0,8.65-8.57V10.65A8.66,8.66,0,0,0,117.35,2Zm7.37,60v55.57a7.39,7.39,0,0,1-7.37,7.29H10.81a7.37,7.37,0,0,1-6.7-4.32,7.24,7.24,0,0,1-.67-3V10.65c0-.18,0-.34,0-.51a7.37,7.37,0,0,1,7.34-6.86H117.35a7.37,7.37,0,0,1,7.37,7.37Z"/><circle class="cls-8" cx="90.04" cy="89.54" r="35.91"/><path class="cls-1" d="M90,51.44a38.1,38.1,0,1,1-38.1,38.1h0A38.14,38.14,0,0,1,90,51.44Zm0,71.83A33.73,33.73,0,1,0,56.31,89.54h0A33.77,33.77,0,0,0,90,123.27Z"/><path class="cls-1" d="M69.13,88.37l18.73,21.55a3,3,0,0,0,2.34,1.14,3.12,3.12,0,0,0,2.35-1.14l18.76-21.55a2.79,2.79,0,0,0,.73-1.7c0-.73-.52-1.54-2-1.54h-8.41V71.54a3.4,3.4,0,0,0-3.4-3.4H82.15a3.4,3.4,0,0,0-3.39,3.4V85.13H70.3c-1.45,0-1.94.81-1.94,1.54A2.6,2.6,0,0,0,69.13,88.37Z"/></svg>