<svg id="Layer_1" data-name="Layer 1" xmlns="http://www.w3.org/2000/svg" viewBox="0 0 128.16 128.16"><defs><style>.cls-1{fill:#00aeef;}.cls-2{fill:#fff;}.cls-3{fill:#f18a00;}</style></defs><path class="cls-1" d="M120.4,23H96.16V13.56a3.83,3.83,0,0,0-3.73-3.92H35.73A3.83,3.83,0,0,0,32,13.56V23H7.76A7.61,7.61,0,0,0,.35,30.82V109.5a7.61,7.61,0,0,0,7.41,7.78H120.4a7.61,7.61,0,0,0,7.41-7.78V30.82A7.61,7.61,0,0,0,120.4,23Z"/><circle class="cls-1" cx="64.08" cy="67.68" r="26.75"/><path class="cls-2" d="M64.08,98.43A30.75,30.75,0,1,1,94.83,67.68,30.79,30.79,0,0,1,64.08,98.43Zm0-53.5A22.75,22.75,0,1,0,86.83,67.68,22.77,22.77,0,0,0,64.08,44.93Z"/><circle class="cls-3" cx="90.12" cy="90.12" r="35.51"/><path class="cls-2" d="M90.12,127.79a37.67,37.67,0,1,1,37.67-37.67A37.71,37.71,0,0,1,90.12,127.79Zm0-71a33.35,33.35,0,1,0,33.35,33.35A33.39,33.39,0,0,0,90.12,56.77Z"/><path class="cls-2" d="M69.13,91.26,87.64,70A3.07,3.07,0,0,1,90,68.85,3,3,0,0,1,92.28,70L110.8,91.26a2.65,2.65,0,0,1,.76,1.7c0,.74-.5,1.53-1.92,1.53H70.29c-1.42,0-1.92-.79-1.92-1.53A2.65,2.65,0,0,1,69.13,91.26Z"/><rect class="cls-2" x="78.64" y="88.66" width="22.65" height="22.65" rx="3.38"/></svg>