<svg id="Layer_1" data-name="Layer 1" xmlns="http://www.w3.org/2000/svg" viewBox="0 0 128.16 128.16"><defs><style>.cls-1{fill:#00aeef;}.cls-2{fill:#fff;}.cls-3{fill:#f18a00;}</style></defs><path class="cls-1" d="M120.05,23.41H95.82V13.93A3.84,3.84,0,0,0,92.08,10H35.39a3.83,3.83,0,0,0-3.73,3.92v9.48H7.42A7.61,7.61,0,0,0,0,31.19v78.68a7.61,7.61,0,0,0,7.41,7.78H120.05a7.61,7.61,0,0,0,7.41-7.78V31.19A7.61,7.61,0,0,0,120.05,23.41Z"/><circle class="cls-1" cx="63.74" cy="68.05" r="26.75"/><path class="cls-2" d="M63.73,98.8A30.75,30.75,0,1,1,94.48,68.05,30.79,30.79,0,0,1,63.73,98.8Zm0-53.5A22.75,22.75,0,1,0,86.48,68.05,22.77,22.77,0,0,0,63.73,45.3Z"/><circle class="cls-3" cx="90.49" cy="90.49" r="35.51"/><path class="cls-2" d="M128.15,90.49A37.67,37.67,0,1,1,90.48,52.82,37.71,37.71,0,0,1,128.15,90.49Zm-4.32,0a33.35,33.35,0,1,0-33.35,33.35A33.39,33.39,0,0,0,123.83,90.49Z"/><path class="cls-2" d="M69.49,89.35,88,110.66a3,3,0,0,0,4.64,0l18.51-21.31a2.67,2.67,0,0,0,.77-1.7c0-.74-.51-1.53-1.93-1.53H70.66c-1.43,0-1.93.79-1.93,1.53A2.71,2.71,0,0,0,69.49,89.35Z"/><rect class="cls-2" x="79" y="69.31" width="22.65" height="22.65" rx="3.38"/></svg>