<svg id="Layer_1" data-name="Layer 1" xmlns="http://www.w3.org/2000/svg" xmlns:xlink="http://www.w3.org/1999/xlink" viewBox="0 0 128.16 128.16"><defs><style>.cls-1{fill:none;}.cls-2{fill:#f18a00;}.cls-3{fill:#fff;}.cls-4{clip-path:url(#clip-path);}.cls-5{fill:#00aeef;}</style><clipPath id="clip-path"><rect class="cls-1" x="148.88" width="126.73" height="128.16"/></clipPath></defs><g id="Simulation_Run_Ribbon" data-name="Simulation Run Ribbon"><path class="cls-2" d="M64.08,1.08a63,63,0,1,0,63,63A63,63,0,0,0,64.08,1.08Z"/><rect class="cls-3" x="29.68" y="29.68" width="68.79" height="68.79" rx="7.36"/></g><g class="cls-4"><path class="cls-5" d="M101.27-6.93a5,5,0,0,0,0,7.07,5,5,0,0,0,7,0L109-.54l48.66,49.38a8.28,8.28,0,0,0,11.73,0l16.82-16.72a8.35,8.35,0,0,0,.06-11.78L137.59-29l.72-.72a5,5,0,0,0,0-7.07,5,5,0,0,0-7,0m31.6,76.56a2.34,2.34,0,0,1-3.32,0l-41.36-42,2-2,13.56-13.48,2-2,41.35,42a2.42,2.42,0,0,1,0,3.34"/></g></svg>