<svg id="Layer_1" data-name="Layer 1" xmlns="http://www.w3.org/2000/svg" viewBox="0 0 128.16 128.16"><defs><style>.cls-1{fill:none;}.cls-2{fill:#62bb46;}.cls-3{fill:#00aeef;}.cls-4{fill:#6d6e70;}</style></defs><path class="cls-1" d="M2.81,22V95.52c3.57-17.65,7.94-36.31,13.45-52.24A166.93,166.93,0,0,1,2.81,22Z"/><path class="cls-1" d="M34.8,9.08c4.44-4.34,8.7-6.29,13-6,7,.53,12,7.15,16,12.47,1.6,2.11,3.35,4.75,5.37,7.81,3.18,4.81,7.14,10.8,12.36,17.47,10.14,13,30.14,18.8,43.79,21.36V10.09a7.45,7.45,0,0,0-7.44-7.44H10.25a7.45,7.45,0,0,0-7.44,7.4A174.05,174.05,0,0,0,18.45,37.26C23.08,25.2,28.46,15.17,34.8,9.08Z"/><path class="cls-1" d="M113,91.93c-18.43-1.85-46.27-4.63-74.72-26A107.48,107.48,0,0,1,20.17,48.26c-7.55,23-12.94,51.31-16.85,72.52a7.46,7.46,0,0,0,6.93,4.73H117.91a7.45,7.45,0,0,0,7.44-7.36v-25c-2.17-.2-4.84-.46-8-.8C116,92.22,114.48,92.08,113,91.93Z"/><path class="cls-1" d="M77.42,44.1C72.07,37.26,68,31.18,64.81,26.29c-2-3-3.67-5.56-5.17-7.54C56.25,14.27,52,8.7,47.4,8.35c-2.67-.21-5.68,1.32-8.95,4.51-6.25,6-11.62,16.66-16.24,29.47A104.37,104.37,0,0,0,41.4,61.7c27.26,20.51,54.23,23.21,72.07,25l4.44.46c3.15.34,5.56.58,7.44.75V67.59c-3.08-.55-6.51-1.27-10.12-2.21C97.62,60.82,84.89,53.66,77.42,44.1Z"/><path class="cls-2" d="M18.45,37.26A174.05,174.05,0,0,1,2.81,10.05V22A166.93,166.93,0,0,0,16.26,43.28C17,41.22,17.7,39.22,18.45,37.26Z"/><path class="cls-2" d="M117.91,87.15l-4.44-.46c-17.84-1.78-44.81-4.48-72.07-25A104.37,104.37,0,0,1,22.21,42.33q-1,2.89-2,5.93A107.48,107.48,0,0,0,38.23,65.9c28.45,21.4,56.29,24.18,74.72,26,1.53.15,3,.29,4.4.45,3.16.34,5.83.6,8,.8V87.9C123.47,87.73,121.06,87.49,117.91,87.15Z"/><path class="cls-3" d="M81.56,40.86C76.34,34.19,72.38,28.2,69.2,23.39c-2-3.06-3.77-5.7-5.37-7.81-4-5.32-9-11.94-16-12.47-4.3-.32-8.56,1.63-13,6C28.46,15.17,23.08,25.2,18.45,37.26c-.75,2-1.48,4-2.19,6C10.75,59.21,6.38,77.87,2.81,95.52v22.55a7.38,7.38,0,0,0,.51,2.71c3.91-21.21,9.3-49.51,16.85-72.52q1-3,2-5.93c4.62-12.81,10-23.46,16.24-29.47,3.27-3.19,6.28-4.72,8.95-4.51,4.64.35,8.85,5.92,12.24,10.4,1.5,2,3.2,4.56,5.17,7.54,3.23,4.89,7.26,11,12.61,17.81,7.47,9.56,20.2,16.72,37.81,21.28,3.61.94,7,1.66,10.12,2.21V62.22C111.7,59.66,91.7,53.82,81.56,40.86Z"/><path class="cls-4" d="M126.65,10.09a8.75,8.75,0,0,0-8.74-8.74H10.25a8.75,8.75,0,0,0-8.74,8.74v108a8.75,8.75,0,0,0,8.74,8.74H117.91a8.77,8.77,0,0,0,8.74-8.66Zm-8.74,116.07H10.25a8.09,8.09,0,0,1-8.09-8.09v-108a8.28,8.28,0,0,1,.1-1.23,8.09,8.09,0,0,1,8-6.86H117.91A8.09,8.09,0,0,1,126,10.09V118.15A8.08,8.08,0,0,1,117.91,126.16Z"/><path class="cls-4" d="M2.81,22c-.23-.42-.44-.82-.65-1.23v78c.21-1.07.43-2.14.65-3.22Z"/><path class="cls-4" d="M10.25,2.65H117.91a7.45,7.45,0,0,1,7.44,7.44V62.22l.65.12V10.09A8.09,8.09,0,0,0,117.91,2H10.25a8.09,8.09,0,0,0-8,6.86c.17.38.36.78.55,1.19A7.45,7.45,0,0,1,10.25,2.65Z"/><path class="cls-4" d="M125.35,87.9,126,88V67.71l-.65-.12Z"/><path class="cls-4" d="M125.35,93.18v25a7.45,7.45,0,0,1-7.44,7.36H10.25a7.46,7.46,0,0,1-6.93-4.73c-.07.37-.13.74-.2,1.11a8.08,8.08,0,0,0,7.13,4.27H117.91a8.08,8.08,0,0,0,8.09-8V93.24Z"/><path class="cls-4" d="M125.35,93.18l.65.06V88l-.65-.06Z"/><path class="cls-4" d="M2.81,10.09v0c-.19-.41-.38-.81-.55-1.19a8.28,8.28,0,0,0-.1,1.23V20.74c.21.41.42.81.65,1.23Z"/><path class="cls-4" d="M2.81,118.07V95.52c-.22,1.08-.44,2.15-.65,3.22v19.33a8.07,8.07,0,0,0,1,3.82c.07-.37.13-.74.2-1.11A7.38,7.38,0,0,1,2.81,118.07Z"/><path class="cls-4" d="M125.35,67.59l.65.12V62.34l-.65-.12Z"/></svg>