<svg id="Layer_1" data-name="Layer 1" xmlns="http://www.w3.org/2000/svg" xmlns:xlink="http://www.w3.org/1999/xlink" viewBox="0 0 128.16 128.16"><defs><style>.cls-1{fill:none;}.cls-2{clip-path:url(#clip-path);}.cls-3{fill:#00aeef;}.cls-4,.cls-5{fill:#62bb46;}.cls-5{stroke:#62bb46;stroke-linecap:round;stroke-linejoin:round;stroke-width:0.26px;}</style><clipPath id="clip-path"><rect class="cls-1" width="128.16" height="128.16"/></clipPath></defs><g class="cls-2"><path class="cls-3" d="M81.42,2.38C68,2.13,56.31,6.55,55.34,12.26a4.58,4.58,0,0,0,0,1.61c1.42-5.52,12.84-8.25,26-8,12.15.22,21.55,2.71,22.53,7.68,0-.13.09-.25.11-.39C105,7.46,94.85,2.63,81.42,2.38Z"/><path class="cls-4" d="M18.73,125.69c15.08-2.77,26.94-10.74,26.51-17.81a6,6,0,0,0-.49-1.91c-.12,6.94-11.75,14.6-26.48,17.31-13.64,2.5-25.19-.12-27.61-5.86,0,.16,0,.33,0,.49C-8.93,125,3.65,128.46,18.73,125.69Z"/><path class="cls-4" d="M106.78,125.69c-10.26-1.38-17.49-7.68-16.15-14.08a8,8,0,0,1,.62-1.76c-.92,6.24,6.18,12.29,16.21,13.63a24.55,24.55,0,0,0,23.72-11C129.89,122,117.31,127.1,106.78,125.69Z"/><path class="cls-4" d="M118.23,125.52c10.53-3.7,17.19-12,14.89-18.6a8.12,8.12,0,0,0-.9-1.76c1.85,6.5-4.73,14.53-15,18.14-9.52,3.34-21.87-1.66-25.29-6.86,0,.15.07.31.13.46C94.35,123.48,107.71,129.21,118.23,125.52Z"/><path class="cls-5" d="M32.62,76.73l-.28-.08c-5.61-1.52-10.17-2.83-11.45-3.36a6.54,6.54,0,0,1-1.37-.82l-.09-.06,23.23-6.09.21.06L55.6,70l.21.06Z"/><path class="cls-5" d="M32.62,51.69l-.28-.08c-5.61-1.52-10.17-2.82-11.45-3.35a7.53,7.53,0,0,1-1.37-.82l-.09-.07,23.23-6.09.21.06L55.6,45l.21.07Z"/><path class="cls-3" d="M17.91,33.4V46.19s24-6.92,28.91-8.38c10.36-3.09,6.65-22.11,6.65-22.11s-.59,6.91-10.9,10.17C33,28.89,17.91,33.4,17.91,33.4Z"/><path class="cls-3" d="M18.4,70.51c4.28-1.09,35.44-9.07,39.12-10.6,2.72-1.14,3.06-2.73,3.06-4.45V46.34a.39.39,0,0,0-.51-.37L18.2,58a.41.41,0,0,0-.29.38v11.8A.39.39,0,0,0,18.4,70.51Z"/><path class="cls-3" d="M17.91,95.82s35.66-9.09,39.61-10.73c2.72-1.13,3.06-2.73,3.06-4.45V71L17.91,83.22Z"/><path class="cls-4" d="M42,107s-16.3-3.72-20.25-5.36a5.05,5.05,0,0,1-3.06-3.73l13.12-3.38s5,.75,8.25,3.3S42,107,42,107Z"/><path class="cls-5" d="M82.29,76.73,82,76.65c-5.61-1.52-10.17-2.83-11.45-3.36a6.88,6.88,0,0,1-1.38-.82l-.08-.06,23.23-6.09.21.06L105.27,70l.21.06Z"/><path class="cls-5" d="M82.29,51.69,82,51.61c-5.61-1.52-10.17-2.82-11.45-3.35a8,8,0,0,1-1.38-.82l-.08-.07,23.23-6.09.21.06L105.27,45l.21.07Z"/><path class="cls-3" d="M67.58,33.4V46.19s24-6.92,28.91-8.38c10.36-3.09,6.65-22.11,6.65-22.11s-.59,6.91-10.9,10.17C82.71,28.89,67.58,33.4,67.58,33.4Z"/><path class="cls-3" d="M68.07,70.51c4.28-1.09,35.44-9.07,39.12-10.6,2.72-1.14,3.06-2.73,3.06-4.45V46.34a.39.39,0,0,0-.51-.37L67.87,58a.41.41,0,0,0-.29.38v11.8A.39.39,0,0,0,68.07,70.51Z"/><path class="cls-3" d="M67.58,95.82s35.66-9.09,39.61-10.73c2.72-1.13,3.06-2.73,3.06-4.45V71L67.58,83.22Z"/><path class="cls-4" d="M91.68,107s-16.3-3.72-20.25-5.36a5,5,0,0,1-3.06-3.73l13.12-3.38s5,.75,8.25,3.3S91.68,107,91.68,107Z"/></g></svg>