<svg id="Layer_1" data-name="Layer 1" xmlns="http://www.w3.org/2000/svg" viewBox="0 0 128.16 128.16"><defs><style>.cls-1{fill:#62bb46;}.cls-2{fill:gray;}</style></defs><path class="cls-1" d="M101.21,119.11a2.2,2.2,0,0,0,2.18,2.18h15a2.2,2.2,0,0,0,2.18-2.18v-15a2.2,2.2,0,0,0-2.18-2.18h-15a2.2,2.2,0,0,0-2.18,2.18Zm25.87-15v15a8.66,8.66,0,0,1-8.65,8.64h-15a8.66,8.66,0,0,1-8.65-8.64v-15a8.67,8.67,0,0,1,8.65-8.65h15a8.66,8.66,0,0,1,8.65,8.61Z"/><path class="cls-1" d="M101.21,73.84A2.2,2.2,0,0,0,103.39,76h15a2.2,2.2,0,0,0,2.18-2.18v-15a2.2,2.2,0,0,0-2.18-2.18h-15a2.2,2.2,0,0,0-2.18,2.18Zm25.87-15v15a8.67,8.67,0,0,1-8.65,8.65h-15a8.67,8.67,0,0,1-8.65-8.65v-15a8.66,8.66,0,0,1,8.65-8.64h15a8.65,8.65,0,0,1,8.65,8.6Z"/><path class="cls-1" d="M101.21,28.56a2.2,2.2,0,0,0,2.18,2.18h15a2.19,2.19,0,0,0,2.22-2.16v-15a2.2,2.2,0,0,0-2.18-2.18h-15a2.19,2.19,0,0,0-2.22,2.16v15Zm25.87-15v15a8.66,8.66,0,0,1-8.65,8.64h-15a8.66,8.66,0,0,1-8.69-8.63h0v-15a8.66,8.66,0,0,1,8.65-8.64h15a8.65,8.65,0,0,1,8.69,8.61Z"/><polygon class="cls-2" points="92.66 24.3 92.66 17.82 63.99 17.82 62.38 17.82 42.37 17.82 42.37 24.3 62.38 24.3 62.38 114.82 92.66 114.82 92.66 108.35 68.85 108.35 68.85 69.56 92.66 69.56 92.66 63.08 68.85 63.08 68.85 24.3 92.66 24.3"/><path class="cls-1" d="M33.73.41h-24A8.64,8.64,0,0,0,1.08,9.05v24h0a8.64,8.64,0,0,0,8.65,8.63h24a8.64,8.64,0,0,0,8.64-8.64v-24A8.64,8.64,0,0,0,33.73.41Z"/></svg>