<svg id="Layer_1" data-name="Layer 1" xmlns="http://www.w3.org/2000/svg" viewBox="0 0 128.16 128.16"><defs><style>.cls-1{fill:#00aeef;}</style></defs><path class="cls-1" d="M46.36,17.45V9c0-5.09-2.87-6.88-5.33-6.88a7.66,7.66,0,0,0-5,2.23L4.26,32.4a9.47,9.47,0,0,0-3.18,7.15,9.66,9.66,0,0,0,3.3,7.2l31.8,28.06a7.66,7.66,0,0,0,5,2.23c2.46,0,5.33-1.83,5.33-6.92V59.19H73.59A15.05,15.05,0,0,1,88.77,72.86,14.43,14.43,0,0,1,75,88l-.61,0H16.66v38.08h56a53.84,53.84,0,0,0,53.87-44.8A52.87,52.87,0,0,0,82,21.17a52,52,0,0,0-7.58-.58H46.36Z"/></svg>